<svg width="439" height="377" viewBox="0 0 439 377" fill="none" xmlns="http://www.w3.org/2000/svg">
<path d="M385.693 174.728C385.693 219.255 367.506 259.392 338.344 288.241C309.81 316.777 270.3 334.024 226.713 334.024C183.44 334.024 143.93 316.464 115.082 288.241C85.9196 259.392 67.7324 219.255 67.7324 174.728C67.7324 86.6143 138.913 15.4336 226.713 15.4336C314.512 15.4336 385.693 86.9279 385.693 174.728Z" fill="#EAEEF9"/>
<path d="M371.895 70.3144C378.998 70.3144 384.752 64.5585 384.752 57.458C384.752 50.3575 378.998 44.6016 371.895 44.6016C364.796 44.6016 359.039 50.3575 359.039 57.458C359.039 64.5585 364.796 70.3144 371.895 70.3144Z" fill="#EAEEF9"/>
<path d="M390.71 20.1342C395.561 20.1342 399.49 16.2033 399.49 11.3542C399.49 6.50517 395.561 2.57422 390.71 2.57422C385.862 2.57422 381.93 6.50517 381.93 11.3542C381.93 16.2033 385.862 20.1342 390.71 20.1342Z" fill="#EAEEF9"/>
<path d="M72.7497 70.0014C77.5988 70.0014 81.5297 66.0705 81.5297 61.2214C81.5297 56.3723 77.5988 52.4414 72.7497 52.4414C67.9007 52.4414 63.9697 56.3723 63.9697 61.2214C63.9697 66.0705 67.9007 70.0014 72.7497 70.0014Z" fill="#EAEEF9"/>
<path d="M19.1292 239.326C28.1346 239.326 35.4349 232.026 35.4349 223.021C35.4349 214.015 28.1346 206.715 19.1292 206.715C10.1238 206.715 2.82349 214.015 2.82349 223.021C2.82349 232.026 10.1238 239.326 19.1292 239.326Z" fill="#EAEEF9"/>
<g filter="url(#filter0_d_6167_25864)">
<path d="M368.82 83.4283V257.162C368.82 264.393 363.031 270.122 355.935 270.122H94.2448C87.1493 270.122 81.2673 264.299 81.2673 257.162V83.4283C81.2673 76.2911 87.0559 70.4688 94.2448 70.4688H355.935C363.031 70.4688 368.82 76.2911 368.82 83.4283Z" fill="url(#paint0_linear_6167_25864)"/>
</g>
<path d="M368.82 83.4283V102.868H81.2673V83.4283C81.2673 76.2911 87.0559 70.4688 94.2448 70.4688H355.935C363.031 70.4688 368.82 76.2911 368.82 83.4283Z" fill="#D5DDEA"/>
<path d="M99.3794 91.5048C102.06 91.5048 104.234 89.3186 104.234 86.6215C104.234 83.9245 102.06 81.7383 99.3794 81.7383C96.6981 81.7383 94.5244 83.9245 94.5244 86.6215C94.5244 89.3186 96.6981 91.5048 99.3794 91.5048Z" fill="#989FB0"/>
<path d="M115.251 91.5048C117.932 91.5048 120.106 89.3186 120.106 86.6215C120.106 83.9245 117.932 81.7383 115.251 81.7383C112.57 81.7383 110.396 83.9245 110.396 86.6215C110.396 89.3186 112.57 91.5048 115.251 91.5048Z" fill="#989FB0"/>
<path d="M131.029 91.5048C133.71 91.5048 135.884 89.3186 135.884 86.6215C135.884 83.9245 133.71 81.7383 131.029 81.7383C128.348 81.7383 126.174 83.9245 126.174 86.6215C126.174 89.3186 128.348 91.5048 131.029 91.5048Z" fill="#989FB0"/>
<path d="M141.299 221.195H308.788" stroke="#D5DDEA" stroke-width="6.27143" stroke-miterlimit="10" stroke-linecap="round" stroke-linejoin="round"/>
<path d="M167.72 239.121H282.367" stroke="#D5DDEA" stroke-width="6.27143" stroke-miterlimit="10" stroke-linecap="round" stroke-linejoin="round"/>
<path d="M197.035 170.669V180.342H191.153V189.639H180.137V180.342H155.863V169.26L178.363 137.801H191.247V170.763H197.035V170.669ZM180.137 150.666L166.133 170.669H180.137V150.666Z" fill="url(#paint1_linear_6167_25864)"/>
<path d="M224.67 190.67C212.906 190.67 202.543 180.34 202.543 163.624C202.543 146.908 212.813 136.578 224.67 136.578C236.527 136.578 246.796 146.908 246.796 163.624C246.796 180.34 236.527 190.67 224.67 190.67ZM224.67 180.716C230.178 180.716 235.686 175.175 235.686 163.718C235.686 152.261 230.178 146.72 224.67 146.72C219.162 146.72 213.653 152.261 213.653 163.718C213.653 175.175 219.162 180.716 224.67 180.716Z" fill="url(#paint2_linear_6167_25864)"/>
<path d="M294.317 170.669V180.342H288.436V189.639H277.419V180.342H253.145V169.26L275.645 137.801H288.529V170.763H294.317V170.669ZM277.326 150.666L263.321 170.669H277.326V150.666Z" fill="url(#paint3_linear_6167_25864)"/>
<path d="M356.104 308.478L293.558 245.98L307.897 231.641L370.394 294.188L356.104 308.478Z" fill="#858B9B"/>
<path d="M377.847 330.47L329.887 282.509C325.882 278.504 325.882 271.978 329.887 267.972C333.891 263.968 340.419 263.968 344.424 267.972L392.384 315.933C396.389 319.938 396.389 326.466 392.384 330.47C388.38 334.475 381.852 334.475 377.847 330.47Z" fill="#858B9B"/>
<path d="M374.436 333.539L312.729 271.832C311.295 270.398 311.295 268.074 312.729 266.591L328.5 250.818C329.937 249.384 332.26 249.384 333.743 250.818L395.451 312.524C396.884 313.96 396.884 316.284 395.451 317.767L379.678 333.539C378.192 334.972 375.869 334.972 374.436 333.539Z" fill="url(#paint4_linear_6167_25864)"/>
<path d="M222.753 44.6016C157.288 44.6016 104.234 97.6556 104.234 163.12C104.234 228.535 157.288 281.639 222.703 281.639C288.168 281.639 341.222 228.585 341.222 163.12C341.222 97.6556 288.168 44.6016 222.753 44.6016ZM222.753 259.686C170.193 259.686 127.621 216.421 127.621 163.071C127.621 109.72 170.193 66.5055 222.753 66.5055C275.312 66.5055 317.883 109.77 317.883 163.12C317.883 216.471 275.263 259.686 222.753 259.686Z" fill="url(#paint5_linear_6167_25864)"/>
<defs>
<filter id="filter0_d_6167_25864" x="12.2816" y="35.9759" width="425.524" height="337.624" filterUnits="userSpaceOnUse" color-interpolation-filters="sRGB">
<feFlood flood-opacity="0" result="BackgroundImageFix"/>
<feColorMatrix in="SourceAlpha" type="matrix" values="0 0 0 0 0 0 0 0 0 0 0 0 0 0 0 0 0 0 127 0" result="hardAlpha"/>
<feOffset dy="34.4929"/>
<feGaussianBlur stdDeviation="34.4929"/>
<feColorMatrix type="matrix" values="0 0 0 0 0.397708 0 0 0 0 0.47749 0 0 0 0 0.575 0 0 0 0.27 0"/>
<feBlend mode="normal" in2="BackgroundImageFix" result="effect1_dropShadow_6167_25864"/>
<feBlend mode="normal" in="SourceGraphic" in2="effect1_dropShadow_6167_25864" result="shape"/>
</filter>
<linearGradient id="paint0_linear_6167_25864" x1="224.95" y1="65.8508" x2="224.95" y2="272.274" gradientUnits="userSpaceOnUse">
<stop stop-color="#FDFEFF"/>
<stop offset="0.9964" stop-color="#ECF0F5"/>
</linearGradient>
<linearGradient id="paint1_linear_6167_25864" x1="247.299" y1="136.58" x2="257.644" y2="190.672" gradientUnits="userSpaceOnUse">
<stop stop-color="#B0BACC"/>
<stop offset="1" stop-color="#969EAE"/>
</linearGradient>
<linearGradient id="paint2_linear_6167_25864" x1="247.299" y1="136.578" x2="257.644" y2="190.67" gradientUnits="userSpaceOnUse">
<stop stop-color="#B0BACC"/>
<stop offset="1" stop-color="#969EAE"/>
</linearGradient>
<linearGradient id="paint3_linear_6167_25864" x1="247.299" y1="136.58" x2="257.644" y2="190.672" gradientUnits="userSpaceOnUse">
<stop stop-color="#B0BACC"/>
<stop offset="1" stop-color="#969EAE"/>
</linearGradient>
<linearGradient id="paint4_linear_6167_25864" x1="311.615" y1="292.187" x2="396.539" y2="292.187" gradientUnits="userSpaceOnUse">
<stop stop-color="#B0BACC"/>
<stop offset="1" stop-color="#969EAE"/>
</linearGradient>
<linearGradient id="paint5_linear_6167_25864" x1="104.126" y1="163.146" x2="341.266" y2="163.146" gradientUnits="userSpaceOnUse">
<stop stop-color="#B0BACC"/>
<stop offset="1" stop-color="#969EAE"/>
</linearGradient>
</defs>
</svg>
