<svg width="509" height="298" viewBox="0 0 509 298" fill="none" xmlns="http://www.w3.org/2000/svg">
<g opacity="0.8" clip-path="url(#clip0_6167_25295)">
<path d="M63.6912 91.3727L78.357 107.03L80.0087 81.338" stroke="#E6EBF7" stroke-width="1.584" stroke-linecap="round" stroke-linejoin="round"/>
<path d="M62.5629 92.291L56.066 116.362L52.3108 97.5997" stroke="#E6EBF7" stroke-width="1.584" stroke-linecap="round" stroke-linejoin="round"/>
<path d="M80.76 82.0415L103.868 91.5923L93.728 74.9012" stroke="#E6EBF7" stroke-width="1.584" stroke-linecap="round" stroke-linejoin="round"/>
<path d="M43.4523 122.009C41.8123 120.429 99.839 143.543 99.839 143.543L67.6836 112.309L43.4523 122.009Z" fill="white" stroke="#E6EBF7" stroke-width="1.584" stroke-linecap="round" stroke-linejoin="round"/>
<path d="M99.972 143.189L92.2127 99.9698L66.3356 113.012L99.972 143.189Z" fill="white" stroke="#E6EBF7" stroke-width="1.584" stroke-linecap="round" stroke-linejoin="round"/>
<path d="M43.0915 121.783L52.0763 96.383L64.0335 89.1772L66.4377 112.67L43.0915 121.783Z" fill="white" stroke="#E6EBF7" stroke-width="1.584" stroke-linecap="round" stroke-linejoin="round"/>
<path d="M79.4557 80.3805L93.2421 74.725L113.932 83.9334L91.871 99.8703L79.4557 80.3805Z" fill="white" stroke="#E6EBF7" stroke-width="1.584" stroke-linecap="round" stroke-linejoin="round"/>
<path d="M63.6749 89.4321L79.3652 80.4246L92.2107 99.9761L66.5587 112.9L63.6749 89.4321Z" fill="white" stroke="#E6EBF7" stroke-width="1.584" stroke-linecap="round" stroke-linejoin="round"/>
<path d="M99.9722 143.188L114.156 83.805L92.2136 99.9678L99.9722 143.188Z" fill="white" stroke="#E6EBF7" stroke-width="1.584" stroke-linecap="round" stroke-linejoin="round"/>
<path d="M54.7812 56.3594L66.3885 77.9326L54.7812 56.3594Z" fill="white"/>
<path d="M54.7812 56.3594L66.3885 77.9326" stroke="#E6EBF7" stroke-width="1.584" stroke-linecap="round" stroke-linejoin="round"/>
<path d="M86.6946 68.2137L88.5985 49.6757L86.6946 68.2137Z" fill="white"/>
<path d="M86.6946 68.2137L88.5985 49.6757" stroke="#E6EBF7" stroke-width="1.584" stroke-linecap="round" stroke-linejoin="round"/>
<path d="M111.502 77.054L120.156 62.5899L111.502 77.054Z" fill="white"/>
<path d="M111.502 77.054L120.156 62.5899" stroke="#E6EBF7" stroke-width="1.584" stroke-linecap="round" stroke-linejoin="round"/>
<path d="M115.018 106.691L132.02 107.367L115.018 106.691Z" fill="white"/>
<path d="M15.4688 115.137L34.9386 118.126L15.4688 115.137Z" fill="white"/>
<path d="M15.4688 115.137L34.9386 118.126" stroke="#E6EBF7" stroke-width="1.584" stroke-linecap="round" stroke-linejoin="round"/>
<path d="M31.4551 81.7188L44.6725 92.3472L31.4551 81.7188Z" fill="white"/>
<path d="M31.4551 81.7188L44.6725 92.3472" stroke="#E6EBF7" stroke-width="1.584" stroke-linecap="round" stroke-linejoin="round"/>
<path d="M63.813 89.2612L78.3544 107.033L80.006 81.3413" stroke="#E6EBF7" stroke-width="0.792" stroke-linecap="round" stroke-linejoin="round"/>
<path d="M63.3662 90.1543L53.5132 117.318L52.3121 97.601" stroke="#E6EBF7" stroke-width="0.792" stroke-linecap="round" stroke-linejoin="round"/>
<path d="M79.6069 80.1758L103.871 91.5924L93.7306 74.9012" stroke="#E6EBF7" stroke-width="0.792" stroke-linecap="round" stroke-linejoin="round"/>
<path d="M103.688 91.5789L100.333 141.894" stroke="#E6EBF7" stroke-width="0.792" stroke-linecap="round" stroke-linejoin="round"/>
<path d="M78.4849 106.719L99.7649 142.108L98.0437 141.681" stroke="#E6EBF7" stroke-width="0.792" stroke-linecap="round" stroke-linejoin="round"/>
<path d="M54.0518 117.613L98.7369 142.57" stroke="#E6EBF7" stroke-width="0.792" stroke-linecap="round" stroke-linejoin="round"/>
<path d="M56.4479 137.923L50.8603 151.729L56.4479 137.923Z" fill="#E6EBF7"/>
<path d="M56.4479 137.923L50.8603 151.729" stroke="#E6EBF7" stroke-width="1.584" stroke-linecap="round"/>
<path d="M114.937 111.738L125.548 115.893L114.937 111.738Z" fill="#E6EBF7"/>
<path d="M114.937 111.738L125.548 115.893" stroke="#E6EBF7" stroke-width="1.584" stroke-linecap="round" stroke-linejoin="round"/>
</g>
<path d="M509 269.777H97V269.983H509V269.777Z" fill="#EBEBEB"/>
<path d="M467.718 283.035H396.112V283.241H467.718V283.035Z" fill="#EBEBEB"/>
<path d="M398.872 275.391H391.712V275.597H398.872V275.391Z" fill="#EBEBEB"/>
<path d="M343.632 282.219H327.819V282.425H343.632V282.219Z" fill="#EBEBEB"/>
<path d="M158.025 276.773H140.227V276.979H158.025V276.773Z" fill="#EBEBEB"/>
<path d="M188.374 276.773H165.359V276.979H188.374V276.773Z" fill="#EBEBEB"/>
<path d="M306.716 280.152H268.12V280.358H306.716V280.152Z" fill="#EBEBEB"/>
<path d="M292.288 233.027H133.182C131.935 233.025 130.741 232.528 129.86 231.646C128.979 230.764 128.485 229.569 128.485 228.322V4.66384C128.496 3.42456 128.995 2.23961 129.874 1.36637C130.754 0.49313 131.942 0.00212294 133.182 0H292.288C293.536 0 294.732 0.495708 295.615 1.37807C296.497 2.26044 296.993 3.45719 296.993 4.70504V228.322C296.993 229.57 296.497 230.767 295.615 231.649C294.732 232.532 293.536 233.027 292.288 233.027ZM133.182 0.164801C131.99 0.166983 130.848 0.64195 130.006 1.48545C129.164 2.32894 128.691 3.47205 128.691 4.66384V228.322C128.691 229.514 129.164 230.657 130.006 231.501C130.848 232.344 131.99 232.819 133.182 232.821H292.288C293.48 232.819 294.623 232.344 295.467 231.501C296.31 230.658 296.785 229.515 296.787 228.322V4.66384C296.785 3.47129 296.31 2.32821 295.467 1.48494C294.623 0.641682 293.48 0.166979 292.288 0.164801H133.182Z" fill="#EBEBEB"/>
<path d="M470.527 233.027H311.413C310.166 233.025 308.97 232.529 308.088 231.647C307.207 230.765 306.71 229.569 306.708 228.322V4.66384C306.721 3.42381 307.222 2.23887 308.103 1.36586C308.984 0.492842 310.173 0.00209979 311.413 0H470.527C471.765 0.0042885 472.952 0.496253 473.829 1.36926C474.707 2.24227 475.205 3.42599 475.216 4.66384V228.322C475.216 229.567 474.723 230.761 473.844 231.643C472.965 232.525 471.772 233.023 470.527 233.027ZM311.413 0.164801C310.22 0.166979 309.077 0.641682 308.234 1.48494C307.391 2.32821 306.916 3.47129 306.914 4.66384V228.322C306.916 229.515 307.391 230.658 308.234 231.501C309.077 232.344 310.22 232.819 311.413 232.821H470.527C471.72 232.819 472.863 232.344 473.706 231.501C474.55 230.658 475.024 229.515 475.026 228.322V4.66384C475.024 3.47129 474.55 2.32821 473.706 1.48494C472.863 0.641682 471.72 0.166979 470.527 0.164801H311.413Z" fill="#EBEBEB"/>
<path d="M268.919 14.7812H141.504V196.992H268.919V14.7812Z" fill="#E6E6E6"/>
<path d="M272.743 14.7812H143.292V196.992H272.743V14.7812Z" fill="#F0F0F0"/>
<path d="M268.919 196.992H141.504V200.329H268.919V196.992Z" fill="#E6E6E6"/>
<path d="M274.778 196.992H145.328V200.329H274.778V196.992Z" fill="#F0F0F0"/>
<path d="M267.395 191.636V20.1289L148.648 20.1289V191.636H267.395Z" fill="#FAFAFA"/>
<path d="M203.51 191.636L232.317 20.1367H247.149L218.342 191.636H203.51Z" fill="white"/>
<path d="M166.084 191.636L194.891 20.1367H209.723L180.916 191.636H166.084Z" fill="white"/>
<path d="M151.121 105.553C150.898 105.553 150.717 105.281 150.717 104.943V23.8125C150.717 23.4746 150.898 23.2109 151.121 23.2109C151.343 23.2109 151.533 23.4746 151.533 23.8125V104.943C151.533 105.281 151.384 105.553 151.121 105.553Z" fill="#F0F0F0"/>
<path d="M221.531 191.636L250.338 20.1367H256.115L227.307 191.636H221.531Z" fill="white"/>
<path d="M267.395 191.644V20.1367H266.719V191.644H267.395Z" fill="#E6E6E6"/>
<path opacity="0.5" d="M274.012 35.6048H146.596L146.102 22.2148H273.517L274.012 35.6048Z" fill="#E0E0E0"/>
<path opacity="0.5" d="M274.012 57.6044H146.596L146.102 44.2227H273.517L274.012 57.6044Z" fill="#E0E0E0"/>
<path opacity="0.5" d="M274.012 79.6161H146.596L146.102 66.2344H273.517L274.012 79.6161Z" fill="#E0E0E0"/>
<path opacity="0.5" d="M274.012 101.624H146.596L146.102 88.2344H273.517L274.012 101.624Z" fill="#E0E0E0"/>
<path opacity="0.5" d="M274.012 123.624H146.596L146.102 110.242H273.517L274.012 123.624Z" fill="#E0E0E0"/>
<path opacity="0.5" d="M274.012 145.636H146.596L146.102 132.254H273.517L274.012 145.636Z" fill="#E0E0E0"/>
<path opacity="0.5" d="M274.012 46.6048H146.596L146.102 33.2148H273.517L274.012 46.6048Z" fill="#E0E0E0"/>
<path opacity="0.5" d="M274.012 68.6127H146.596L146.102 55.2227H273.517L274.012 68.6127Z" fill="#E0E0E0"/>
<path opacity="0.5" d="M274.012 90.6161H146.596L146.102 77.2344H273.517L274.012 90.6161Z" fill="#E0E0E0"/>
<path opacity="0.5" d="M274.012 112.624H146.596L146.102 99.2422H273.517L274.012 112.624Z" fill="#E0E0E0"/>
<path opacity="0.5" d="M274.012 134.632H146.596L146.102 121.242H273.517L274.012 134.632Z" fill="#E0E0E0"/>
<path opacity="0.5" d="M274.012 156.644H146.596L146.102 143.254H273.517L274.012 156.644Z" fill="#E0E0E0"/>
<path d="M341.785 139.711H316.39V266.978H341.785V139.711Z" fill="#F0F0F0"/>
<path d="M446.499 266.977H321.268V269.778H446.499V266.977Z" fill="#F0F0F0"/>
<path d="M341.778 266.977H451.361V139.71H341.778V266.977Z" fill="#F5F5F5"/>
<path d="M438.762 211.412H354.377C353.575 211.41 352.807 211.091 352.241 210.524C351.674 209.958 351.355 209.19 351.353 208.388V188.695C351.353 187.892 351.671 187.122 352.238 186.553C352.805 185.985 353.574 185.664 354.377 185.662H368.327C368.89 185.671 369.439 185.835 369.914 186.136C370.39 186.437 370.773 186.863 371.021 187.368C371.292 187.868 371.693 188.285 372.182 188.575C372.671 188.865 373.23 189.018 373.798 189.016H419.357C420.189 189.014 420.986 188.682 421.574 188.093C421.812 187.85 422.012 187.572 422.167 187.269C422.416 186.774 422.797 186.358 423.269 186.067C423.74 185.776 424.283 185.622 424.837 185.621H438.762C439.567 185.621 440.338 185.941 440.907 186.509C441.475 187.078 441.795 187.849 441.795 188.653V208.388C441.793 209.191 441.472 209.96 440.904 210.527C440.335 211.094 439.565 211.412 438.762 211.412ZM354.377 186.495C353.792 186.497 353.233 186.73 352.82 187.144C352.408 187.558 352.177 188.119 352.177 188.703V208.388C352.179 208.971 352.411 209.529 352.823 209.942C353.235 210.354 353.794 210.586 354.377 210.588H438.762C439.347 210.588 439.907 210.357 440.321 209.944C440.735 209.532 440.969 208.972 440.971 208.388V188.695C440.971 188.109 440.738 187.547 440.324 187.133C439.91 186.719 439.348 186.486 438.762 186.486H424.837C424.438 186.485 424.046 186.593 423.705 186.8C423.363 187.006 423.085 187.302 422.9 187.656C422.707 188.038 422.454 188.386 422.151 188.686C421.785 189.055 421.349 189.347 420.87 189.546C420.391 189.746 419.876 189.848 419.357 189.848H373.798C373.08 189.849 372.375 189.654 371.758 189.286C371.141 188.917 370.636 188.388 370.296 187.755C370.116 187.384 369.836 187.069 369.489 186.845C369.142 186.622 368.74 186.497 368.327 186.486L354.377 186.495Z" fill="#EBEBEB"/>
<path d="M438.762 245.799H354.377C353.575 245.796 352.807 245.477 352.241 244.91C351.674 244.344 351.355 243.576 351.353 242.775V223.089C351.353 222.286 351.671 221.516 352.238 220.948C352.805 220.379 353.574 220.059 354.377 220.057H368.327C368.89 220.066 369.439 220.23 369.914 220.53C370.39 220.831 370.773 221.258 371.021 221.763C371.292 222.262 371.693 222.68 372.182 222.97C372.671 223.26 373.23 223.412 373.798 223.411H419.357C419.768 223.412 420.176 223.331 420.555 223.173C420.934 223.014 421.278 222.781 421.566 222.488C421.809 222.247 422.012 221.969 422.167 221.664C422.416 221.169 422.797 220.752 423.269 220.461C423.74 220.17 424.283 220.016 424.837 220.016H438.762C439.567 220.016 440.338 220.335 440.907 220.904C441.475 221.472 441.795 222.244 441.795 223.048V242.733C441.799 243.134 441.724 243.532 441.574 243.904C441.423 244.276 441.2 244.614 440.918 244.899C440.636 245.184 440.301 245.41 439.931 245.565C439.56 245.719 439.163 245.799 438.762 245.799ZM354.377 220.881C353.792 220.883 353.233 221.117 352.82 221.531C352.408 221.944 352.177 222.505 352.177 223.089V242.775C352.179 243.357 352.411 243.916 352.823 244.328C353.235 244.74 353.794 244.972 354.377 244.975H438.762C439.347 244.975 439.907 244.743 440.321 244.331C440.735 243.918 440.969 243.359 440.971 242.775V223.089C440.971 222.503 440.738 221.942 440.324 221.528C439.91 221.113 439.348 220.881 438.762 220.881H424.837C424.438 220.879 424.046 220.988 423.705 221.194C423.363 221.401 423.085 221.697 422.9 222.051C422.707 222.432 422.454 222.78 422.151 223.081C421.786 223.451 421.351 223.745 420.872 223.945C420.392 224.144 419.877 224.246 419.357 224.243H373.798C373.08 224.243 372.375 224.049 371.758 223.68C371.141 223.312 370.636 222.783 370.296 222.15C370.116 221.778 369.836 221.464 369.489 221.24C369.142 221.016 368.74 220.892 368.327 220.881H354.377Z" fill="#EBEBEB"/>
<path d="M441.795 261.11H351.353V253.793H441.795V261.11ZM352.177 260.286H440.971V254.617H352.177V260.286Z" fill="#EBEBEB"/>
<path d="M438.762 177.037H354.377C353.575 177.035 352.807 176.716 352.241 176.149C351.674 175.582 351.355 174.815 351.353 174.013V154.328C351.353 153.525 351.671 152.755 352.238 152.187C352.805 151.618 353.574 151.298 354.377 151.296H368.327C368.889 151.304 369.437 151.466 369.913 151.766C370.388 152.065 370.772 152.49 371.021 152.993C371.292 153.493 371.693 153.911 372.182 154.201C372.671 154.492 373.23 154.644 373.798 154.641H419.357C420.189 154.639 420.986 154.307 421.574 153.718C421.812 153.475 422.012 153.197 422.167 152.894C422.416 152.399 422.797 151.983 423.269 151.692C423.74 151.401 424.283 151.247 424.837 151.246H438.762C439.161 151.246 439.555 151.325 439.923 151.477C440.291 151.629 440.625 151.853 440.907 152.134C441.188 152.416 441.412 152.75 441.564 153.118C441.716 153.486 441.795 153.88 441.795 154.278V173.964C441.8 174.365 441.726 174.764 441.576 175.137C441.426 175.51 441.203 175.849 440.921 176.135C440.639 176.421 440.303 176.648 439.932 176.803C439.562 176.958 439.164 177.037 438.762 177.037ZM354.377 152.12C353.792 152.122 353.233 152.355 352.82 152.769C352.408 153.183 352.177 153.744 352.177 154.328V174.013C352.179 174.596 352.411 175.154 352.823 175.567C353.235 175.979 353.794 176.211 354.377 176.213H438.762C439.347 176.213 439.907 175.982 440.321 175.569C440.735 175.157 440.969 174.597 440.971 174.013V154.328C440.971 153.742 440.738 153.18 440.324 152.766C439.91 152.352 439.348 152.12 438.762 152.12H424.837C424.438 152.118 424.046 152.227 423.705 152.433C423.363 152.639 423.085 152.936 422.9 153.29C422.707 153.671 422.454 154.019 422.151 154.32C421.785 154.689 421.35 154.981 420.87 155.181C420.391 155.38 419.877 155.482 419.357 155.481H373.798C373.08 155.481 372.375 155.286 371.759 154.918C371.142 154.549 370.637 154.021 370.296 153.388C370.116 153.017 369.836 152.702 369.489 152.479C369.142 152.255 368.74 152.131 368.327 152.12H354.377Z" fill="#EBEBEB"/>
<path d="M454.756 137.656H341.785V139.708H454.756V137.656Z" fill="#F0F0F0"/>
<path d="M312.846 139.711H341.785V137.659H312.846V139.711Z" fill="#E6E6E6"/>
<path d="M430.16 19.1758H333.232V115.378H430.16V19.1758Z" fill="#E6E6E6"/>
<path d="M435.392 19.1758H334.222V115.378H435.392V19.1758Z" fill="#F0F0F0"/>
<path d="M430.72 110.714V23.8477L338.893 23.8477V110.714H430.72Z" fill="white"/>
<path d="M384.807 103.043C377.734 103.043 370.819 100.945 364.938 97.0158C359.057 93.0863 354.474 87.5011 351.767 80.9665C349.06 74.4319 348.352 67.2415 349.732 60.3044C351.112 53.3673 354.518 46.9952 359.519 41.9939C364.521 36.9925 370.893 33.5866 377.83 32.2067C384.767 30.8268 391.957 31.535 398.492 34.2417C405.026 36.9484 410.612 41.5321 414.541 47.4131C418.471 53.294 420.568 60.2082 420.568 67.2811C420.557 76.7624 416.786 85.8521 410.082 92.5564C403.378 99.2606 394.288 103.032 384.807 103.043ZM384.807 32.1375C377.856 32.1375 371.061 34.1987 365.282 38.0603C359.502 41.9219 354.998 47.4106 352.338 53.8323C349.678 60.2539 348.982 67.3201 350.338 74.1373C351.694 80.9545 355.041 87.2165 359.956 92.1314C364.871 97.0463 371.133 100.393 377.95 101.749C384.768 103.106 391.834 102.41 398.255 99.7496C404.677 97.0897 410.166 92.5852 414.027 86.8059C417.889 81.0266 419.95 74.2319 419.95 67.2811C419.941 57.9632 416.236 49.0293 409.647 42.4405C403.058 35.8517 394.125 32.1463 384.807 32.1375Z" fill="#F5F5F5"/>
<path d="M415.905 291.828L421.805 290.263L418.929 276.387L413.029 277.961L415.905 291.828Z" fill="#B55B52"/>
<path d="M421.993 289.175L415.475 291.318C415.364 291.348 415.27 291.422 415.212 291.522C415.155 291.623 415.14 291.742 415.171 291.853L416.555 297.118C416.642 297.39 416.833 297.616 417.086 297.747C417.339 297.879 417.634 297.904 417.906 297.819C420.164 296.995 421.202 296.542 424.07 295.602C425.833 295.017 430.101 293.707 432.532 292.908C434.963 292.109 434.114 289.727 433.01 289.843C428.066 290.386 425.174 289.95 423.122 289.208C422.761 289.068 422.362 289.056 421.993 289.175Z" fill="#8B94A8"/>
<path opacity="0.2" d="M413.029 277.961L418.929 276.387L420.412 283.539L414.504 285.113L413.029 277.961Z" fill="black"/>
<path d="M397.9 136.555C397.9 136.555 406.14 186.283 408.612 203.628C411.29 222.621 421.318 279.758 421.318 279.758L411.43 283.499C411.43 283.499 395.651 227.327 391.292 208.861C386.554 188.813 376.122 136.555 376.122 136.555H397.9Z" fill="#8B94A8"/>
<path opacity="0.3" d="M384.658 156.946C388.877 167.485 389.355 185.399 387.641 192.741C385.054 180.686 382.087 166.266 379.805 155.051C380.62 152.175 382.104 150.536 384.658 156.946Z" fill="black"/>
<path d="M410.985 284.899L422.463 281.455L422.134 276.758L408.472 280.754L410.985 284.899Z" fill="#8B94A8"/>
<path d="M424.383 289.513C423.846 289.67 423.294 289.77 422.735 289.809C422.708 289.812 422.681 289.807 422.657 289.795C422.632 289.783 422.611 289.766 422.595 289.744C422.581 289.72 422.574 289.693 422.574 289.665C422.574 289.638 422.581 289.611 422.595 289.587C422.735 289.397 424.012 287.733 424.812 287.774C424.902 287.781 424.989 287.81 425.066 287.859C425.142 287.908 425.205 287.975 425.248 288.054C425.337 288.171 425.392 288.31 425.405 288.456C425.418 288.601 425.389 288.748 425.323 288.878C425.094 289.194 424.762 289.419 424.383 289.513ZM423.073 289.513C424.186 289.373 424.935 289.093 425.117 288.738C425.153 288.654 425.167 288.562 425.157 288.471C425.146 288.38 425.113 288.293 425.059 288.219C425.038 288.18 425.007 288.146 424.97 288.121C424.932 288.097 424.889 288.082 424.845 288.079C424.416 288.038 423.609 288.845 423.073 289.496V289.513Z" fill="#E6EBF7"/>
<path d="M422.802 289.799C422.78 289.807 422.757 289.807 422.736 289.799C422.712 289.795 422.69 289.786 422.671 289.772C422.653 289.757 422.638 289.738 422.628 289.717C422.628 289.642 421.92 288.019 422.315 287.245C422.368 287.148 422.44 287.064 422.529 286.998C422.617 286.933 422.719 286.887 422.826 286.866C422.944 286.831 423.07 286.838 423.184 286.884C423.298 286.93 423.392 287.014 423.452 287.121C423.799 287.706 423.329 289.206 422.867 289.733C422.843 289.782 422.826 289.799 422.802 289.799ZM422.802 287.187C422.695 287.225 422.607 287.301 422.554 287.401C422.416 288.064 422.494 288.755 422.777 289.37C423.178 288.755 423.326 288.008 423.189 287.286C423.148 287.212 423.073 287.129 422.867 287.17L422.802 287.187Z" fill="#E6EBF7"/>
<path d="M396.648 85.3573C396.887 85.7446 397.216 86.2884 397.521 86.7581L398.461 88.2413C399.112 89.2218 399.754 90.2024 400.438 91.1665C401.781 93.0864 403.199 94.9486 404.665 96.7202C406.096 98.4523 407.643 100.085 409.296 101.607C410.79 103.003 412.451 104.209 414.24 105.199L412.938 104.828C414.214 105.09 415.522 105.165 416.819 105.051C417.528 104.985 418.253 104.894 418.995 104.762C419.736 104.631 420.486 104.449 421.244 104.243C422.804 103.818 424.337 103.298 425.834 102.686C426.6 102.373 427.367 102.052 428.133 101.705C428.899 101.359 429.682 100.972 430.349 100.659L430.572 100.552C431.211 100.246 431.946 100.206 432.615 100.441C433.284 100.676 433.832 101.166 434.14 101.804C434.371 102.296 434.448 102.847 434.361 103.383C434.274 103.92 434.028 104.418 433.654 104.812C432.904 105.586 432.245 106.204 431.503 106.855C430.761 107.506 430.02 108.083 429.237 108.66C427.644 109.824 425.957 110.855 424.194 111.742C422.334 112.676 420.374 113.398 418.352 113.892C417.266 114.142 416.165 114.321 415.056 114.428C413.891 114.527 412.719 114.527 411.554 114.428C411.223 114.395 410.898 114.315 410.59 114.189L410.26 114.049C407.537 112.87 404.994 111.314 402.704 109.426C400.534 107.676 398.513 105.746 396.664 103.658C394.858 101.659 393.169 99.5568 391.605 97.363C390.83 96.2643 390.083 95.1656 389.364 94.067C389.009 93.4984 388.655 92.9381 388.309 92.353C387.963 91.768 387.65 91.2242 387.271 90.5155C386.569 89.2819 386.387 87.8201 386.763 86.4517C387.139 85.0834 388.044 83.9205 389.277 83.219C390.511 82.5175 391.973 82.3348 393.341 82.7111C394.709 83.0873 395.872 83.9918 396.574 85.2254L396.648 85.3573Z" fill="#8B94A8"/>
<path opacity="0.3" d="M401.724 100.43C398.51 93.8382 393.031 94.2172 390.822 96.2525L391.449 97.1672C392.944 99.2873 394.556 101.323 396.277 103.265C398.039 105.261 399.945 107.125 401.979 108.843C402.622 109.371 403.289 109.89 403.965 110.384C403.873 106.952 403.112 103.571 401.724 100.43Z" fill="black"/>
<path d="M432.179 99.7056L436.299 96.2695L438.771 101.601C438.771 101.601 432.632 105.993 431.223 104.444L431.058 102.458C431.012 101.943 431.089 101.424 431.284 100.946C431.479 100.467 431.786 100.042 432.179 99.7056Z" fill="#B55B52"/>
<path d="M441.795 96.9179L443.088 101.038L438.738 101.573L436.282 96.2422L441.795 96.9179Z" fill="#B55B52"/>
<path d="M364.289 291.629H370.395L371.186 277.48H365.08L364.289 291.629Z" fill="#B55B52"/>
<path d="M370.716 290.922H363.853C363.795 290.92 363.738 290.929 363.684 290.949C363.63 290.969 363.581 290.999 363.539 291.038C363.497 291.077 363.463 291.124 363.439 291.177C363.415 291.229 363.401 291.285 363.399 291.342L363.062 296.773C363.061 297.058 363.174 297.332 363.374 297.536C363.575 297.739 363.847 297.856 364.133 297.86C366.522 297.819 367.668 297.679 370.684 297.679C372.538 297.679 377.655 297.869 380.217 297.869C382.78 297.869 382.689 295.331 381.626 295.1C376.748 294.078 373.493 292.628 371.738 291.301C371.45 291.063 371.09 290.929 370.716 290.922Z" fill="#8B94A8"/>
<path opacity="0.2" d="M365.08 277.492H371.186L370.774 284.785H364.668L365.08 277.492Z" fill="black"/>
<path d="M385.968 136.555C385.968 136.555 385.441 189.629 384.452 207.122C383.364 226.272 373.394 283.021 373.394 283.021H362.204C362.204 283.021 367.082 227.813 366.407 208.861C365.673 188.261 365.228 136.555 365.228 136.555H385.968Z" fill="#8B94A8"/>
<path d="M361.306 283.021H374.952L375.619 278.777L360.729 279.437L361.306 283.021Z" fill="#8B94A8"/>
<path d="M372.875 291.984C372.32 291.972 371.767 291.9 371.227 291.77C371.2 291.765 371.174 291.752 371.154 291.732C371.135 291.712 371.121 291.687 371.116 291.659C371.111 291.632 371.114 291.603 371.125 291.578C371.136 291.552 371.154 291.53 371.178 291.515C371.375 291.375 373.098 290.196 373.847 290.493C373.932 290.525 374.006 290.579 374.064 290.648C374.121 290.717 374.16 290.8 374.177 290.889C374.216 291.022 374.22 291.163 374.19 291.298C374.16 291.433 374.096 291.559 374.004 291.663C373.68 291.905 373.278 292.02 372.875 291.984ZM371.639 291.564C372.735 291.778 373.543 291.745 373.823 291.465C373.885 291.398 373.928 291.315 373.946 291.225C373.965 291.135 373.96 291.041 373.93 290.954C373.923 290.91 373.904 290.867 373.875 290.832C373.846 290.798 373.808 290.771 373.765 290.757C373.369 290.6 372.348 291.111 371.639 291.564Z" fill="#E6EBF7"/>
<path d="M371.285 291.773C371.263 291.781 371.24 291.781 371.219 291.773C371.197 291.762 371.178 291.746 371.165 291.726C371.152 291.705 371.145 291.682 371.145 291.658C371.145 291.583 370.996 289.828 371.614 289.235C371.693 289.159 371.788 289.102 371.892 289.068C371.997 289.034 372.107 289.023 372.216 289.037C372.337 289.042 372.454 289.086 372.548 289.163C372.642 289.241 372.708 289.347 372.735 289.466C372.875 290.133 371.96 291.41 371.359 291.773C371.335 291.781 371.309 291.781 371.285 291.773ZM372.109 289.301C371.995 289.301 371.885 289.345 371.804 289.425C371.465 290.01 371.323 290.689 371.4 291.361C371.936 290.916 372.537 289.944 372.446 289.507C372.446 289.425 372.381 289.326 372.175 289.301H372.109Z" fill="#E6EBF7"/>
<path d="M395.33 86.9249C395.022 85.8945 394.44 84.9671 393.646 84.2415C392.852 83.5159 391.876 83.0194 390.822 82.8049C389.316 82.4488 387.788 82.1873 386.249 82.0221C381.625 81.7583 376.989 81.7583 372.365 82.0221C369.942 82.1375 367.47 82.4341 365.501 82.7225H365.427C364.909 82.7954 364.411 82.9717 363.963 83.2409C363.515 83.5101 363.125 83.8668 362.818 84.2896C362.51 84.7125 362.291 85.1929 362.173 85.7022C362.055 86.2116 362.041 86.7395 362.131 87.2545C363.682 95.4499 364.698 103.738 365.171 112.065C365.649 124.153 364.998 133.646 365.229 136.563H397.901C399.886 107.055 397.324 93.6488 395.33 86.9249Z" fill="#E6E6E6"/>
<path d="M373.287 81.4766C375.858 91.9084 378.231 118.342 378.19 139.008H364.38C364.133 135.926 364.825 125.923 364.322 113.176C363.827 104.413 362.767 95.6902 361.15 87.0633C361.056 86.5226 361.071 85.9686 361.194 85.4339C361.317 84.8991 361.546 84.3943 361.866 83.9491C362.187 83.5039 362.594 83.1273 363.062 82.8414C363.531 82.5554 364.051 82.366 364.594 82.2841H364.668C366.745 81.9792 369.348 81.6661 371.903 81.5425L373.287 81.4766Z" fill="#8B94A8"/>
<path d="M397.011 87.0704C396.659 85.9315 396.019 84.9029 395.153 84.0843C394.287 83.2656 393.224 82.6849 392.067 82.3983C389.883 82.055 387.682 81.8295 385.475 81.7227C388.087 90.7867 393.212 118.399 391.688 139.007H400.405C402.474 108.082 398.955 92.7231 397.011 87.0704Z" fill="#8B94A8"/>
<path d="M447.933 115.641L382.928 143.46L375.116 125.299L440.13 97.4805L447.933 115.641Z" fill="#E6EBF7"/>
<g clip-path="url(#clip1_6167_25295)">
<path fill-rule="evenodd" clip-rule="evenodd" d="M386.101 122.824C386 122.6 386.096 122.338 386.315 122.238C386.535 122.139 386.796 122.239 386.898 122.463L387.278 123.3C387.379 123.524 387.283 123.787 387.063 123.886C386.844 123.986 386.583 123.886 386.481 123.662L386.101 122.824ZM392.239 123.762L395.303 126.281C395.45 126.408 395.497 126.58 395.45 126.754L392.831 135.795C392.795 135.918 392.709 136.018 392.594 136.07C392.479 136.123 392.346 136.122 392.231 136.068L383.701 132.087C383.538 132.006 383.44 131.858 383.442 131.665L383.563 127.7C383.578 127.525 383.651 127.39 383.818 127.314L391.781 123.7C391.952 123.622 392.1 123.659 392.239 123.762ZM391.428 127.333L391.505 124.803L388.964 125.956L391.428 127.333ZM387.678 129.472L390.864 128.026L388.29 126.588L387.678 129.472ZM386.785 129.44L387.371 126.679L384.83 127.832L386.785 129.44ZM386.238 130.126L384.413 128.626L384.341 130.987L386.238 130.126ZM386.987 130.763L384.94 131.693L391.076 134.556L386.987 130.763ZM387.853 130.37L391.573 133.822L391.425 128.749L387.853 130.37ZM392.291 128.356L392.454 133.931L394.338 127.427L392.291 128.356ZM392.377 125.011L392.304 127.372L394.201 126.511L392.377 125.011ZM385.438 124.792L384.615 124.474C384.388 124.387 384.135 124.501 384.052 124.73C383.968 124.959 384.085 125.215 384.312 125.303L385.135 125.62C385.362 125.708 385.615 125.594 385.698 125.365C385.782 125.136 385.665 124.879 385.438 124.792ZM389.119 122.43C389.203 122.201 389.455 122.087 389.682 122.174C389.909 122.262 390.026 122.519 389.942 122.747L389.639 123.576C389.556 123.805 389.303 123.919 389.076 123.832C388.849 123.744 388.732 123.487 388.816 123.259L389.119 122.43Z" fill="white"/>
</g>
<path d="M438.688 107.518L400.693 123.776L399.836 121.765L437.831 105.508L438.688 107.518Z" fill="white"/>
<path d="M435.862 113.772L402.531 128.036L401.666 126.025L434.997 111.762L435.862 113.772Z" fill="white"/>
<path opacity="0.3" d="M368.648 97.6432C368.418 90.7134 363.301 88.0684 361.859 89.9306C361.795 90.0059 361.737 90.0857 361.686 90.1695C362.584 95.5091 363.68 102.859 364.158 110.102C366.588 108.701 368.863 104.227 368.648 97.6432Z" fill="black"/>
<path d="M385.589 82.0046C381.552 81.0488 380.843 78.5521 381.115 75.8082C381.179 75.1209 381.287 74.4384 381.437 73.7646L376.377 69.5622L372.661 66.4805C373.691 70.9548 374.853 79.1042 371.837 82.087C371.837 82.087 374.309 86.207 381.255 85.8445C387.048 85.5231 385.589 82.0046 385.589 82.0046Z" fill="#B55B52"/>
<path d="M378.478 89.5296C378.955 88.1564 379.732 86.9067 380.752 85.871C377.651 84.8534 374.83 83.1267 372.512 80.8281L370.395 81.6521C370.395 81.6521 371.144 87.0328 378.478 89.5296Z" fill="white"/>
<path d="M384.131 88.6048C383.214 87.4613 382.062 86.5283 380.753 85.8691C382.788 85.2923 383.579 81.1641 383.579 81.1641L385.565 81.5761C385.565 81.5761 389.232 86.9568 384.131 88.6048Z" fill="white"/>
<path opacity="0.2" d="M381.436 73.7649C381.286 74.4386 381.179 75.1212 381.115 75.8084C379.228 75.4294 376.706 73.4188 376.443 71.4907C376.35 70.8523 376.328 70.2057 376.377 69.5625L381.436 73.7649Z" fill="black"/>
<path d="M383.793 51.7894C386.339 51.328 389.306 53.9978 387.913 59.4197C386.52 64.8416 379.904 52.4898 383.793 51.7894Z" fill="#8B94A8"/>
<path d="M371.128 60.0447C372.422 65.9857 372.875 69.5207 376.385 72.2316C377.516 73.124 378.87 73.6901 380.299 73.8689C381.728 74.0477 383.18 73.8323 384.496 73.246C385.811 72.6598 386.942 71.7249 387.765 70.5426C388.588 69.3603 389.072 67.9754 389.165 66.5378C389.627 61.0088 387.443 52.2249 381.189 50.544C379.845 50.1435 378.42 50.1035 377.056 50.4279C375.692 50.7524 374.438 51.4299 373.418 52.3925C372.399 53.3551 371.651 54.5688 371.249 55.912C370.847 57.2551 370.805 58.6804 371.128 60.0447Z" fill="#B55B52"/>
<path d="M373.518 66.4809C374.392 64.4209 375.166 58.6859 374.458 56.3045C377.301 56.2139 383.275 55.6865 385.763 52.9179C389.586 48.666 384.543 43.6396 378.199 47.6442C374.079 50.2234 365.188 49.7125 366.663 52.5882C362.328 57.3592 367.198 62.7482 373.518 66.4809Z" fill="#8B94A8"/>
<path d="M366.654 52.803C366.624 52.8027 366.595 52.796 366.568 52.7831C366.541 52.7703 366.517 52.7518 366.498 52.7288C365.97 52.0778 365.806 51.534 365.987 51.0808C366.424 49.9931 368.69 49.6965 371.302 49.3669C373.774 49.0538 376.509 48.6994 377.383 47.587C377.422 47.5511 377.474 47.5313 377.527 47.5312C377.58 47.5313 377.632 47.5511 377.671 47.587C377.691 47.6055 377.707 47.6279 377.717 47.6527C377.728 47.6775 377.734 47.7042 377.734 47.7312C377.734 47.7583 377.728 47.785 377.717 47.8098C377.707 47.8346 377.691 47.8569 377.671 47.8754C376.691 49.1197 373.963 49.4658 371.326 49.8036C369.044 50.1002 366.687 50.3969 366.382 51.2703C366.259 51.5834 366.382 52.0037 366.819 52.5228C366.857 52.5613 366.878 52.6131 366.878 52.667C366.878 52.7209 366.857 52.7727 366.819 52.8112C366.765 52.8274 366.707 52.8245 366.654 52.803Z" fill="#8B94A8"/>
<path d="M370.213 64.8398C370.923 65.9492 371.994 66.779 373.246 67.1882C374.836 67.6661 375.38 66.1994 374.737 64.6503C374.152 63.2495 372.62 61.3131 371.128 61.5191C369.637 61.7251 369.315 63.4472 370.213 64.8398Z" fill="#B55B52"/>
<path d="M379.632 60.639C379.706 61.1252 380.028 61.463 380.349 61.463C380.67 61.463 380.86 61.0016 380.786 60.5154C380.712 60.0292 380.39 59.6914 380.069 59.6914C379.748 59.6914 379.558 60.1528 379.632 60.639Z" fill="#8B94A8"/>
<path d="M385.162 59.9793C385.236 60.4654 385.557 60.8033 385.879 60.8033C386.2 60.8033 386.398 60.3336 386.315 59.8474C386.233 59.3613 385.92 59.0234 385.607 59.0234C385.293 59.0234 385.087 59.4931 385.162 59.9793Z" fill="#8B94A8"/>
<path d="M384.312 60.4336C385.13 61.8565 386.133 63.1644 387.295 64.3229C386.992 64.6008 386.63 64.8085 386.237 64.9309C385.844 65.0534 385.429 65.0878 385.021 65.0315L384.312 60.4336Z" fill="#A02724"/>
<path d="M383.225 66.5888C382.653 66.5965 382.086 66.488 381.558 66.2699C381.029 66.0517 380.551 65.7285 380.151 65.3198C380.139 65.3057 380.129 65.2894 380.123 65.2716C380.117 65.2538 380.114 65.2351 380.116 65.2163C380.117 65.1976 380.121 65.1792 380.13 65.1623C380.138 65.1455 380.149 65.1304 380.163 65.1179C380.178 65.1055 380.194 65.0959 380.212 65.0898C380.229 65.0837 380.248 65.0812 380.267 65.0823C380.286 65.0834 380.304 65.0883 380.321 65.0965C380.338 65.1047 380.353 65.1162 380.365 65.1303C380.809 65.563 381.345 65.89 381.933 66.0869C382.521 66.2838 383.145 66.3455 383.76 66.2674C383.779 66.2639 383.799 66.2644 383.818 66.2688C383.837 66.2732 383.854 66.2815 383.87 66.2931C383.885 66.3047 383.898 66.3194 383.908 66.3363C383.917 66.3531 383.923 66.3718 383.925 66.391C383.927 66.4094 383.926 66.4281 383.921 66.446C383.916 66.4639 383.907 66.4806 383.896 66.4951C383.884 66.5097 383.87 66.5218 383.854 66.5308C383.838 66.5398 383.82 66.5455 383.801 66.5476C383.61 66.573 383.418 66.5868 383.225 66.5888Z" fill="#8B94A8"/>
<path d="M377.827 59.0637C377.778 59.0603 377.73 59.0462 377.687 59.0225C377.654 59.0037 377.625 58.9785 377.602 58.9484C377.578 58.9183 377.561 58.8838 377.551 58.847C377.541 58.8103 377.539 58.7719 377.543 58.7341C377.548 58.6963 377.561 58.6599 377.58 58.6269C377.793 58.2254 378.101 57.8823 378.477 57.6279C378.854 57.3735 379.287 57.2158 379.739 57.1685C379.777 57.1662 379.815 57.1715 379.851 57.184C379.886 57.1965 379.919 57.2159 379.948 57.2411C379.976 57.2664 379.999 57.297 380.016 57.3312C380.032 57.3654 380.042 57.4025 380.044 57.4404C380.046 57.4783 380.041 57.5162 380.028 57.5521C380.016 57.5879 379.996 57.6209 379.971 57.6493C379.946 57.6776 379.915 57.7007 379.881 57.7171C379.847 57.7336 379.81 57.7432 379.772 57.7453C379.416 57.7874 379.076 57.9161 378.782 58.1201C378.487 58.3241 378.247 58.5971 378.083 58.9153C378.057 58.9608 378.02 58.9986 377.975 59.0247C377.93 59.0508 377.879 59.0643 377.827 59.0637Z" fill="#8B94A8"/>
<path d="M387.642 57.805C387.594 57.8052 387.547 57.7932 387.505 57.7701C387.463 57.7471 387.428 57.7137 387.403 57.6731C387.203 57.3615 386.934 57.0999 386.617 56.9085C386.299 56.7171 385.943 56.6009 385.574 56.569C385.497 56.569 385.424 56.5386 385.37 56.4845C385.316 56.4304 385.285 56.3571 385.285 56.2806C385.285 56.2041 385.316 56.1307 385.37 56.0767C385.424 56.0226 385.497 55.9922 385.574 55.9922C386.037 56.0246 386.487 56.1642 386.887 56.4002C387.288 56.6361 387.628 56.9619 387.881 57.3518C387.922 57.4167 387.936 57.495 387.921 57.5703C387.906 57.6456 387.862 57.712 387.798 57.7555C387.752 57.7868 387.698 57.804 387.642 57.805Z" fill="#8B94A8"/>
<path d="M369.398 91.2597L369.34 91.3503L369.2 91.5811L368.904 92.1002C368.698 92.471 368.5 92.85 368.302 93.2455C367.923 94.0695 367.552 94.8935 367.223 95.7175C366.565 97.4433 366.041 99.2175 365.657 101.024C364.892 104.755 364.667 108.576 364.99 112.371C365.034 113.169 365.142 113.962 365.311 114.744C365.499 115.533 365.761 116.303 366.094 117.043C366.858 118.733 367.794 120.34 368.887 121.838C371.293 125.092 373.985 128.126 376.929 130.902L377.045 131.018C377.503 131.463 377.786 132.058 377.843 132.695C377.9 133.331 377.727 133.967 377.355 134.487C376.983 135.006 376.437 135.375 375.816 135.526C375.195 135.678 374.541 135.601 373.971 135.311C371.904 134.254 369.926 133.034 368.055 131.66C366.152 130.285 364.358 128.765 362.691 127.112C360.922 125.353 359.372 123.385 358.076 121.253C357.365 120.093 356.772 118.865 356.305 117.586C355.85 116.294 355.516 114.961 355.308 113.607C354.881 111.221 354.66 108.803 354.648 106.38C354.61 103.927 354.795 101.475 355.2 99.0547C355.608 96.5982 356.251 94.1866 357.12 91.853C357.563 90.6637 358.072 89.5 358.645 88.3675C358.941 87.7907 359.246 87.2221 359.592 86.6535C359.765 86.3651 359.947 86.0767 360.136 85.7801L360.441 85.3351L360.853 84.7666C361.725 83.6811 362.986 82.9781 364.368 82.8065C365.75 82.6349 367.144 83.0082 368.256 83.8473C369.367 84.6863 370.108 85.9252 370.321 87.3013C370.534 88.6774 370.203 90.0824 369.398 91.2185V91.2597Z" fill="#8B94A8"/>
<path d="M378.676 130.966L382.079 130.785L378.132 137.377C378.132 137.377 372.628 136.677 373.188 133.867L373.955 133.043C375.208 131.777 376.896 131.034 378.676 130.966Z" fill="#B55B52"/>
<path d="M385.606 133.15L382.64 140.154L378.133 137.402L382.08 130.785L385.606 133.15Z" fill="#B55B52"/>
<g clip-path="url(#clip2_6167_25295)">
<rect x="87" y="119.895" width="201.474" height="160.264" rx="14.8816" fill="white"/>
<rect x="99.5923" y="133.633" width="6.86844" height="6.86844" fill="#E6EBF7"/>
<rect x="127.066" y="133.633" width="6.86844" height="6.86844" fill="#E6EBF7"/>
<rect x="113.329" y="133.633" width="6.86844" height="6.86844" fill="#E6EBF7"/>
<rect x="204.908" y="193.16" width="18.3158" height="18.3158" rx="9.15792" fill="#E6EBF7"/>
<rect x="152.25" y="193.16" width="18.3158" height="18.3158" rx="9.15792" fill="#E6EBF7"/>
<path d="M200.33 236.5C195.942 232.303 184.533 226.426 174.001 236.5" stroke="#E6EBF7" stroke-width="4.57896" stroke-linecap="round"/>
<path d="M209.488 293.899C280.004 238.951 257.567 140.504 237.534 98.1484L328.541 150.806L353.153 316.221C275.883 331.675 138.972 348.846 209.488 293.899Z" fill="#EFF3FB"/>
<line x1="87" y1="153.097" x2="288.474" y2="153.097" stroke="#E6EBF7" stroke-width="4.57896"/>
</g>
<rect x="89.2895" y="122.184" width="196.895" height="155.685" rx="12.5921" stroke="#B9C0D0" stroke-width="4.57896"/>
<path d="M242.947 130C242.947 108.461 260.408 91 281.947 91C303.486 91 320.947 108.461 320.947 130C320.947 151.539 303.486 169 281.947 169C260.408 169 242.947 151.539 242.947 130Z" fill="white"/>
<path fill-rule="evenodd" clip-rule="evenodd" d="M246.947 130C246.947 149.33 262.617 165 281.947 165C301.277 165 316.947 149.33 316.947 130C316.947 110.67 301.277 95 281.947 95C262.617 95 246.947 110.67 246.947 130ZM281.947 91C260.408 91 242.947 108.461 242.947 130C242.947 151.539 260.408 169 281.947 169C303.486 169 320.947 151.539 320.947 130C320.947 108.461 303.486 91 281.947 91Z" fill="#E6EBF7"/>
<path d="M277.047 134.264C276.715 134.264 276.382 134.141 276.12 133.879C275.612 133.371 275.612 132.531 276.12 132.024L286.025 122.119C286.532 121.611 287.372 121.611 287.88 122.119C288.387 122.626 288.387 123.466 287.88 123.974L277.975 133.879C277.73 134.141 277.38 134.264 277.047 134.264Z" fill="#8B94A8"/>
<path d="M282 146.812C271.623 146.812 263.188 138.378 263.188 128C263.188 117.623 271.623 109.188 282 109.188C292.378 109.188 300.812 117.623 300.812 128C300.812 138.378 292.378 146.812 282 146.812ZM282 111.812C273.075 111.812 265.812 119.075 265.812 128C265.812 136.925 273.075 144.188 282 144.188C290.925 144.188 298.188 136.925 298.188 128C298.188 119.075 290.925 111.812 282 111.812Z" fill="#8B94A8"/>
<path d="M286.952 134.264C286.62 134.264 286.287 134.141 286.025 133.879L276.12 123.974C275.612 123.466 275.612 122.626 276.12 122.119C276.627 121.611 277.467 121.611 277.975 122.119L287.88 132.024C288.387 132.531 288.387 133.371 287.88 133.879C287.617 134.141 287.285 134.264 286.952 134.264Z" fill="#8B94A8"/>
<defs>
<clipPath id="clip0_6167_25295">
<rect width="118" height="99" fill="white" transform="translate(0 76.0078) rotate(-20.5018)"/>
</clipPath>
<clipPath id="clip1_6167_25295">
<rect width="16.5714" height="16.5714" fill="white" transform="translate(379.179 125.031) rotate(-24.4124)"/>
</clipPath>
<clipPath id="clip2_6167_25295">
<rect x="87" y="119.895" width="201.474" height="160.264" rx="14.8816" fill="white"/>
</clipPath>
</defs>
</svg>
