<svg width="702" height="158" viewBox="0 0 702 158" fill="none" xmlns="http://www.w3.org/2000/svg">
<g opacity="0.2" clip-path="url(#clip0_6074_32088)">
<path fill-rule="evenodd" clip-rule="evenodd" d="M550.506 86.4007C549.991 86.5444 549.477 86.6881 548.962 86.8198C548.59 87.1551 548.207 87.5024 547.836 87.8377C548.351 87.6461 548.854 87.4425 549.357 87.2389C549.74 86.9755 550.123 86.6881 550.506 86.4007ZM556.135 81.898C555.248 82.1016 554.362 82.2812 553.476 82.4608C552.853 83.1075 552.219 83.7302 551.584 84.3529C552.446 84.0895 553.309 83.838 554.159 83.5506C554.829 83.0117 555.488 82.4608 556.135 81.898ZM561.056 80.6286C560.553 80.7723 560.038 80.916 559.535 81.0478C559.164 81.3831 558.793 81.7184 558.422 82.0537C558.925 81.8621 559.416 81.6705 559.919 81.4669C560.29 81.1915 560.673 80.916 561.056 80.6286ZM561.212 77.2397C560.074 77.4433 558.937 77.6349 557.787 77.8025C557.033 78.6647 556.266 79.503 555.5 80.3293C556.614 80.0778 557.703 79.8024 558.805 79.515C559.619 78.7725 560.422 78.0181 561.212 77.2397ZM566.684 76.126C565.81 76.3296 564.924 76.5092 564.038 76.6888C563.415 77.3235 562.781 77.9582 562.146 78.5809C562.996 78.3294 563.858 78.066 564.708 77.7905C565.367 77.2397 566.026 76.6888 566.684 76.126ZM571.594 74.8566C571.091 75.0003 570.576 75.144 570.073 75.2758C569.702 75.6111 569.331 75.9464 568.96 76.2817C569.462 76.0901 569.953 75.8985 570.456 75.6949C570.828 75.4195 571.211 75.144 571.594 74.8566ZM565.93 72.3418C564.625 72.5095 563.296 72.6532 561.978 72.7849C561.152 73.8268 560.326 74.8327 559.488 75.8266C560.769 75.6111 562.05 75.3716 563.319 75.1201C564.194 74.2219 565.068 73.2879 565.93 72.3418ZM571.762 71.4557C570.636 71.6593 569.498 71.8509 568.349 72.0185C567.594 72.8807 566.84 73.719 566.062 74.5453C567.163 74.2938 568.265 74.0184 569.355 73.731C570.169 73.0005 570.959 72.2341 571.762 71.4557ZM577.222 70.354C576.348 70.5575 575.462 70.7372 574.576 70.9168C573.953 71.5635 573.318 72.1862 572.684 72.8089C573.534 72.5574 574.396 72.294 575.246 72.0185C575.917 71.4677 576.576 70.9168 577.222 70.354ZM582.132 69.0846C581.629 69.2283 581.114 69.372 580.611 69.5037C580.24 69.839 579.869 70.1743 579.497 70.5097C580 70.318 580.491 70.1264 580.982 69.9229C581.378 69.6474 581.749 69.372 582.132 69.0846ZM570.337 67.2045C568.888 67.3123 567.427 67.4081 565.966 67.468C565.116 68.6655 564.242 69.839 563.379 70.9767C564.804 70.821 566.205 70.6534 567.606 70.4498C568.529 69.396 569.439 68.3182 570.337 67.2045ZM576.468 66.5698C575.163 66.7375 573.845 66.8812 572.516 67.0129C571.702 68.0547 570.864 69.0607 570.037 70.0546C571.319 69.839 572.588 69.6115 573.857 69.3481C574.731 68.4499 575.606 67.5159 576.468 66.5698ZM582.3 65.6837C581.174 65.8872 580.036 66.0788 578.887 66.2465C578.132 67.1087 577.366 67.947 576.6 68.7733C577.701 68.5218 578.803 68.2464 579.893 67.9589C580.707 67.2285 581.509 66.4621 582.3 65.6837ZM587.76 64.582C586.886 64.7855 586 64.9652 585.114 65.1448C584.491 65.7795 583.856 66.4142 583.222 67.0369C584.072 66.7854 584.934 66.5219 585.784 66.2465C586.455 65.6837 587.113 65.1328 587.76 64.582ZM592.67 63.3126C592.167 63.4563 591.652 63.6 591.149 63.7317C590.778 64.067 590.406 64.4023 590.035 64.7376C590.538 64.546 591.029 64.3544 591.52 64.1509C591.915 63.8754 592.298 63.6 592.67 63.3126ZM574.504 61.7917C572.935 61.8396 571.367 61.8636 569.786 61.8636C568.924 63.1928 568.061 64.4862 567.175 65.7555C568.708 65.6717 570.241 65.5519 571.762 65.4202C572.684 64.2347 573.594 63.0252 574.504 61.7917ZM580.875 61.4325C579.426 61.5403 577.977 61.6361 576.504 61.6959C575.653 62.8935 574.791 64.0551 573.917 65.2047C575.342 65.049 576.743 64.8813 578.144 64.6778C579.066 63.6239 579.976 62.5462 580.875 61.4325ZM587.006 60.7978C585.7 60.9655 584.383 61.1092 583.054 61.2409C582.24 62.2827 581.413 63.2886 580.575 64.2826C581.856 64.067 583.126 63.8395 584.395 63.576C585.281 62.6779 586.143 61.7439 587.006 60.7978ZM592.837 59.9117C591.712 60.1152 590.574 60.3068 589.425 60.4745C588.67 61.3367 587.904 62.1749 587.137 63.0012C588.239 62.7498 589.341 62.4743 590.43 62.1869C591.245 61.4564 592.047 60.69 592.837 59.9117ZM598.298 58.8099C597.424 59.0135 596.538 59.1931 595.651 59.3728C595.029 60.0075 594.394 60.6421 593.759 61.2648C594.622 61.0134 595.472 60.7499 596.322 60.4745C596.993 59.9117 597.651 59.3608 598.298 58.8099ZM603.208 57.5406C602.705 57.6843 602.19 57.828 601.687 57.9597C601.316 58.295 600.944 58.6303 600.573 58.9656C601.076 58.774 601.567 58.5824 602.058 58.3788C602.453 58.1034 602.824 57.828 603.208 57.5406ZM578.468 56.0557C576.803 56.0317 575.139 55.9838 573.45 55.912C572.588 57.3729 571.726 58.798 570.84 60.1991C572.48 60.1871 574.109 60.1512 575.725 60.0793C576.647 58.774 577.558 57.4328 578.468 56.0557ZM585.042 56.0078C583.473 56.0557 581.904 56.0796 580.324 56.0796C579.462 57.4088 578.599 58.7022 577.713 59.9715C579.246 59.8877 580.779 59.768 582.3 59.6362C583.222 58.4627 584.144 57.2532 585.042 56.0078ZM591.412 55.6605C589.963 55.7683 588.514 55.8641 587.042 55.9239C586.191 57.1214 585.329 58.283 584.455 59.4326C585.88 59.277 587.281 59.1093 588.682 58.9057C589.616 57.8519 590.514 56.7622 591.412 55.6605ZM597.555 55.0258C596.25 55.1934 594.933 55.3372 593.604 55.4689C592.789 56.5107 591.963 57.5166 591.125 58.5106C592.406 58.295 593.676 58.0675 594.945 57.804C595.819 56.9059 596.693 55.9718 597.555 55.0258ZM603.387 54.1396C602.262 54.3432 601.124 54.5348 599.974 54.7025C599.22 55.5647 598.454 56.4029 597.687 57.2292C598.789 56.9777 599.891 56.7023 600.98 56.4149C601.783 55.6844 602.585 54.918 603.387 54.1396ZM608.836 53.0379C607.962 53.2415 607.075 53.4211 606.189 53.6008C605.567 54.2354 604.932 54.8701 604.297 55.4928C605.147 55.2413 606.01 54.9779 606.86 54.7025C607.53 54.1396 608.189 53.5888 608.836 53.0379ZM613.745 51.7686C613.242 51.9123 612.728 52.044 612.225 52.1877C611.853 52.523 611.482 52.8583 611.111 53.1936C611.614 53.002 612.105 52.8104 612.596 52.6068C612.991 52.3314 613.362 52.056 613.745 51.7686ZM582.216 50.0561C580.563 49.9603 578.899 49.8525 577.234 49.7088C576.264 51.2177 575.318 52.7505 574.396 54.3193C576.121 54.3911 577.833 54.427 579.533 54.439C580.431 53.002 581.33 51.553 582.216 50.0561ZM589.005 50.2836C587.341 50.2597 585.676 50.2118 583.988 50.1399C583.126 51.6009 582.264 53.0259 581.377 54.427C583.018 54.4151 584.647 54.3791 586.263 54.3073C587.185 53.002 588.107 51.6608 589.005 50.2836ZM595.58 50.2357C594.011 50.2836 592.442 50.3076 590.862 50.3076C589.999 51.6368 589.137 52.9301 588.251 54.1995C589.784 54.1157 591.317 53.9959 592.837 53.8642C593.771 52.6906 594.682 51.4812 595.58 50.2357ZM601.962 49.8885C600.513 49.9962 599.052 50.092 597.591 50.1519C596.741 51.3494 595.879 52.511 595.005 53.6606C596.43 53.505 597.831 53.3373 599.232 53.1337C600.154 52.0799 601.052 50.9902 601.962 49.8885ZM608.093 49.2538C606.788 49.4214 605.471 49.5651 604.142 49.6969C603.327 50.7387 602.501 51.7446 601.663 52.7385C602.944 52.523 604.213 52.2955 605.483 52.032C606.357 51.1339 607.231 50.1998 608.093 49.2538ZM613.925 48.3676C612.799 48.5712 611.662 48.7628 610.512 48.9305C609.758 49.7927 608.991 50.6309 608.225 51.4572C609.327 51.2057 610.428 50.9303 611.518 50.6429C612.32 49.9124 613.123 49.146 613.925 48.3676ZM619.386 47.2539C618.511 47.4575 617.625 47.6371 616.739 47.8168C616.116 48.4514 615.482 49.0861 614.847 49.7088C615.697 49.4574 616.559 49.1939 617.398 48.9185C618.068 48.3676 618.727 47.8168 619.386 47.2539ZM624.295 45.9965C623.792 46.1402 623.277 46.2839 622.774 46.4157C622.403 46.751 622.032 47.0863 621.661 47.4216C622.164 47.23 622.655 47.0384 623.146 46.8348C623.529 46.5594 623.912 46.272 624.295 45.9965ZM586 43.7692C584.527 43.6255 583.054 43.4818 581.569 43.3021C580.431 44.8829 579.33 46.4995 578.24 48.1401C579.881 48.2598 581.521 48.3796 583.15 48.4634C584.084 46.8587 585.03 45.302 586 43.7692ZM592.754 44.2841C591.101 44.1883 589.437 44.0805 587.772 43.9368C586.802 45.4457 585.856 46.9785 584.934 48.5472C586.658 48.6191 588.371 48.655 590.071 48.667C590.969 47.23 591.867 45.769 592.754 44.2841ZM599.543 44.5116C597.879 44.4877 596.214 44.4398 594.526 44.3679C593.664 45.8289 592.801 47.2539 591.927 48.655C593.568 48.643 595.196 48.6071 596.813 48.5353C597.735 47.23 598.645 45.8888 599.543 44.5116ZM606.117 44.4637C604.549 44.5116 602.98 44.5356 601.399 44.5356C600.537 45.8648 599.675 47.1581 598.789 48.4275C600.322 48.3437 601.854 48.2239 603.375 48.0922C604.309 46.9186 605.219 45.7091 606.117 44.4637ZM612.5 44.1164C611.051 44.2242 609.602 44.32 608.129 44.3799C607.279 45.5774 606.417 46.739 605.543 47.8886C606.968 47.7329 608.369 47.5653 609.77 47.3617C610.692 46.3079 611.602 45.2182 612.5 44.1164ZM618.631 43.4818C617.326 43.6494 616.009 43.7931 614.679 43.9248C613.853 44.9667 613.027 45.9726 612.201 46.9665C613.482 46.751 614.751 46.5234 616.021 46.26C616.895 45.3619 617.769 44.4278 618.631 43.4818ZM624.463 42.5956C623.337 42.7992 622.2 42.9908 621.05 43.1584C620.296 44.0206 619.541 44.8589 618.763 45.6852C619.865 45.4337 620.966 45.1583 622.056 44.8709C622.858 44.1284 623.661 43.374 624.463 42.5956ZM629.923 41.4819C629.049 41.6855 628.163 41.8651 627.277 42.0447C626.654 42.6794 626.02 43.3141 625.385 43.9368C626.247 43.6853 627.097 43.4219 627.948 43.1465C628.606 42.5956 629.265 42.0447 629.923 41.4819ZM634.833 40.2245C634.33 40.3682 633.815 40.5119 633.312 40.6437C632.941 40.979 632.57 41.3143 632.199 41.6496C632.702 41.458 633.193 41.2664 633.683 41.0628C634.067 40.7874 634.45 40.5 634.833 40.2245ZM590.347 37.3026C589.077 37.1349 587.808 36.9673 586.527 36.7877C585.209 38.4163 583.928 40.0928 582.683 41.7933C584.132 41.9609 585.569 42.1046 587.006 42.2363C588.083 40.5479 589.197 38.9073 590.347 37.3026ZM596.538 37.9971C595.065 37.8534 593.592 37.7097 592.107 37.5301C590.969 39.1108 589.868 40.7275 588.778 42.3681C590.418 42.4998 592.059 42.6076 593.688 42.6794C594.622 41.0867 595.568 39.53 596.538 37.9971ZM603.291 38.5121C601.639 38.4163 599.974 38.3085 598.31 38.1648C597.34 39.6737 596.394 41.2065 595.472 42.7633C597.196 42.8351 598.909 42.871 600.609 42.883C601.507 41.458 602.405 39.997 603.291 38.5121ZM610.081 38.7396C608.417 38.7157 606.752 38.6678 605.064 38.5959C604.201 40.0569 603.339 41.4819 602.453 42.883C604.094 42.871 605.722 42.8351 607.339 42.7633C608.273 41.458 609.183 40.1167 610.081 38.7396ZM616.667 38.6917C615.099 38.7396 613.53 38.7636 611.949 38.7636C611.087 40.0928 610.225 41.3861 609.339 42.6555C610.871 42.5717 612.404 42.4519 613.925 42.3202C614.847 41.1466 615.757 39.9371 616.667 38.6917ZM623.038 38.3444C621.589 38.4522 620.14 38.548 618.667 38.6079C617.817 39.8054 616.955 40.979 616.08 42.1166C617.505 41.9609 618.907 41.7933 620.308 41.5897C621.23 40.5359 622.14 39.4461 623.038 38.3444ZM629.169 37.7097C627.864 37.8774 626.547 38.0211 625.217 38.1528C624.403 39.1947 623.565 40.2006 622.738 41.1945C624.02 40.979 625.289 40.7514 626.558 40.488C627.433 39.5898 628.307 38.6558 629.169 37.7097ZM635.001 36.8236C633.875 37.0272 632.737 37.2188 631.588 37.3864C630.833 38.2486 630.067 39.0869 629.301 39.9132C630.402 39.6617 631.504 39.3863 632.594 39.0989C633.408 38.3564 634.21 37.602 635.001 36.8236ZM640.461 35.7099C639.587 35.9135 638.701 36.0931 637.815 36.2727C637.192 36.9074 636.557 37.5421 635.923 38.1648C636.773 37.9133 637.635 37.6499 638.485 37.3744C639.144 36.8236 639.803 36.2727 640.461 35.7099ZM645.371 34.4525C644.868 34.5962 644.353 34.7399 643.85 34.8716C643.479 35.2069 643.108 35.5422 642.736 35.8775C643.239 35.6859 643.73 35.4943 644.221 35.2908C644.605 35.0153 644.988 34.7279 645.371 34.4525ZM595.28 30.7282C594.226 30.5606 593.173 30.3929 592.107 30.2133C590.61 31.8778 589.149 33.5663 587.724 35.3027C588.97 35.4824 590.203 35.638 591.436 35.7817C592.682 34.0693 593.963 32.3808 595.28 30.7282ZM600.884 31.5306C599.615 31.3629 598.346 31.1953 597.064 31.0156C595.747 32.6443 594.466 34.3088 593.209 36.0212C594.658 36.1889 596.095 36.3326 597.531 36.4643C598.621 34.7758 599.735 33.1352 600.884 31.5306ZM607.087 32.2251C605.615 32.0814 604.142 31.9377 602.657 31.7581C601.519 33.3388 600.417 34.9555 599.328 36.5961C600.968 36.7278 602.609 36.8356 604.237 36.9074C605.159 35.3147 606.105 33.7579 607.087 32.2251ZM613.829 32.7401C612.177 32.6443 610.512 32.5365 608.848 32.3928C607.878 33.9016 606.932 35.4345 606.01 37.0032C607.734 37.0751 609.446 37.111 611.147 37.123C612.045 35.6859 612.943 34.225 613.829 32.7401ZM620.619 32.9676C618.954 32.9436 617.29 32.8957 615.602 32.8239C614.739 34.2849 613.877 35.7099 613.003 37.111C614.644 37.099 616.272 37.0631 617.889 36.9912C618.811 35.674 619.721 34.3447 620.619 32.9676ZM627.205 32.9197C625.636 32.9676 624.068 32.9915 622.487 32.9915C621.625 34.3208 620.763 35.6141 619.877 36.8835C621.409 36.7996 622.942 36.6799 624.463 36.5482C625.385 35.3746 626.295 34.1651 627.205 32.9197ZM633.576 32.5724C632.127 32.6802 630.678 32.776 629.205 32.8359C628.355 34.0334 627.492 35.195 626.618 36.3446C628.043 36.1889 629.444 36.0212 630.845 35.8177C631.768 34.7639 632.678 33.6741 633.576 32.5724ZM639.707 31.9377C638.402 32.1054 637.084 32.2491 635.755 32.3808C634.941 33.4226 634.115 34.4286 633.276 35.4225C634.558 35.2069 635.827 34.9794 637.096 34.716C637.982 33.8058 638.845 32.8838 639.707 31.9377ZM645.539 31.0516C644.401 31.2551 643.275 31.4467 642.126 31.6144C641.371 32.4766 640.605 33.3149 639.839 34.1412C640.94 33.8897 642.042 33.6142 643.132 33.3268C643.946 32.5844 644.748 31.8299 645.539 31.0516ZM650.999 29.9379C650.125 30.1415 649.239 30.3211 648.353 30.5007C647.73 31.1354 647.095 31.7701 646.461 32.3928C647.311 32.1413 648.173 31.8778 649.011 31.6024C649.682 31.0516 650.34 30.5007 650.999 29.9379ZM655.909 28.6685C655.406 28.8122 654.891 28.9559 654.388 29.0876C654.017 29.4229 653.646 29.7582 653.274 30.0936C653.777 29.9019 654.268 29.7103 654.759 29.5068C655.154 29.2433 655.526 28.9559 655.909 28.6685ZM600.837 24.1299C600.01 23.9862 599.184 23.8425 598.358 23.6869C596.681 25.3514 595.029 27.0519 593.412 28.8002C594.43 28.9679 595.448 29.1236 596.454 29.2792C597.879 27.5189 599.34 25.7945 600.837 24.1299ZM605.818 24.9562C604.764 24.7886 603.711 24.6209 602.657 24.4413C601.16 26.1058 599.699 27.7943 598.262 29.5307C599.507 29.7103 600.741 29.866 601.962 30.0097C603.22 28.2973 604.501 26.6088 605.818 24.9562ZM611.422 25.7586C610.153 25.5909 608.884 25.4232 607.602 25.2436C606.285 26.8722 605.004 28.5488 603.746 30.2492C605.195 30.4169 606.632 30.5606 608.057 30.6923C609.159 29.0038 610.285 27.3632 611.422 25.7586ZM617.625 26.4531C616.152 26.3094 614.679 26.1657 613.195 25.9861C612.057 27.5668 610.955 29.1834 609.866 30.824C611.506 30.9558 613.147 31.0635 614.775 31.1474C615.697 29.5427 616.643 27.9859 617.625 26.4531ZM624.367 26.968C622.715 26.8722 621.05 26.7645 619.386 26.6208C618.416 28.1296 617.47 29.6624 616.548 31.2312C618.272 31.303 619.984 31.339 621.685 31.3509C622.583 29.9139 623.481 28.453 624.367 26.968ZM631.169 27.1956C629.504 27.1716 627.84 27.1237 626.151 27.0519C625.289 28.5128 624.427 29.9379 623.541 31.339C625.181 31.327 626.81 31.2911 628.427 31.2192C629.349 29.902 630.259 28.5607 631.169 27.1956ZM637.743 27.1477C636.174 27.1956 634.606 27.2195 633.025 27.2195C632.163 28.5488 631.301 29.8421 630.414 31.1114C631.947 31.0276 633.48 30.9079 635.001 30.7761C635.923 29.6026 636.833 28.3931 637.743 27.1477ZM644.114 26.8004C642.665 26.9082 641.216 27.004 639.743 27.0638C638.893 28.2614 638.03 29.4229 637.156 30.5726C638.581 30.4169 639.982 30.2492 641.383 30.0457C642.305 28.9799 643.215 27.9021 644.114 26.8004ZM650.245 26.1657C648.939 26.3334 647.622 26.4771 646.293 26.6088C645.479 27.6506 644.64 28.6565 643.814 29.6505C645.095 29.4349 646.365 29.2074 647.634 28.9439C648.508 28.0338 649.383 27.1117 650.245 26.1657ZM656.076 25.2795C654.951 25.4831 653.813 25.6747 652.664 25.8424C651.909 26.7046 651.155 27.5428 650.376 28.3691C651.478 28.1177 652.58 27.8422 653.669 27.5548C654.484 26.8124 655.286 26.0579 656.076 25.2795ZM661.537 24.1659C660.663 24.3694 659.777 24.5491 658.89 24.7287C658.268 25.3634 657.633 25.9981 656.998 26.6208C657.861 26.3693 658.711 26.1058 659.561 25.8304C660.232 25.2795 660.89 24.7287 661.537 24.1659ZM666.447 22.9085C665.944 23.0522 665.429 23.1959 664.926 23.3276C664.555 23.6629 664.183 23.9982 663.812 24.3335C664.315 24.1419 664.806 23.9503 665.297 23.7467C665.68 23.4593 666.063 23.1839 666.447 22.9085ZM607.051 17.5436L605.315 17.1963C603.435 18.8489 601.591 20.5494 599.771 22.2977C600.549 22.4414 601.328 22.5851 602.106 22.7169C603.723 20.9445 605.375 19.2201 607.051 17.5436ZM611.374 18.3459C610.548 18.2022 609.734 18.0585 608.896 17.9029C607.219 19.5674 605.567 21.2679 603.95 23.0162C604.968 23.1839 605.974 23.3396 606.992 23.4833C608.417 21.7469 609.89 20.0225 611.374 18.3459ZM616.356 19.1842C615.302 19.0165 614.248 18.8489 613.195 18.6693C611.698 20.3338 610.237 22.0223 608.8 23.7587C610.045 23.9383 611.267 24.094 612.5 24.2377C613.757 22.5253 615.039 20.8368 616.356 19.1842ZM621.96 19.9746C620.691 19.8069 619.421 19.6393 618.14 19.4596C616.823 21.0882 615.542 22.7648 614.284 24.4652C615.733 24.6329 617.17 24.7766 618.607 24.9083C619.697 23.2318 620.823 21.5912 621.96 19.9746ZM628.163 20.6811C626.69 20.5374 625.217 20.3937 623.732 20.2141C622.595 21.7948 621.493 23.4114 620.403 25.052C622.044 25.1837 623.685 25.2915 625.313 25.3753C626.235 23.7707 627.181 22.2139 628.163 20.6811ZM634.905 21.196C633.252 21.1002 631.588 20.9924 629.923 20.8487C628.953 22.3576 628.007 23.8904 627.085 25.4592C628.81 25.531 630.522 25.5669 632.223 25.5789C633.133 24.1419 634.019 22.6809 634.905 21.196ZM641.707 21.4235C640.042 21.3996 638.378 21.3517 636.689 21.2798C635.827 22.7408 634.965 24.1659 634.091 25.5669C635.731 25.555 637.36 25.519 638.976 25.4472C639.886 24.1299 640.797 22.7887 641.707 21.4235ZM648.281 21.3756C646.712 21.4235 645.143 21.4475 643.563 21.4475C642.701 22.7767 641.838 24.0701 640.952 25.3394C642.485 25.2556 644.018 25.1358 645.539 25.0041C646.461 23.8186 647.383 22.6091 648.281 21.3756ZM654.651 21.0164C653.202 21.1242 651.753 21.22 650.281 21.2798C649.43 22.4774 648.568 23.6509 647.694 24.7886C649.119 24.6329 650.52 24.4652 651.921 24.2617C652.843 23.2078 653.753 22.1301 654.651 21.0164ZM660.783 20.3817C659.477 20.5494 658.16 20.6931 656.831 20.8248C656.017 21.8666 655.178 22.8725 654.352 23.8665C655.633 23.6509 656.903 23.4234 658.172 23.1599C659.058 22.2618 659.92 21.3397 660.783 20.3817ZM666.614 19.5075C665.489 19.7111 664.351 19.9027 663.201 20.0704C662.447 20.9326 661.681 21.7708 660.914 22.5971C662.016 22.3456 663.118 22.0702 664.207 21.7828C665.022 21.0403 665.824 20.2859 666.614 19.5075ZM672.075 18.3938C671.201 18.5974 670.314 18.777 669.428 18.9567C668.806 19.5914 668.171 20.226 667.536 20.8487C668.387 20.5973 669.249 20.3338 670.099 20.0584C670.77 19.5075 671.428 18.9567 672.075 18.3938ZM676.984 17.1245C676.482 17.2682 675.967 17.4119 675.464 17.5436C675.092 17.8789 674.721 18.2142 674.35 18.5495C674.853 18.3579 675.344 18.1663 675.835 17.9627C676.218 17.6873 676.601 17.4119 676.984 17.1245ZM613.961 11.0291C613.65 10.9573 613.338 10.8974 613.027 10.8256C610.931 12.4542 608.884 14.1307 606.86 15.8551C607.387 15.9629 607.914 16.0707 608.441 16.1784C610.249 14.4061 612.093 12.6937 613.961 11.0291ZM617.601 11.7596L615.877 11.4123C613.997 13.0649 612.141 14.7654 610.333 16.5137C611.111 16.6574 611.889 16.8011 612.656 16.9329C614.272 15.1725 615.913 13.4481 617.601 11.7596ZM621.912 12.5739C621.086 12.4302 620.272 12.2865 619.445 12.1308C617.769 13.7954 616.116 15.4959 614.5 17.2442C615.518 17.4119 616.524 17.5676 617.541 17.7113C618.966 15.9629 620.427 14.2504 621.912 12.5739ZM626.894 13.4122C625.84 13.2445 624.786 13.0769 623.732 12.8972C622.236 14.5618 620.775 16.2503 619.338 17.9867C620.583 18.1663 621.816 18.322 623.038 18.4657C624.295 16.7532 625.577 15.0648 626.894 13.4122ZM632.498 14.2025C631.229 14.0349 629.959 13.8672 628.678 13.6876C627.361 15.3162 626.079 16.9927 624.834 18.6932C626.283 18.8609 627.72 19.0046 629.157 19.1363C630.235 17.4598 631.36 15.8192 632.498 14.2025ZM638.701 14.8971C637.228 14.7534 635.755 14.6097 634.27 14.4301C633.133 16.0108 632.031 17.6274 630.941 19.268C632.582 19.3997 634.222 19.5075 635.851 19.5914C636.773 17.9987 637.731 16.4419 638.701 14.8971ZM645.443 15.424C643.79 15.3282 642.126 15.2204 640.461 15.0767C639.491 16.5856 638.545 18.1184 637.623 19.6872C639.348 19.759 641.06 19.7949 642.76 19.8069C643.671 18.3699 644.569 16.9089 645.443 15.424ZM652.244 15.6515C650.58 15.6276 648.915 15.5797 647.227 15.5078C646.365 16.9688 645.503 18.3938 644.617 19.7949C646.257 19.783 647.886 19.747 649.502 19.6752C650.424 18.3579 651.346 17.0167 652.244 15.6515ZM658.819 15.6036C657.262 15.6515 655.681 15.6755 654.101 15.6755C653.238 17.0047 652.376 18.298 651.49 19.5674C653.023 19.4836 654.556 19.3638 656.076 19.2321C656.998 18.0466 657.921 16.8371 658.819 15.6036ZM665.189 15.2444C663.74 15.3522 662.291 15.448 660.818 15.5078C659.968 16.7053 659.106 17.8669 658.232 19.0165C659.657 18.8609 661.058 18.6932 662.459 18.4896C663.381 17.4358 664.291 16.3581 665.189 15.2444ZM671.332 14.6097C670.027 14.7773 668.71 14.921 667.381 15.0528C666.566 16.0946 665.74 17.1005 664.902 18.0945C666.183 17.8789 667.452 17.6514 668.722 17.3879C669.596 16.4898 670.47 15.5677 671.332 14.6097ZM677.164 13.7355C676.026 13.9391 674.901 14.1307 673.751 14.2983C672.997 15.1606 672.23 15.9988 671.464 16.8251C672.566 16.5736 673.667 16.2982 674.757 16.0108C675.559 15.2683 676.362 14.5139 677.164 13.7355ZM682.613 12.6218C681.738 12.8254 680.852 13.005 679.966 13.1847C679.343 13.8193 678.709 14.454 678.074 15.0767C678.924 14.8252 679.787 14.5618 680.625 14.2864C681.307 13.7355 681.966 13.1847 682.613 12.6218ZM687.534 11.3525C687.031 11.4962 686.516 11.6399 686.013 11.7716C685.642 12.1069 685.271 12.4422 684.9 12.7775C685.403 12.5859 685.894 12.3943 686.385 12.1907C686.768 11.9153 687.151 11.6399 687.534 11.3525ZM621.625 4.61045L621.553 4.59848C619.242 6.19117 616.955 7.83177 614.715 9.53224L615.494 9.68791C617.494 7.95152 619.541 6.25105 621.625 4.61045ZM624.499 5.25711C624.199 5.19724 623.888 5.12538 623.589 5.05353C621.493 6.68215 619.445 8.35867 617.422 10.0831C617.937 10.1909 618.464 10.2986 618.978 10.3944C620.787 8.6341 622.631 6.92166 624.499 5.25711ZM628.139 5.98759L626.415 5.64032C624.535 7.29288 622.679 8.99335 620.87 10.7417C621.649 10.8854 622.427 11.0291 623.194 11.1609C624.81 9.38853 626.451 7.67609 628.139 5.98759ZM632.45 6.8019C631.624 6.6582 630.798 6.5145 629.971 6.35882C628.295 8.02337 626.642 9.72384 625.026 11.4722C626.044 11.6399 627.061 11.7955 628.067 11.9512C629.504 10.1909 630.965 8.47842 632.45 6.8019ZM637.432 7.64016C636.378 7.47251 635.324 7.30486 634.27 7.12523C632.773 8.78978 631.312 10.4783 629.875 12.2147C631.121 12.3943 632.354 12.55 633.576 12.6937C634.833 10.9812 636.114 9.29273 637.432 7.64016ZM643.036 8.43052C641.766 8.26287 640.497 8.09522 639.216 7.91559C637.899 9.54421 636.617 11.2207 635.372 12.9212C636.821 13.0889 638.258 13.2326 639.695 13.3643C640.785 11.6878 641.898 10.0472 643.036 8.43052ZM649.239 9.12508C647.766 8.98138 646.293 8.83768 644.808 8.65805C643.671 10.2388 642.569 11.8554 641.479 13.496C643.12 13.6277 644.76 13.7355 646.389 13.8193C647.311 12.2266 648.269 10.6699 649.239 9.12508ZM655.993 9.65199C654.34 9.55619 652.676 9.44841 651.011 9.30471C650.041 10.8136 649.095 12.3464 648.173 13.9151C649.897 13.987 651.61 14.0229 653.31 14.0349C654.208 12.5979 655.106 11.1369 655.993 9.65199ZM662.782 9.87951C661.118 9.85556 659.453 9.80766 657.765 9.73581C656.903 11.1968 656.04 12.6218 655.166 14.0229C656.807 14.0109 658.435 13.975 660.052 13.9032C660.974 12.5859 661.884 11.2447 662.782 9.87951ZM669.357 9.83161C667.788 9.87951 666.219 9.90346 664.638 9.90346C663.776 11.2327 662.914 12.526 662.028 13.7954C663.561 13.7116 665.093 13.5918 666.614 13.4601C667.548 12.2745 668.458 11.0651 669.357 9.83161ZM675.739 9.47236C674.29 9.58014 672.829 9.67594 671.368 9.73581C670.518 10.9333 669.656 12.0949 668.782 13.2445C670.207 13.0889 671.608 12.9212 673.009 12.7176C673.931 11.6638 674.841 10.586 675.739 9.47236ZM681.87 8.83768C680.565 9.00533 679.248 9.14903 677.919 9.28076C677.104 10.3226 676.266 11.3285 675.44 12.3224C676.721 12.1069 677.99 11.8794 679.26 11.6159C680.134 10.7178 681.008 9.79569 681.87 8.83768ZM687.702 7.96349C686.576 8.16707 685.439 8.35867 684.289 8.52632C683.535 9.38853 682.78 10.2268 682.002 11.0531C683.104 10.8016 684.205 10.5262 685.295 10.2388C686.097 9.49631 686.9 8.74188 687.702 7.96349ZM693.162 6.8498C692.288 7.05338 691.402 7.23301 690.516 7.41264C689.893 8.05929 689.259 8.682 688.624 9.30471C689.474 9.05323 690.336 8.78978 691.187 8.51435C691.845 7.96349 692.504 7.41264 693.162 6.8498ZM698.06 5.58044C697.557 5.72414 697.042 5.86784 696.539 5.99957C696.168 6.33487 695.797 6.67018 695.426 7.00548C695.929 6.81388 696.42 6.62228 696.911 6.4187C697.306 6.14327 697.689 5.86784 698.06 5.58044ZM642.988 1.02989C642.162 0.886185 641.347 0.742483 640.521 0.586806C638.845 2.25135 637.192 3.95182 635.576 5.70019C636.593 5.86784 637.599 6.02352 638.617 6.16722C640.03 4.41885 641.491 2.70641 642.988 1.02989ZM647.969 1.86815C646.916 1.70049 645.862 1.53284 644.808 1.35322C643.311 3.01776 641.85 4.70625 640.413 6.44265C641.659 6.62228 642.88 6.77795 644.114 6.92166C645.371 5.20921 646.652 3.52072 647.969 1.86815ZM653.574 2.65851C652.304 2.49085 651.035 2.3232 649.754 2.14357C648.436 3.77219 647.155 5.44871 645.91 7.14918C647.359 7.31684 648.796 7.46054 650.221 7.59226C651.322 5.91574 652.436 4.27515 653.574 2.65851ZM659.777 3.35306C658.304 3.20936 656.831 3.06566 655.346 2.88603C654.208 4.46675 653.107 6.0834 652.017 7.72399C653.658 7.85572 655.298 7.96349 656.927 8.03534C657.849 6.45462 658.807 4.88588 659.777 3.35306ZM666.53 3.86799C664.878 3.77219 663.213 3.66442 661.549 3.52072C660.579 5.02958 659.633 6.5624 658.711 8.13114C660.435 8.203 662.148 8.23892 663.848 8.2509C664.746 6.82585 665.644 5.36489 666.53 3.86799ZM673.32 4.1075C671.656 4.08355 669.991 4.03565 668.303 3.9638C667.441 5.42476 666.578 6.8498 665.692 8.2509C667.333 8.23892 668.961 8.203 670.578 8.13114C671.512 6.81388 672.422 5.47266 673.32 4.1075ZM679.894 4.0596C678.326 4.1075 676.757 4.13145 675.176 4.13145C674.314 5.46069 673.452 6.754 672.566 8.02337C674.099 7.93954 675.631 7.81979 677.152 7.68806C678.086 6.50252 678.996 5.29304 679.894 4.0596ZM686.277 3.70034C684.828 3.80812 683.379 3.90392 681.906 3.9638C681.056 5.16131 680.194 6.33487 679.32 7.47251C680.745 7.31684 682.146 7.14918 683.547 6.94561C684.469 5.89179 685.379 4.81403 686.277 3.70034ZM692.408 3.06566C691.103 3.23331 689.786 3.37701 688.456 3.50874C687.642 4.55058 686.804 5.55649 685.978 6.55043C687.259 6.33487 688.528 6.10735 689.797 5.84389C690.672 4.94576 691.546 4.02367 692.408 3.06566ZM698.24 2.19148C697.114 2.39505 695.977 2.58665 694.827 2.75431C694.073 3.61652 693.306 4.45478 692.54 5.28106C693.641 5.02958 694.743 4.75416 695.833 4.46675C696.647 3.72429 697.449 2.95788 698.24 2.19148ZM702 6.25105C698.922 8.13114 695.773 9.83161 692.552 11.3405C689.127 13.496 685.606 15.424 682.014 17.1125C678.589 19.28 675.068 21.196 671.476 22.8845C668.051 25.04 664.543 26.968 660.938 28.6565C657.513 30.8121 653.993 32.7401 650.4 34.4286C646.976 36.5961 643.455 38.5121 639.862 40.2006C636.438 42.3561 632.929 44.2841 629.325 45.9726C625.9 48.1281 622.379 50.0561 618.787 51.7446C615.362 53.9121 611.841 55.8281 608.249 57.5166C604.824 59.6721 601.316 61.6001 597.711 63.2886C594.286 65.4442 590.766 67.3722 587.173 69.0607C583.748 71.2282 580.228 73.1442 576.635 74.8327C573.211 76.9882 569.702 78.9162 566.098 80.6047C562.673 82.7722 559.152 84.6882 555.548 86.3767C552.111 88.5442 548.602 90.4602 544.998 92.1607C541.537 94.3402 537.993 96.2802 534.364 97.9806C466.263 140.804 363.508 88.9154 254.824 33.9974C232.084 22.5133 209.08 10.8854 186.101 -0.0119506H189.765C211.775 10.4902 233.784 21.6032 255.543 32.5964C357.604 84.1613 454.396 133.044 521.719 102.878C454.588 123.823 362.334 77.2157 265.362 28.2254C246.585 18.7531 227.641 9.18496 208.661 2.44994e-05H212.266C230.276 8.75385 248.25 17.843 266.068 26.8363C368.13 78.4013 464.934 127.296 532.245 97.1184C465.114 118.063 372.86 71.4677 275.888 22.4654C261.027 14.957 246.047 7.38869 231.03 2.44994e-05H234.587C248.657 6.94561 262.68 14.0349 276.606 21.0643C376.656 71.6114 471.652 119.596 538.771 93.0349C539.154 92.7595 539.549 92.4721 539.933 92.1847C473.053 110.974 382.033 65.0011 286.426 16.6934C275.409 11.1249 264.332 5.53254 253.219 2.44994e-05H256.752C266.919 5.07748 277.061 10.2028 287.144 15.2923C384.392 64.4263 476.861 111.129 543.597 89.3346C544.256 88.7957 544.914 88.2448 545.573 87.682C479.184 102.986 390.259 58.0555 296.975 10.9214C289.767 7.28091 282.546 3.64047 275.301 2.44994e-05H278.81C285.12 3.17344 291.407 6.34685 297.682 9.52026C392.103 57.2172 482.022 102.651 548.255 85.287C549.069 84.5445 549.872 83.7781 550.662 82.9997C484.908 94.7713 398.27 51.0021 307.513 5.14933L297.311 2.44994e-05H300.807L308.232 3.74824C399.815 50.0202 487.16 94.1366 552.77 80.9041C553.656 79.994 554.518 79.0719 555.38 78.1139C490.68 86.3887 406.94 44.2841 319.285 2.44994e-05H322.769C410.018 44.0685 493.183 85.4666 557.069 76.2218C557.991 75.168 558.901 74.0902 559.799 72.9765C498.847 77.7546 422.017 40.7155 341.258 2.44994e-05H344.755C424.938 40.3802 501.086 76.6888 561.212 71.1922C562.134 70.0067 563.056 68.7972 563.954 67.5638C507.014 69.3361 437.045 36.9673 363.28 2.44994e-05H366.789C439.859 36.5482 509.061 68.1625 565.188 65.8513C566.11 64.546 567.02 63.2048 567.93 61.8277C515.253 61.1092 452.085 33.0993 385.398 2.44994e-05H388.942C454.84 32.6083 517.145 59.8997 568.996 60.1991C569.906 58.774 570.804 57.313 571.69 55.8281C523.539 53.1337 467.174 29.1475 407.635 2.44994e-05H411.227C469.892 28.5967 525.335 51.8644 572.612 54.2235C573.534 52.6308 574.492 51.074 575.462 49.5412C532.113 45.4337 482.477 25.1718 430.076 2.44994e-05H433.716C485.22 24.597 533.945 44.2003 576.456 47.9964C577.546 46.3199 578.659 44.6793 579.809 43.0746C541.37 38.1648 498.236 21.2918 452.792 2.44994e-05H456.516C501.062 20.717 543.286 36.9673 580.898 41.5657C582.156 39.8413 583.437 38.1528 584.754 36.5003C551.321 31.303 514.522 17.5436 475.843 2.44994e-05H479.675C517.432 16.9568 553.32 30.1415 585.916 35.0393C587.341 33.2789 588.802 31.5665 590.299 29.9019C562.014 24.8365 531.407 13.9391 499.362 2.44994e-05H503.338C534.436 13.3523 564.134 23.7228 591.568 28.4769C593.185 26.7046 594.825 24.9921 596.502 23.3036C573.498 18.7531 549.021 10.4902 523.527 -0.0119506H527.694C552.219 9.91544 575.761 17.6753 597.891 21.9265C599.699 20.1662 601.543 18.4537 603.411 16.7772C585.904 13.0649 567.559 7.25696 548.59 2.44994e-05H553.093C571.019 6.68215 588.371 12.0231 604.944 15.4599C606.956 13.7116 609.003 12.0231 611.075 10.3825C599.4 7.75991 587.365 4.22725 575.031 2.44994e-05H580.012C591.185 3.70034 602.106 6.77795 612.716 9.10113C614.943 7.38869 617.194 5.73612 619.493 4.14342C614.308 2.93393 609.051 1.54482 603.723 2.44994e-05H609.71C613.614 1.05384 617.482 2.02382 621.302 2.88603C622.75 1.90407 624.211 0.934085 625.684 2.44994e-05H630.426C628.69 1.22149 626.966 2.47888 625.265 3.76022L626.02 3.9159C627.564 2.57468 629.121 1.26939 630.702 2.44994e-05H633.204C631.432 1.40112 629.684 2.83813 627.96 4.31108C628.474 4.41885 629.001 4.52663 629.516 4.62243C631.133 3.04171 632.785 1.49692 634.462 2.44994e-05H636.809C634.977 1.61667 633.181 3.26924 631.408 4.96971C632.187 5.11341 632.965 5.25711 633.731 5.38884C635.348 3.61652 636.989 1.90407 638.677 0.215577L637.587 2.44994e-05H646.544C647.419 0.143726 648.281 0.275453 649.155 0.407179L649.478 2.44994e-05H651.514L650.951 0.670632C652.197 0.850259 653.43 1.00594 654.651 1.14964C654.939 0.766433 655.214 0.371254 655.502 -0.0119506H657.465C657.118 0.443105 656.783 0.89816 656.448 1.35322C657.897 1.52087 659.334 1.66457 660.759 1.7963C661.154 1.18556 661.561 0.586806 661.956 -0.0239258H663.86C663.417 0.622732 662.986 1.26939 662.555 1.92802C664.195 2.04777 665.836 2.16753 667.464 2.23938C667.908 1.47297 668.363 0.718533 668.818 -0.0239258H670.662C670.183 0.754458 669.716 1.53284 669.237 2.3232C670.961 2.39505 672.674 2.43098 674.374 2.44295C674.889 1.62864 675.404 0.802359 675.919 -0.0239258H677.763C677.26 0.814334 676.757 1.62864 676.242 2.44295C677.883 2.43098 679.511 2.39505 681.128 2.3232C681.679 1.54482 682.217 0.766433 682.756 -0.0239258H684.648C684.145 0.742483 683.63 1.48494 683.116 2.2274C684.648 2.14357 686.181 2.02382 687.702 1.8921C688.193 1.25741 688.684 0.622732 689.175 -0.0239258H691.139C690.72 0.550881 690.288 1.12569 689.857 1.68852C691.282 1.53284 692.683 1.36519 694.085 1.16161C694.42 0.778409 694.755 0.383229 695.09 -0.0119506H697.162L696.503 0.766433C697.785 0.550881 699.054 0.323353 700.323 0.0599002L700.407 2.44994e-05H702V1.43704L701.054 1.62864C700.431 2.26333 699.797 2.89801 699.162 3.52072C700.012 3.26924 700.874 3.00578 701.724 2.73036L702 2.50283V6.25105Z" fill="#E5D1F2"/>
<path fill-rule="evenodd" clip-rule="evenodd" d="M39.7804 16.394L39.9001 16.4898L38.8822 16.0826L38.8224 16.0347L39.7804 16.394ZM50.3182 22.178L50.438 22.2738L49.4201 21.8666L49.3602 21.8307L50.3182 22.178ZM46.0073 18.6453L46.5222 19.0884L44.9295 18.4777L44.4266 18.0825L46.0073 18.6453ZM53.1802 21.5433L51.0726 20.7769L53.1802 21.5433ZM51.0726 20.7769L50.2344 20.1063L52.33 20.8128M60.856 27.95L60.9758 28.0458L59.9579 27.6386L59.8981 27.6027L60.856 27.95ZM56.5451 24.4173L57.06 24.8484L55.4674 24.2377L54.9644 23.8545L56.5451 24.4173ZM71.4059 33.722L71.5256 33.8178L70.5078 33.4107L70.4479 33.3747L71.4059 33.722ZM67.083 30.1893L67.5979 30.6204L66.0052 30.0097L65.5023 29.6265L67.083 30.1893ZM62.8678 26.5848L63.718 27.3273L61.6105 26.5609L60.7722 25.8903L62.8678 26.5848ZM58.7724 22.9085L59.8621 23.9024C59.0119 23.615 58.1497 23.3156 57.2995 23.0162L56.1978 22.0822C57.06 22.3696 57.9222 22.645 58.7724 22.9085ZM81.9437 39.494L82.0635 39.5898L81.0456 39.1827L80.9857 39.1467L81.9437 39.494ZM77.6208 35.9614L78.1357 36.3925L76.5431 35.7817L76.0401 35.3985L77.6208 35.9614ZM73.4057 32.3568C73.6931 32.6083 73.9685 32.8478 74.2559 33.0993L72.1483 32.3329L71.3101 31.6623L73.4057 32.3568ZM69.3103 28.6924L70.4 29.6864C69.5498 29.387 68.6876 29.0996 67.8374 28.8002L66.7357 27.8662C67.5979 28.1416 68.4601 28.417 69.3103 28.6924ZM65.3227 24.9323C65.7537 25.3394 66.1729 25.7585 66.604 26.1657C65.622 25.8424 64.6281 25.519 63.6462 25.1957L62.3289 24.0341C63.3229 24.3335 64.3287 24.6329 65.3227 24.9323ZM92.4816 45.266L92.6013 45.3618L91.5834 44.9547L91.5236 44.9188L92.4816 45.266ZM88.1586 41.7334L88.6736 42.1645L87.0809 41.5537L86.578 41.1705L88.1586 41.7334ZM83.9435 38.1289C84.2189 38.3803 84.5063 38.6198 84.7937 38.8713L82.6861 38.1049L81.8479 37.4343L83.9435 38.1289ZM79.8601 34.4645L80.9498 35.4584C80.0996 35.159 79.2374 34.8716 78.3872 34.5722L77.2855 33.6382C78.1357 33.9136 78.9979 34.189 79.8601 34.4645ZM75.8605 30.7043C76.2916 31.1114 76.7107 31.5306 77.1418 31.9377C76.1599 31.6144 75.166 31.2911 74.184 30.9677L72.8668 29.8061C73.8727 30.1055 74.8666 30.4049 75.8605 30.7043ZM71.9926 26.8842C72.4716 27.3632 72.9386 27.8422 73.4176 28.3212C72.759 28.1176 72.1004 27.9141 71.4418 27.7105L70.0886 27.2794C69.5977 26.8243 69.1067 26.3693 68.6157 25.9022C69.7414 26.2375 70.867 26.5728 71.9926 26.8842ZM103.019 51.0381L103.139 51.1339L102.121 50.7267L102.061 50.6908L103.019 51.0381ZM98.7085 47.5054L99.2234 47.9365L97.6307 47.3258L97.1278 46.9426L98.7085 47.5054ZM94.4933 43.9009L95.3435 44.6433L93.236 43.8769L92.3977 43.2063L94.4933 43.9009ZM90.3979 40.2365L91.4876 41.2304C90.6374 40.943 89.7752 40.6436 88.925 40.3443L87.8233 39.4102C88.6736 39.6856 89.5357 39.9611 90.3979 40.2365ZM86.3983 36.4763C86.8294 36.8834 87.2486 37.3026 87.6796 37.7097C86.6857 37.3864 85.7038 37.0631 84.7219 36.7397L83.4046 35.5782C84.4105 35.8775 85.4044 36.1769 86.3983 36.4763ZM82.5305 32.6562C83.0095 33.1352 83.4765 33.6142 83.9555 34.0932C83.2969 33.8897 82.6382 33.6861 81.9796 33.4825L80.6265 33.0514C80.1355 32.5963 79.6445 32.1413 79.1536 31.6743C80.2792 32.0215 81.4048 32.3449 82.5305 32.6562ZM78.7824 28.7523C79.2973 29.3032 79.8122 29.8421 80.3271 30.3929C79.1057 30.0337 77.8842 29.6744 76.6628 29.3152C76.1239 28.8002 75.5971 28.2733 75.0582 27.7464C76.3036 28.0817 77.537 28.417 78.7824 28.7523ZM113.557 56.8101L113.677 56.9059L112.659 56.4987L112.599 56.4628L113.557 56.8101ZM109.246 53.2774L109.761 53.7085L108.169 53.0978L107.666 52.7146L109.246 53.2774ZM105.031 49.6729L105.881 50.4154L103.774 49.6489L102.936 48.9783L105.031 49.6729ZM100.936 46.0085L102.025 47.0024C101.175 46.7031 100.313 46.4157 99.4629 46.1163L98.3612 45.1822C99.2234 45.4576 100.074 45.7331 100.936 46.0085ZM96.9362 42.2483C97.3673 42.6555 97.7864 43.0746 98.2175 43.4817C97.2356 43.1584 96.2416 42.8351 95.2597 42.4998C94.8166 42.1166 94.3855 41.7214 93.9425 41.3382C94.9484 41.6496 95.9423 41.9489 96.9362 42.2483ZM93.0683 38.4282C93.5473 38.9072 94.0143 39.3862 94.4933 39.8653C93.8347 39.6617 93.1761 39.4581 92.5175 39.2545L91.1643 38.8234C90.6733 38.3684 90.1824 37.9133 89.6914 37.4463C90.829 37.7936 91.9427 38.1169 93.0683 38.4282ZM89.3202 34.5243C89.8351 35.0752 90.35 35.6141 90.8649 36.1649C89.6435 35.8057 88.4221 35.4464 87.2007 35.0872C86.6618 34.5722 86.1349 34.0453 85.596 33.5184C86.8414 33.8537 88.0748 34.189 89.3202 34.5243ZM85.7038 30.5366C86.2427 31.1474 86.7815 31.7581 87.3324 32.3688C86.0032 32.0096 84.674 31.6383 83.3448 31.2671C82.77 30.6803 82.2072 30.1055 81.6443 29.5187C82.9975 29.854 84.3506 30.2013 85.7038 30.5366ZM116.419 56.1874L114.312 55.421L116.419 56.1874ZM114.312 55.421L113.473 54.7504L115.569 55.4569M124.095 62.5941L124.215 62.6899L123.197 62.2827L123.137 62.2468L124.095 62.5941ZM119.784 59.0494L120.299 59.4805L118.706 58.8698L118.203 58.4866L119.784 59.0494ZM111.474 51.7805L112.563 52.7745C111.713 52.4871 110.851 52.1877 110.001 51.8883L108.899 50.9542C109.761 51.2297 110.611 51.5051 111.474 51.7805ZM107.486 48.0323C107.917 48.4395 108.336 48.8586 108.767 49.2657C107.773 48.9424 106.791 48.6191 105.81 48.2838C105.366 47.9006 104.935 47.5054 104.492 47.1222C105.486 47.4216 106.48 47.7209 107.486 48.0323ZM103.606 44.2003C104.085 44.6793 104.552 45.1583 105.031 45.6373C104.373 45.4337 103.714 45.2301 103.055 45.0265L101.702 44.5954C101.211 44.1404 100.72 43.6853 100.229 43.2183C101.367 43.5656 102.493 43.8889 103.606 44.2003ZM99.858 40.2964C100.373 40.8472 100.888 41.3861 101.403 41.937C100.181 41.5777 98.9599 41.2184 97.7385 40.8592C97.1996 40.3443 96.6727 39.8174 96.1339 39.2904C97.3792 39.6377 98.6246 39.9611 99.858 40.2964ZM96.2416 36.3086C96.7805 36.9194 97.3194 37.5301 97.8702 38.1408C96.541 37.7816 95.2118 37.4104 93.8826 37.0391C93.3078 36.4523 92.745 35.8775 92.1822 35.2908C93.5353 35.6261 94.8885 35.9733 96.2416 36.3086ZM92.757 32.2251C93.3078 32.8957 93.8706 33.5663 94.4454 34.2369C93.0084 33.8777 91.5834 33.5065 90.1584 33.1233C89.5597 32.4886 88.9729 31.8419 88.3981 31.1953C89.8471 31.5425 91.296 31.8898 92.757 32.2251ZM134.633 68.3541L134.753 68.4499L133.735 68.0428L133.675 68.0068L134.633 68.3541ZM130.322 64.8214L130.837 65.2525L129.244 64.6418L128.753 64.2586L130.322 64.8214ZM126.107 61.2169C126.382 61.4564 126.67 61.7079 126.957 61.9474L124.849 61.181L124.011 60.5104L126.107 61.2169ZM122.011 57.5525L123.101 58.5465C122.251 58.2471 121.389 57.9597 120.539 57.6603L119.437 56.7263C120.299 57.0017 121.161 57.2771 122.011 57.5525ZM118.024 53.8043C118.455 54.2115 118.874 54.6306 119.305 55.0378C118.323 54.7144 117.329 54.3911 116.347 54.0678C115.904 53.6846 115.473 53.2894 115.03 52.9062C116.024 53.1936 117.018 53.5049 118.024 53.8043ZM114.156 49.9723C114.635 50.4513 115.102 50.9303 115.581 51.4093C114.922 51.2057 114.264 51.0021 113.605 50.7986L112.252 50.3675C111.761 49.9124 111.27 49.4573 110.779 48.9903C111.905 49.3376 113.03 49.6609 114.156 49.9723ZM110.396 46.0684C110.911 46.6192 111.426 47.1581 111.941 47.709C110.719 47.3497 109.498 46.9905 108.276 46.6312C107.737 46.1163 107.211 45.5894 106.672 45.0625C107.917 45.4097 109.162 45.745 110.396 46.0684ZM106.779 42.0807C107.318 42.6914 107.857 43.3021 108.408 43.9129C107.079 43.5536 105.75 43.1824 104.42 42.8111C103.846 42.2244 103.283 41.6496 102.72 41.0628C104.073 41.3981 105.426 41.7453 106.779 42.0807ZM103.295 37.9971C103.846 38.6677 104.408 39.3383 104.983 40.009C103.546 39.6497 102.121 39.2785 100.696 38.8953C100.098 38.2486 99.5108 37.6139 98.936 36.9673C100.385 37.3265 101.846 37.6618 103.295 37.9971ZM99.9658 33.8298C100.529 34.5603 101.103 35.2908 101.678 36.0093C100.145 35.65 98.6127 35.2788 97.0919 34.8956C96.4811 34.201 95.8824 33.4945 95.2837 32.7999C96.8404 33.1592 98.4091 33.4945 99.9658 33.8298ZM145.183 74.1261L145.302 74.2219L144.285 73.8148L144.225 73.7788L145.183 74.1261ZM140.86 70.5935L141.375 71.0246L139.782 70.4138L139.279 70.0306L140.86 70.5935ZM136.645 67.0009L137.495 67.7314L135.387 66.965L134.549 66.2944L136.645 67.0009ZM132.549 63.3246L133.639 64.3185C132.789 64.0191 131.927 63.7317 131.076 63.4323L129.975 62.4983C130.837 62.7737 131.699 63.0491 132.549 63.3246ZM128.562 59.5763C128.993 59.9835 129.412 60.4026 129.843 60.8098C128.861 60.4864 127.867 60.1631 126.885 59.8398C126.442 59.4566 126.011 59.0614 125.568 58.6782C126.562 58.9656 127.568 59.277 128.562 59.5763ZM124.694 55.7443C125.173 56.2233 125.64 56.7023 126.119 57.1813C125.46 56.9777 124.802 56.7742 124.143 56.5706L122.79 56.1395C122.299 55.6844 121.808 55.2294 121.317 54.7623C122.443 55.1096 123.568 55.4329 124.694 55.7443ZM120.946 51.8404C121.461 52.3913 121.976 52.9301 122.49 53.481C121.269 53.1217 120.048 52.7625 118.826 52.4032C118.287 51.8883 117.76 51.3614 117.222 50.8345C118.455 51.1818 119.7 51.5171 120.946 51.8404ZM117.317 47.8527C117.856 48.4634 118.395 49.0741 118.946 49.6849C117.617 49.3256 116.287 48.9544 114.958 48.5832C114.383 47.9964 113.821 47.4216 113.258 46.8348C114.623 47.1701 115.964 47.5174 117.317 47.8527ZM113.833 43.7691C114.383 44.4398 114.946 45.1104 115.521 45.781C114.084 45.4217 112.659 45.0505 111.234 44.6673C110.635 44.0206 110.049 43.3859 109.474 42.7393C110.923 43.0985 112.384 43.4338 113.833 43.7691ZM110.504 39.6018C111.066 40.3323 111.641 41.0628 112.216 41.7813C110.683 41.422 109.15 41.0508 107.63 40.6676C107.019 39.973 106.42 39.2665 105.822 38.5719C107.378 38.9312 108.947 39.2665 110.504 39.6018ZM107.33 35.3267C107.893 36.117 108.468 36.8954 109.043 37.6738C107.414 37.3145 105.786 36.9553 104.169 36.5841C103.546 35.8296 102.948 35.0752 102.349 34.3208C104.001 34.668 105.666 35.0033 107.33 35.3267ZM334.696 1.22497e-05C312.196 10.2388 289.767 19.5554 267.685 27.1716C218.648 44.0685 162.415 44.3799 108.252 33.9136C106.109 30.8839 104.121 27.8302 102.337 24.7886C101.008 22.5133 99.0677 18.8369 96.6009 14.1546C94.4694 10.0951 91.9547 5.305 89.0687 1.22497e-05H87.2845C90.3261 5.5924 92.9845 10.6459 95.2118 14.8731C97.7026 19.6033 99.6545 23.3036 100.972 25.5669C102.516 28.2134 104.205 30.848 106.025 33.4705C104.301 33.1232 102.576 32.776 100.864 32.4047C97.4631 27.962 94.4334 23.4833 91.799 18.9926C90.4698 16.7173 88.5299 13.0409 86.063 8.35866C84.7338 5.84388 83.2609 3.02972 81.6324 -0.0119629H79.8481C81.6204 3.30515 83.237 6.37079 84.662 9.07717C87.1528 13.8073 89.1046 17.5077 90.4219 19.771C92.7929 23.8186 95.4992 27.8662 98.4929 31.8898C96.8643 31.5306 95.2358 31.1713 93.6192 30.8001C88.8532 24.9802 84.6979 19.1123 81.2492 13.2206C79.92 10.9453 77.98 7.26892 75.5132 2.58664L74.1601 1.22497e-05H72.3758L74.1241 3.31713C76.6149 8.04731 78.5668 11.7476 79.884 14.0109C83.0693 19.4476 86.8414 24.8604 91.1284 30.2253C89.5956 29.866 88.0628 29.4948 86.542 29.1116C80.2912 21.9744 74.9744 14.7175 70.7113 7.44855C69.6935 5.71215 68.3403 3.17342 66.6519 -0.0119629H64.8676C66.7477 3.55663 68.2565 6.38276 69.3462 8.23891C73.3218 15.0288 78.2076 21.7828 83.8956 28.4529C82.4586 28.0937 81.0336 27.7225 79.6086 27.3393C71.7891 18.9207 65.2388 10.3226 60.1735 1.68851C59.8861 1.19753 59.5628 0.62272 59.2155 1.22497e-05H57.4193C57.9462 0.946048 58.4012 1.78431 58.8083 2.47887C63.5624 10.586 69.6096 18.6693 76.7945 26.5968C75.4653 26.2375 74.1361 25.8663 72.8069 25.4951C64.6161 17.1364 57.6588 8.59816 52.1384 1.22497e-05H50.2703C55.5033 8.29878 62.0655 16.5497 69.7893 24.6209C68.5678 24.2616 67.3464 23.9024 66.125 23.5431C58.1617 15.8431 51.2403 7.96348 45.5283 1.22497e-05H43.6003C48.977 7.6162 55.4554 15.1605 62.8918 22.5492C62.2332 22.3456 61.5745 22.142 60.9159 21.9385L59.5628 21.5074C51.9228 14.4899 45.1451 7.29287 39.3493 1.22497e-05H37.3495C42.7501 6.89769 49.0249 13.7115 56.0661 20.3937C55.0842 20.0703 54.0903 19.747 53.1083 19.4237C45.8875 13.0769 39.3612 6.58634 33.6253 1.22497e-05H31.5537C36.8226 6.14326 42.7741 12.2027 49.3363 18.1304C48.4861 17.831 47.6239 17.5436 46.7737 17.2442C40.0678 11.6159 33.8887 5.85586 28.3324 1.22497e-05H26.177C31.1705 5.34092 36.6789 10.61 42.6304 15.7713L40.5228 15.0049C34.4396 10.107 28.7396 5.08945 23.5066 1.22497e-05H21.2673C25.8297 4.50266 30.7513 8.94544 35.9843 13.3044L34.3917 12.6937C29.003 8.55026 23.9137 4.31106 19.1358 1.22497e-05H16.8126C20.7763 3.62848 24.9675 7.20905 29.3623 10.7297L28.3444 10.3226C23.782 6.94559 19.3992 3.49675 15.232 1.22497e-05H12.8131C15.9864 2.70639 19.2914 5.37685 22.7043 8.01138L22.4049 7.89163C18.7765 5.29302 15.2439 2.67047 11.8311 1.22497e-05H9.31641C10.7055 1.10173 12.1185 2.20344 13.5435 3.29318C11.9868 2.20344 10.454 1.10173 8.94519 1.22497e-05H0C2.96976 1.67653 5.98741 3.31713 9.05297 4.93377C12.5017 6.89769 16.0223 8.82569 19.5908 10.7058C23.0396 12.6577 26.5482 14.5857 30.1167 16.4658C33.5774 18.4298 37.086 20.3578 40.6665 22.2498C44.1272 24.2137 47.6478 26.1417 51.2163 28.0338C54.6651 29.9858 58.1617 31.9138 61.7302 33.7939C65.1909 35.7578 68.6996 37.6858 72.28 39.5779C75.7407 41.5418 79.2613 43.4698 82.8298 45.3618C86.2786 47.3138 89.7752 49.2418 93.3437 51.1219C96.8045 53.0858 100.313 55.0138 103.894 56.9059C107.342 58.8698 110.851 60.7858 114.431 62.6779C117.88 64.6418 121.389 66.5578 124.957 68.4499C128.418 70.4138 131.939 72.3418 135.507 74.2339C138.956 76.1978 142.464 78.1138 146.045 80.0059C149.494 81.9698 153.014 83.8978 156.583 85.7779C160.043 87.7419 163.564 89.6699 167.145 91.5619C170.593 93.5139 174.09 95.4419 177.658 97.322C181.119 99.2859 184.64 101.214 188.22 103.106C213.188 117.285 241.424 129.583 271.23 138.936C339.079 160.203 415.083 166.167 478.981 144.145C530.054 126.541 582.791 99.8966 634.211 73.9106C657.166 62.3186 679.847 50.8584 702 40.3922V38.6558C679.619 49.2059 656.699 60.7858 633.504 72.5095C582.108 98.4357 529.383 125.08 478.478 142.624C414.928 164.526 339.283 158.575 271.709 137.403C260.369 133.846 249.268 129.87 238.491 125.523C245.771 128.242 253.184 130.781 260.704 133.14C328.553 154.407 404.557 160.371 468.455 138.349C519.528 120.745 572.265 94.1007 623.685 68.1146C650.293 54.6665 676.542 41.41 702.012 29.6864V27.95C676.314 39.7575 649.814 53.1337 622.966 66.7015C571.57 92.6636 518.857 119.308 467.94 136.852C404.39 158.754 328.745 152.803 261.171 131.631C249.831 128.074 238.73 124.086 227.941 119.739C235.233 122.458 242.646 124.997 250.154 127.356C318.003 148.623 394.008 154.587 457.905 132.565C508.978 114.961 561.715 88.3167 613.135 62.3306C643.431 47.0264 673.26 31.9497 702 19.1123V17.3759C673.033 30.2971 642.964 45.4936 612.416 60.9176C561.02 86.8797 508.307 113.524 457.39 131.068C393.84 152.97 318.195 147.019 250.621 125.847C239.293 122.29 228.192 118.314 217.403 113.967C224.684 116.686 232.096 119.225 239.604 121.572C307.454 142.839 383.458 148.803 447.355 126.781C498.428 109.177 551.165 82.5327 602.585 56.5466C636.605 39.3623 670.039 22.4654 701.988 8.70594V6.99349C669.8 20.8368 636.127 37.8415 601.867 55.1455C550.471 81.1076 497.757 107.752 446.84 125.296C383.29 147.198 307.645 141.247 240.071 120.075C228.731 116.518 217.63 112.53 206.841 108.183C214.134 110.902 221.546 113.441 229.066 115.8C296.916 137.067 372.92 143.031 436.818 121.009C487.89 103.405 540.627 76.7607 592.047 50.7746C628.534 32.3449 664.339 14.2504 698.372 -0.0119629H694.3C661.25 14.0469 626.607 31.5425 591.329 49.3735C539.933 75.3356 487.22 101.98 436.303 119.524C372.752 141.426 297.107 135.475 229.533 114.303C218.193 110.746 207.093 106.758 196.303 102.411C203.596 105.13 211.008 107.668 218.529 110.028C286.378 131.295 362.382 137.259 426.28 115.237C477.352 97.6333 530.089 70.9886 581.509 45.0026C613.243 28.9799 644.449 13.2206 674.422 1.22497e-05H670.542C641.527 12.9332 611.398 28.1536 580.803 43.6135C529.407 69.5756 476.694 96.2083 425.777 113.764C362.226 135.666 286.581 129.715 219.008 108.543C207.667 104.986 196.567 101.01 185.777 96.6514C193.07 99.3697 200.482 101.908 207.991 104.268C275.84 125.535 351.844 131.499 415.742 109.477C466.814 91.8733 519.552 65.2286 570.971 39.2425C598.202 25.4831 625.05 11.9273 651.059 1.22497e-05H647.287C622.224 11.5919 596.406 24.6209 570.265 37.8415C518.869 63.8036 466.156 90.4363 415.239 107.992C351.689 129.894 276.044 123.943 208.47 102.771C197.141 99.2141 186.041 95.2383 175.263 90.8913C182.544 93.5977 189.957 96.1484 197.453 98.4955C265.302 119.763 341.306 125.727 405.204 103.705C456.277 86.1013 509.014 59.4566 560.434 33.4705C583.353 21.8906 606.01 10.4423 628.127 1.22497e-05H624.451C603.28 10.0711 581.629 21.0044 559.727 32.0694C508.331 58.0315 455.606 84.6642 404.701 102.22C341.151 124.122 265.506 118.171 197.932 96.9986C186.592 93.442 175.491 89.4663 164.714 85.1073C171.994 87.8257 179.419 90.3644 186.927 92.7235C254.776 113.991 330.78 119.955 394.678 97.9327C445.751 80.3292 498.488 53.6846 549.908 27.6985C568.66 18.2142 587.245 8.82569 605.507 1.22497e-05H601.902C584.575 8.41854 566.96 17.3161 549.189 26.2854C497.793 52.2595 445.068 78.8922 394.163 96.4478C330.613 118.35 254.968 112.399 187.394 91.2266C176.281 87.7419 165.396 83.8499 154.822 79.5988L154.763 79.5628C161.852 82.1974 169.073 84.6642 176.377 86.9515C244.227 108.219 320.231 114.183 384.128 92.1607C435.201 74.5572 487.938 47.9125 539.358 21.9265C554.075 14.4899 568.696 7.10127 583.126 0.0119874H579.569C566.062 6.68214 552.399 13.5798 538.651 20.5254C487.256 46.4875 434.53 73.1202 383.613 90.6638C320.063 112.566 244.418 106.615 176.844 85.4426C167.839 82.6165 158.99 79.5269 150.32 76.1978L149.817 75.8146C155.098 77.6947 160.439 79.479 165.827 81.1675C233.677 102.435 309.681 108.399 373.579 86.3767C424.651 68.7732 477.388 42.1286 528.808 16.1425C539.573 10.7058 550.291 5.29302 560.913 1.22497e-05H557.392C547.692 4.84994 537.921 9.7837 528.09 14.7414C476.718 40.7155 423.993 67.3482 373.076 84.8918C309.525 106.794 233.88 100.843 166.306 79.6706C159.421 77.5151 152.619 75.1919 145.925 72.737L145.087 72.0664C148.464 73.216 151.877 74.3297 155.301 75.4075C223.151 96.6753 299.155 102.639 363.053 80.6167C414.125 63.0132 466.862 36.3685 518.282 10.3825C525.168 6.90967 532.029 3.43688 538.855 0.0119874H535.346C529.443 2.98182 523.515 5.97561 517.564 8.98137C466.18 34.9315 413.455 61.5762 362.538 79.1198C298.987 101.022 223.342 95.0826 155.768 73.8986C151.014 72.4137 146.296 70.8449 141.626 69.2043L140.525 68.2703C141.938 68.7253 143.351 69.1804 144.764 69.6235C212.613 90.8913 288.617 96.8549 352.515 74.8327C403.587 57.2292 456.325 30.5845 507.744 4.59847L516.857 1.22497e-05H513.361L507.026 3.19737C455.63 29.1595 402.917 55.8042 352 73.3477C288.45 95.2503 212.805 89.2986 145.231 68.1266C142.62 67.3123 140.01 66.462 137.423 65.5998L136.106 64.4382C203.476 85.2271 278.654 90.8793 341.965 69.0606C392.259 51.7206 444.194 25.6029 494.871 1.22497e-05H491.387C441.607 25.1358 390.691 50.6069 341.45 67.5757C277.912 89.4783 202.255 83.5266 134.693 62.3546L133.34 61.9235C132.849 61.4684 132.358 61.0134 131.867 60.5463C197.597 79.7664 270.092 84.4248 331.439 63.2767C377.949 47.2539 425.873 23.7108 472.91 1.22497e-05H469.413C423.298 23.2198 376.393 46.1282 330.924 61.8037C269.002 83.1434 195.597 78.042 129.364 58.1752C128.825 57.6603 128.298 57.1334 127.759 56.6065C191.765 74.2698 261.542 77.9582 320.889 57.5046C363.627 42.7752 407.551 21.699 450.876 -0.0119629H447.355C404.965 21.184 362.059 41.6495 320.374 56.0197C260.524 76.6529 189.957 72.5694 125.496 54.3312C124.921 53.7444 124.359 53.1696 123.796 52.5829C185.981 68.7253 253.04 71.4916 310.351 51.7326C349.294 38.3205 389.206 19.6392 428.77 1.22497e-05H425.226C386.631 19.1004 347.737 37.1948 309.837 50.2597C252.082 70.1624 184.352 67.0608 121.772 50.4393C121.173 49.7926 120.586 49.158 120.012 48.5113C180.269 63.121 244.562 65.0011 299.814 45.9606C334.912 33.8657 370.812 17.4837 406.521 1.22497e-05H402.941C368.214 16.9448 333.355 32.752 299.299 44.4877C243.676 63.6599 178.796 61.4804 118.168 46.4516C117.557 45.757 116.958 45.0505 116.359 44.3559C174.605 57.4687 236.12 58.5105 289.264 40.2006C320.47 29.4469 352.311 15.3042 384.092 0.0119874H380.464C349.701 14.7534 318.913 28.3332 288.761 38.7276C235.293 57.1574 173.276 55.864 114.707 42.38C114.084 41.6256 113.485 40.8712 112.887 40.1167C169.013 51.7566 227.725 52.008 278.738 34.4285C305.981 25.04 333.702 13.0769 361.448 0.0119874H357.748C331.044 12.514 304.4 23.9263 278.223 32.9556C226.959 50.6309 167.815 50.1639 111.402 38.2007C110.779 37.3984 110.18 36.5841 109.582 35.7698C163.492 45.9606 219.379 45.4816 268.2 28.6565C291.371 20.6691 314.902 10.8136 338.48 0.0119874H334.696V1.22497e-05Z" fill="#E5D1F2"/>
</g>
<defs>
<clipPath id="clip0_6074_32088">
<rect width="702" height="158" fill="white"/>
</clipPath>
</defs>
</svg>
