<svg width="129" height="108" viewBox="0 0 129 108" fill="none" xmlns="http://www.w3.org/2000/svg">
<g clip-path="url(#clip0_7725_27375)">
<path d="M123.348 56.298C123.348 70.498 117.548 83.298 108.248 92.498C99.1482 101.598 86.5482 107.098 72.6482 107.098C58.8482 107.098 46.2482 101.498 37.0482 92.498C27.7482 83.298 21.9482 70.498 21.9482 56.298C21.9482 28.198 44.6482 5.49805 72.6482 5.49805C100.648 5.49805 123.348 28.298 123.348 56.298Z" fill="#EAEEF9"/>
<path d="M118.949 22.9979C121.213 22.9979 123.049 21.1622 123.049 18.8979C123.049 16.6335 121.213 14.7979 118.949 14.7979C116.684 14.7979 114.849 16.6335 114.849 18.8979C114.849 21.1622 116.684 22.9979 118.949 22.9979Z" fill="#EAEEF9"/>
<path d="M124.949 6.99746C126.495 6.99746 127.749 5.74386 127.749 4.19746C127.749 2.65106 126.495 1.39746 124.949 1.39746C123.402 1.39746 122.149 2.65106 122.149 4.19746C122.149 5.74386 123.402 6.99746 124.949 6.99746Z" fill="#EAEEF9"/>
<path d="M23.548 22.8979C25.0944 22.8979 26.348 21.6442 26.348 20.0979C26.348 18.5515 25.0944 17.2979 23.548 17.2979C22.0016 17.2979 20.748 18.5515 20.748 20.0979C20.748 21.6442 22.0016 22.8979 23.548 22.8979Z" fill="#EAEEF9"/>
<path d="M6.44804 76.898C9.31993 76.898 11.648 74.5699 11.648 71.698C11.648 68.8261 9.31993 66.498 6.44804 66.498C3.57616 66.498 1.24805 68.8261 1.24805 71.698C1.24805 74.5699 3.57616 76.898 6.44804 76.898Z" fill="#EAEEF9"/>
<path d="M108.249 29.6982V92.4982C99.1488 101.598 86.5488 107.098 72.6488 107.098C58.8488 107.098 46.2488 101.498 37.0488 92.4982V29.6982H108.249Z" fill="white"/>
<path opacity="0.5" d="M73.9067 61.7521L59.9769 47.8223L55.2393 52.5598L69.1692 66.4897L73.9067 61.7521Z" fill="#6FC49B"/>
<path opacity="0.5" d="M85.3318 40.8965L64.543 61.6852L69.2806 66.4228L90.0693 45.6341L85.3318 40.8965Z" fill="#6FC49B"/>
<path d="M90.8482 74.998H54.4482V79.598H90.8482V74.998Z" fill="#D5DAE5"/>
<path d="M90.8482 85.0977H54.4482V89.6977H90.8482V85.0977Z" fill="#D5DAE5"/>
<path d="M81.9486 95.2979H63.3486V99.8979H81.9486V95.2979Z" fill="#D5DAE5"/>
</g>
<defs>
<clipPath id="clip0_7725_27375">
<rect width="128" height="107" fill="white" transform="translate(0.5 0.5)"/>
</clipPath>
</defs>
</svg>
