<svg width="12" height="15" viewBox="0 0 12 15" fill="none" xmlns="http://www.w3.org/2000/svg">
<g id="Group">
<path id="Vector" d="M6.41389 5.06871L6.41323 6.72911L6.41315 6.73198C6.41495 7.02458 6.65339 7.26212 6.94641 7.26212C7.24076 7.26212 7.48007 7.02283 7.48007 6.7287V5.86023C7.07186 5.67175 6.70934 5.40075 6.41389 5.06871ZM8.83384 7.26212C9.12713 7.26212 9.36575 7.02349 9.36575 6.7302V6.11275C9.19239 6.14157 9.0145 6.1568 8.8331 6.1568C8.6517 6.1568 8.4738 6.14157 8.30044 6.11275V6.7287C8.30039 7.02283 8.5397 7.26212 8.83384 7.26212ZM4.52539 2.95261V4.74482H5.5927V2.95261C5.5927 2.65888 5.35374 2.41992 5.06002 2.41992C4.76435 2.41992 4.52539 2.65888 4.52539 2.95261Z" fill="white"/>
<path id="Vector_2" d="M9.3667 7.97236C9.19831 8.04495 9.01684 8.08231 8.83347 8.08215C8.46679 8.08215 8.13391 7.93539 7.88989 7.69778C7.64588 7.93537 7.31296 8.08215 6.94629 8.08215C6.57952 8.08215 6.24661 7.93539 6.00257 7.69783C5.75853 7.93539 5.42564 8.08215 5.05905 8.08215H4.27781C4.47008 8.25605 4.64334 8.44987 4.79469 8.66036C5.23736 9.27581 5.47041 10.0023 5.46863 10.7613L5.46838 11.5091L4.64807 11.5089L4.64832 10.7602C4.65111 9.56675 3.90834 8.52678 2.75607 8.10987L2.48548 8.01196V7.26184H5.05907C5.35209 7.26184 5.59064 7.02425 5.59244 6.73161L5.59236 6.72841V5.56488H1.91246C1.2715 5.56488 0.75 6.08636 0.75 6.72735V9.51417C0.750133 9.81643 0.814065 10.1153 0.937616 10.3911C1.06117 10.667 1.24155 10.9136 1.46698 11.115C2.13674 11.7127 2.4968 12.5698 2.45486 13.4665L2.40654 14.5H7.71068L7.66231 13.4658C7.62036 12.5696 7.9801 11.7129 8.64923 11.1152C9.10453 10.7085 9.36561 10.1257 9.36591 9.51567L9.3667 7.97236ZM2.63751 3.73862V4.74454H3.70468V3.73862C3.70468 3.44489 3.46573 3.20594 3.17203 3.20594C2.87647 3.20594 2.63751 3.44492 2.63751 3.73862ZM8.8327 0.5C7.49937 0.5 6.41459 1.58475 6.41459 2.91812C6.41459 4.25148 7.49934 5.33621 8.8327 5.33621C10.1661 5.33621 11.2508 4.25145 11.2508 2.91812C11.2508 1.58478 10.166 0.5 8.8327 0.5ZM9.83392 4.00757L9.27201 4.6052L8.8327 4.19217L8.3934 4.6052L7.83148 4.00757L8.23393 3.62919L7.99607 3.40555C7.62884 3.06028 7.51154 2.53437 7.69723 2.06576C7.88295 1.59714 8.32862 1.29436 8.8327 1.29436C9.33679 1.29436 9.78246 1.59717 9.96818 2.06576C10.1539 2.53437 10.0366 3.06028 9.66934 3.40555L9.43148 3.62919L9.83392 4.00757Z" fill="white"/>
<path id="Vector_3" d="M8.83198 2.11523C8.57916 2.11523 8.48269 2.30913 8.45912 2.36855C8.43558 2.42796 8.37307 2.63531 8.55723 2.80848L8.83195 3.0668L9.10667 2.80848C9.29086 2.63531 9.22835 2.42796 9.20478 2.36855C9.18127 2.30913 9.0848 2.11523 8.83198 2.11523Z" fill="white"/>
</g>
</svg>
