<svg width="75" height="60" viewBox="0 0 75 60" fill="none" xmlns="http://www.w3.org/2000/svg">
<g id="52" clip-path="url(#clip0_6167_27643)">
<path id="Vector" d="M74.0632 29.9783C74.0632 40.825 68.3073 50.3244 59.6847 55.5569C59.3267 55.7814 58.9681 55.9834 58.6101 56.1859L61.9022 31.6625C61.9695 31.1685 61.611 30.7193 61.1408 30.652C60.6481 30.5846 60.2003 30.9215 60.133 31.4155L56.6838 57.1514C55.8102 57.5554 54.9146 57.9149 54.0186 58.2294L56.4824 31.6176C56.5273 31.1236 56.1687 30.6969 55.6761 30.652C55.1834 30.6071 54.7351 30.9664 54.7132 31.4604L52.1596 58.8134C51.3089 59.0379 50.4128 59.2399 49.5394 59.3969L50.9055 31.5727C50.9279 31.0787 50.5475 30.652 50.0545 30.6295C49.5618 30.6071 49.1362 30.9888 49.1139 31.4829L47.7253 59.6664C46.8742 59.7564 46.0456 59.8239 45.1721 59.8464V31.5503C45.1721 31.0562 44.769 30.652 44.2763 30.652C43.7835 30.652 43.3804 31.0562 43.3804 31.5503V59.8684C42.5965 59.8464 41.835 59.8014 41.0735 59.7114L39.685 31.5053C39.6626 31.0113 39.2371 30.6295 38.7444 30.652C38.2516 30.6744 37.8709 31.1011 37.8933 31.5952L39.2595 59.4644C38.3636 59.3074 37.4902 59.1274 36.6391 58.9029L34.0635 31.4604C34.0187 30.9664 33.5932 30.6071 33.1005 30.652C32.6077 30.6969 32.2494 31.146 32.2942 31.6176L34.7802 58.3414C33.8619 58.0274 32.9885 57.6904 32.115 57.3084L28.6436 31.438C28.5764 30.9439 28.1285 30.6071 27.6358 30.6744C27.143 30.7418 26.8071 31.1909 26.8743 31.685L30.1666 56.3654C29.741 56.1409 29.3378 55.9164 28.9347 55.6694C20.2449 50.4369 14.4219 40.8924 14.4219 29.9783C14.4219 13.4723 27.7701 0.0878906 44.2314 0.0878906C60.7154 0.0878906 74.0632 13.4723 74.0632 29.9783Z" fill="#EAEEF9"/>
<path id="Vector_2" d="M53.0272 31.745C52.2563 21.0765 52.0244 16.0021 48.7407 11.0491C48.6992 10.9867 48.6128 10.9728 48.5541 11.0214C47.9111 11.5551 47.1991 12.7336 46.9018 13.9849C45.7956 13.7804 44.686 13.5689 43.5522 13.6383C42.8574 13.6799 42.173 13.8601 41.4885 13.9849C41.1913 12.7301 40.4827 11.5551 39.8363 11.0214C39.7775 10.9728 39.6911 10.9867 39.6496 11.0491C36.3657 16.0021 36.1341 21.0765 35.3633 31.745L44.1951 31.031L53.0272 31.745Z" fill="white"/>
<path id="Vector_3" d="M41.0905 20.8069C40.2125 20.8069 39.4037 20.3286 38.9785 19.5591C38.8783 19.3754 38.9439 19.1432 39.1271 19.0392C39.3103 18.9387 39.5419 19.0045 39.6456 19.1882C39.9394 19.7151 40.4925 20.0443 41.094 20.0443C41.6955 20.0443 42.252 19.7151 42.5424 19.1882C42.6426 19.0045 42.8742 18.9387 43.0609 19.0392C43.2441 19.1397 43.3097 19.3719 43.2095 19.5591C42.7774 20.3286 41.9685 20.8069 41.0905 20.8069Z" fill="#989FB0"/>
<path id="Vector_4" d="M47.323 20.8069C46.445 20.8069 45.6361 20.3286 45.2109 19.5591C45.1107 19.3754 45.1764 19.1432 45.3596 19.0392C45.5428 18.9387 45.7744 19.0045 45.8781 19.1882C46.1719 19.7151 46.725 20.0443 47.3264 20.0443C47.9279 20.0443 48.4844 19.7151 48.7748 19.1882C48.875 19.0045 49.1066 18.9387 49.2933 19.0392C49.4765 19.1397 49.5422 19.3719 49.4419 19.5591C49.0098 20.3286 48.201 20.8069 47.323 20.8069Z" fill="#989FB0"/>
<path id="Vector_5" d="M42.0579 23.7749C42.0406 23.7749 42.0199 23.7749 41.9991 23.7714L38.1172 23.1822C37.9098 23.151 37.7681 22.9569 37.7992 22.7489C37.8303 22.541 38.0239 22.3989 38.2313 22.4301L42.1132 23.0193C42.3206 23.0505 42.4623 23.2446 42.4312 23.4526C42.4035 23.6397 42.2411 23.7749 42.0579 23.7749Z" fill="#989FB0"/>
<path id="Vector_6" d="M38.8674 25.4271C38.6704 25.4271 38.501 25.2746 38.4872 25.0701C38.4734 24.8586 38.6324 24.6784 38.8398 24.6645L42.0303 24.4462C42.2377 24.4323 42.4209 24.5918 42.4347 24.7997C42.4486 25.0112 42.2896 25.1914 42.0822 25.2053L38.8916 25.4236C38.8847 25.4271 38.8743 25.4271 38.8674 25.4271Z" fill="#989FB0"/>
<path id="Vector_7" d="M46.3381 23.7745C46.1549 23.7745 45.9924 23.6393 45.9613 23.4486C45.9302 23.2407 46.0719 23.0466 46.2794 23.0154L50.1612 22.4262C50.3686 22.395 50.5622 22.5371 50.5931 22.745C50.6245 22.953 50.4829 23.1471 50.2753 23.1783L46.3934 23.7675C46.3761 23.7745 46.3588 23.7745 46.3381 23.7745Z" fill="#989FB0"/>
<path id="Vector_8" d="M49.5287 25.4275C49.5183 25.4275 49.5114 25.4275 49.501 25.4275L46.3105 25.2092C46.0996 25.1953 45.9441 25.0116 45.9579 24.8036C45.9717 24.5957 46.1515 24.4362 46.3623 24.4501L49.5529 24.6684C49.7637 24.6823 49.9193 24.866 49.9055 25.074C49.8951 25.275 49.7292 25.4275 49.5287 25.4275Z" fill="#989FB0"/>
<path id="Vector_9" d="M44.6775 22.6504C44.484 22.6192 43.9032 22.6192 43.7062 22.6504C43.4988 22.685 43.2396 22.737 43.3225 23.2223C43.3675 23.4857 43.5264 23.7179 43.7339 23.8912C44.1003 24.1962 44.2801 24.1616 44.5704 23.9467C44.8089 23.7734 45.0059 23.5169 45.0578 23.2188C45.1477 22.7336 44.885 22.6816 44.6775 22.6504Z" fill="#989FB0"/>
<path id="Vector_10" d="M12.8887 4.44727C18.5838 6.26931 23.8722 9.48931 28.014 13.8146C28.8437 14.7457 29.7711 15.7326 30.1326 16.9177C30.7657 18.6494 30.2393 20.8268 28.9808 22.129C27.6943 23.4804 25.599 23.9779 23.7705 23.3236C22.6048 22.9831 21.5798 21.9404 21.4488 20.6914C21.3946 19.4212 22.2969 18.1762 23.4774 17.8077C24.7138 17.3408 26.0331 17.6387 27.0796 18.3024C28.126 18.9661 28.9766 19.9743 29.5966 21.0463C31.7009 24.4021 32.4145 28.7235 31.5574 32.7338C30.9112 35.6906 29.3716 38.3974 27.2602 40.5163" stroke="#C9D4E2" stroke-width="2" stroke-miterlimit="10" stroke-dasharray="4 4"/>
<path id="Vector_11" d="M12.5976 1.54234C13.0508 1.99722 12.9103 2.69951 12.2325 3.09457C11.5756 3.56677 11.0794 3.87005 10.647 3.49232C10.2426 3.06537 10.5296 2.44687 10.8727 1.72994C11.2509 0.837437 12.1163 1.13668 12.5976 1.54234Z" fill="#DAE2EB"/>
<path id="Vector_12" d="M10.3708 6.59379C10.9503 6.59909 11.6353 6.07769 11.4756 5.33419C11.2952 4.51351 11.2052 3.87507 10.5769 3.84184C9.99734 3.83654 9.9199 4.31404 9.54173 5.20654C9.29634 5.97934 9.71446 6.60979 10.3708 6.59379Z" fill="#DAE2EB"/>
<path id="Vector_13" d="M9.79634 3.39585C9.9435 3.02342 10.3348 2.79064 10.6838 2.85979C10.8095 2.86644 10.984 2.90102 11.0817 2.95688C11.8214 3.24948 12.2675 3.83071 12.0924 4.25235C11.9381 4.75114 11.1978 4.91477 10.5349 4.60089C10.3396 4.48916 10.2419 4.4333 10.0954 4.34951C9.78148 4.10479 9.64924 3.76828 9.79634 3.39585Z" fill="#989FB0"/>
<path id="Vector_14" d="M63.9845 28.1367L59.6622 55.5568C59.3037 55.7813 58.9452 55.9833 58.5871 56.1858C57.9598 56.5448 57.3106 56.8593 56.6384 57.1738C55.7653 57.5778 54.8692 57.9373 53.9731 58.2518C53.3688 58.4538 52.7415 58.6558 52.1147 58.8353C51.2635 59.0603 50.3675 59.2623 49.4941 59.4193C48.8894 59.5318 48.2847 59.6213 47.6799 59.6888C46.8289 59.7788 46.0002 59.8463 45.1268 59.8683C44.8132 59.8683 44.5221 59.8908 44.2086 59.8908C43.9174 59.8908 43.6262 59.8908 43.3351 59.8683C42.5512 59.8463 41.7897 59.8013 41.0282 59.7113C40.4236 59.6438 39.8188 59.5543 39.2141 59.4643C38.3183 59.3073 37.4448 59.1273 36.5937 58.9028C35.9667 58.7458 35.362 58.5438 34.7349 58.3413C33.8166 58.0273 32.9431 57.6903 32.0697 57.3083C31.4202 57.0163 30.7707 56.7023 30.1212 56.3653C29.6957 56.1408 29.2925 55.9163 28.8894 55.6693L24.4102 28.9227L29.4941 28.1592H63.9845V28.1367Z" fill="url(#paint0_linear_6167_27643)"/>
<path id="Vector_15" d="M32.1145 57.3075C31.465 57.0155 30.8156 56.7015 30.1661 56.3645L26.8738 31.6617C26.8066 31.1677 27.1426 30.7185 27.6353 30.6511C28.128 30.5838 28.5759 30.9206 28.6431 31.4147L32.1145 57.3075Z" fill="black"/>
<path id="Vector_16" d="M36.6162 58.9031C35.9891 58.7461 35.3844 58.5441 34.7573 58.3416L32.2714 31.6179C32.2265 31.1238 32.5849 30.6971 33.0776 30.6522C33.5703 30.6073 34.0183 30.9666 34.0407 31.4607L36.6162 58.9031Z" fill="black"/>
<path id="Vector_17" d="M41.0504 59.7107C40.4456 59.6432 39.8409 59.5537 39.2363 59.4637L37.8701 31.5945C37.8477 31.1004 38.2284 30.6738 38.7211 30.6513C39.2138 30.6288 39.6394 31.0106 39.6618 31.5047L41.0504 59.7107Z" fill="black"/>
<path id="Vector_18" d="M61.8795 31.6627L58.5874 56.186C57.9601 56.545 57.3109 56.8595 56.6387 57.174L60.1103 31.4381C60.1776 30.9441 60.6254 30.6072 61.118 30.6746C61.6107 30.7195 61.9468 31.1686 61.8795 31.6627Z" fill="black"/>
<path id="Vector_19" d="M56.459 31.6394L53.9952 58.2511C53.3908 58.4531 52.7635 58.6551 52.1367 58.8346L54.6898 31.4822C54.7347 30.9881 55.16 30.6288 55.6527 30.6737C56.1454 30.7186 56.5263 31.1453 56.459 31.6394Z" fill="black"/>
<path id="Vector_20" d="M50.8833 31.5945L49.5173 59.4187C48.9125 59.5312 48.3078 59.6207 47.7031 59.6882L49.0917 31.5047C49.1141 31.0106 49.5396 30.6288 50.0324 30.6513C50.5253 30.6738 50.9057 31.1004 50.8833 31.5945Z" fill="black"/>
<path id="Vector_21" d="M45.1491 31.5506V59.8687C44.8356 59.8687 44.5444 59.8912 44.2309 59.8912C43.9397 59.8912 43.6486 59.8912 43.3574 59.8687V31.5506C43.3574 31.0565 43.7605 30.6523 44.2532 30.6523C44.7684 30.6523 45.1491 31.0565 45.1491 31.5506Z" fill="black"/>
<path id="Vector_22" d="M63.4427 30.6055L62.8887 32.314L68.107 34.0147L68.661 32.3061L63.4427 30.6055Z" fill="#A9B3C4"/>
<path id="Vector_23" d="M25.0093 30.6094L19.791 32.3101L20.3449 34.0186L25.5631 32.3179L25.0093 30.6094Z" fill="#A9B3C4"/>
<path id="Vector_24" d="M32.1145 57.3075C31.465 57.0155 30.8156 56.7015 30.1661 56.3645L26.8738 31.6617C26.8066 31.1677 27.1426 30.7185 27.6353 30.6511C28.128 30.5838 28.5759 30.9206 28.6431 31.4147L32.1145 57.3075Z" fill="url(#paint1_linear_6167_27643)"/>
<path id="Vector_25" d="M36.6162 58.9031C35.9891 58.7461 35.3845 58.5441 34.7574 58.3416L32.2714 31.6179C32.2266 31.1238 32.5849 30.6971 33.0776 30.6522C33.5703 30.6073 34.0183 30.9666 34.0407 31.4607L36.6162 58.9031Z" fill="url(#paint2_linear_6167_27643)"/>
<path id="Vector_26" d="M41.0504 59.7107C40.4456 59.6432 39.841 59.5537 39.2363 59.4637L37.8701 31.5945C37.8477 31.1004 38.2284 30.6738 38.7212 30.6513C39.2139 30.6288 39.6394 31.0106 39.6618 31.5047L41.0504 59.7107Z" fill="url(#paint3_linear_6167_27643)"/>
<path id="Vector_27" d="M45.1492 31.5506V59.8687C44.8356 59.8687 44.5445 59.8912 44.2309 59.8912C43.9397 59.8912 43.6486 59.8912 43.3574 59.8687V31.5506C43.3574 31.0566 43.7606 30.6523 44.2533 30.6523C44.7684 30.6523 45.1492 31.0566 45.1492 31.5506Z" fill="url(#paint4_linear_6167_27643)"/>
<path id="Vector_28" d="M50.8832 31.5945L49.5172 59.4187C48.9125 59.5312 48.3078 59.6207 47.7031 59.6882L49.0917 31.5047C49.1141 31.0106 49.5396 30.6288 50.0324 30.6513C50.5252 30.6738 50.9056 31.1004 50.8832 31.5945Z" fill="url(#paint5_linear_6167_27643)"/>
<path id="Vector_29" d="M56.459 31.6394L53.9957 58.2512C53.3908 58.4532 52.7635 58.6552 52.1367 58.8347L54.6898 31.4822C54.7347 30.9881 55.16 30.6288 55.6527 30.6737C56.1454 30.7187 56.5263 31.1453 56.459 31.6394Z" fill="url(#paint6_linear_6167_27643)"/>
<path id="Vector_30" d="M61.8795 31.6627L58.5874 56.186C57.9601 56.545 57.3109 56.8595 56.6387 57.174L60.1103 31.4381C60.1776 30.9441 60.6254 30.6072 61.118 30.6746C61.6107 30.7195 61.9468 31.1686 61.8795 31.6627Z" fill="url(#paint7_linear_6167_27643)"/>
<g id="Group" filter="url(#filter0_d_6167_27643)">
<path id="Vector_31" d="M64.0731 28.9216H24.4314C24.0059 28.9216 23.6699 28.5848 23.6699 28.1581C23.6699 27.7314 24.0059 27.3945 24.4314 27.3945H64.0731C64.4985 27.3945 64.8346 27.7314 64.8346 28.1581C64.8346 28.5623 64.4985 28.9216 64.0731 28.9216Z" fill="url(#paint8_linear_6167_27643)"/>
</g>
<path id="Vector_32" d="M70.4663 16.5206C69.8958 16.3391 69.6854 15.7041 70.0304 14.9925C70.3755 14.2809 70.6423 13.7035 71.2556 13.8825C71.7837 14.0666 71.8246 14.7549 71.8709 15.5293C71.8874 16.5214 70.9514 16.7073 70.4663 16.5206Z" fill="#DAE2EB"/>
<path id="Vector_33" d="M69.9701 11.1091C69.4251 11.3578 69.1688 12.1072 69.6365 12.7267C70.1925 13.3841 70.5236 13.8823 71.109 13.588C71.6541 13.3393 71.497 12.8738 71.3544 11.9325C71.1819 11.2089 70.5152 10.8604 69.9701 11.1091Z" fill="#DAE2EB"/>
<path id="Vector_34" d="M71.3788 14.4794C71.2526 14.5302 71.1265 14.581 70.9978 14.5887C70.3161 14.7161 69.6973 14.4511 69.629 14.0234C69.5602 13.5958 70.0947 13.175 70.8218 13.0881C70.9908 13.0347 71.1624 13.0244 71.2935 13.0597C71.5967 13.0846 71.8694 13.3273 71.8899 13.6715C71.9537 14.013 71.7168 14.3727 71.3788 14.4794Z" fill="#989FB0"/>
<path id="Vector_35" d="M56.756 27.0177C56.3082 17.373 64.4745 14.2477 68.9798 13.9766" stroke="#C9D4E2" stroke-width="2" stroke-miterlimit="10" stroke-dasharray="4 4"/>
</g>
<defs>
<filter id="filter0_d_6167_27643" x="21.6699" y="27.3945" width="45.1641" height="5.52734" filterUnits="userSpaceOnUse" color-interpolation-filters="sRGB">
<feFlood flood-opacity="0" result="BackgroundImageFix"/>
<feColorMatrix in="SourceAlpha" type="matrix" values="0 0 0 0 0 0 0 0 0 0 0 0 0 0 0 0 0 0 127 0" result="hardAlpha"/>
<feOffset dy="2"/>
<feGaussianBlur stdDeviation="1"/>
<feColorMatrix type="matrix" values="0 0 0 0 0.397708 0 0 0 0 0.47749 0 0 0 0 0.575 0 0 0 0.15 0"/>
<feBlend mode="normal" in2="BackgroundImageFix" result="effect1_dropShadow_6167_27643"/>
<feBlend mode="normal" in="SourceGraphic" in2="effect1_dropShadow_6167_27643" result="shape"/>
</filter>
<linearGradient id="paint0_linear_6167_27643" x1="44.2005" y1="29.2398" x2="44.2005" y2="47.0632" gradientUnits="userSpaceOnUse">
<stop stop-color="#B0BACC"/>
<stop offset="1" stop-color="#969EAE"/>
</linearGradient>
<linearGradient id="paint1_linear_6167_27643" x1="48.6141" y1="48.8468" x2="49.8756" y2="31.4857" gradientUnits="userSpaceOnUse">
<stop offset="0.869792" stop-color="#7C869B"/>
<stop offset="1" stop-color="#747D8E"/>
</linearGradient>
<linearGradient id="paint2_linear_6167_27643" x1="48.6141" y1="48.8479" x2="49.8756" y2="31.4868" gradientUnits="userSpaceOnUse">
<stop offset="0.869792" stop-color="#7C869B"/>
<stop offset="1" stop-color="#747D8E"/>
</linearGradient>
<linearGradient id="paint3_linear_6167_27643" x1="48.6138" y1="48.847" x2="49.8752" y2="31.4859" gradientUnits="userSpaceOnUse">
<stop offset="0.869792" stop-color="#7C869B"/>
<stop offset="1" stop-color="#747D8E"/>
</linearGradient>
<linearGradient id="paint4_linear_6167_27643" x1="48.614" y1="48.848" x2="49.8755" y2="31.4869" gradientUnits="userSpaceOnUse">
<stop offset="0.869792" stop-color="#7C869B"/>
<stop offset="1" stop-color="#747D8E"/>
</linearGradient>
<linearGradient id="paint5_linear_6167_27643" x1="48.6148" y1="48.847" x2="49.8763" y2="31.4859" gradientUnits="userSpaceOnUse">
<stop offset="0.869792" stop-color="#7C869B"/>
<stop offset="1" stop-color="#747D8E"/>
</linearGradient>
<linearGradient id="paint6_linear_6167_27643" x1="48.6137" y1="48.8469" x2="49.8752" y2="31.4858" gradientUnits="userSpaceOnUse">
<stop offset="0.869792" stop-color="#7C869B"/>
<stop offset="1" stop-color="#747D8E"/>
</linearGradient>
<linearGradient id="paint7_linear_6167_27643" x1="48.6144" y1="48.8478" x2="49.8758" y2="31.4867" gradientUnits="userSpaceOnUse">
<stop offset="0.869792" stop-color="#7C869B"/>
<stop offset="1" stop-color="#747D8E"/>
</linearGradient>
<linearGradient id="paint8_linear_6167_27643" x1="44.2388" y1="27.3592" x2="44.2388" y2="28.9381" gradientUnits="userSpaceOnUse">
<stop stop-color="#CED8EA"/>
<stop offset="0.9964" stop-color="#ADB7C9"/>
</linearGradient>
<clipPath id="clip0_6167_27643">
<rect width="73.8" height="60" fill="white" transform="translate(0.599609)"/>
</clipPath>
</defs>
</svg>
