<svg width="18" height="17" viewBox="0 0 18 17" fill="none" xmlns="http://www.w3.org/2000/svg">
<g id="Group">
<path id="Vector" d="M10.2223 16.9662V15.9703H10.5358C10.8058 15.9703 11.0579 15.9507 11.2937 15.9132C11.5306 15.8741 11.7349 15.7942 11.9082 15.6753C12.0815 15.5563 12.2211 15.3835 12.326 15.1602C12.4303 14.9364 12.4819 14.6392 12.4819 14.2676V8.7101H4.76862V14.2676C4.76862 14.6386 4.82024 14.9353 4.92455 15.1608C5.02887 15.3835 5.16795 15.5568 5.34181 15.6753C5.51567 15.7953 5.72158 15.8736 5.96118 15.9132C6.20132 15.9513 6.45124 15.9708 6.7142 15.9708H7.02768V16.9667H0.125V15.9708H0.426534C0.696556 15.9708 0.94865 15.9513 1.18499 15.9132C1.4065 15.88 1.61808 15.7988 1.8049 15.6753C1.98202 15.5552 2.1211 15.3835 2.2227 15.1608C2.32267 14.9369 2.37211 14.6386 2.37211 14.2676V2.64084C2.37211 2.29367 2.31995 2.01441 2.21618 1.80144C2.12221 1.60194 1.97572 1.43178 1.7924 1.30921C1.60456 1.18947 1.39279 1.11233 1.17195 1.08319C0.92494 1.04726 0.675595 1.02983 0.425991 1.03103H0.125V0.0351562H7.02768V1.03103H6.7142C6.45178 1.03103 6.20186 1.05005 5.96118 1.08917C5.72212 1.1272 5.51621 1.20706 5.34181 1.32659C5.1685 1.44612 5.02941 1.6178 4.92455 1.84219C4.82024 2.06549 4.76862 2.36322 4.76862 2.73375V7.52733H12.4808V2.73375C12.4808 2.36267 12.4287 2.06549 12.3249 1.84164C12.2211 1.6178 12.0815 1.44557 11.9076 1.32659C11.7231 1.20267 11.5131 1.12155 11.2932 1.08917C11.0424 1.04903 10.7887 1.02959 10.5347 1.03103H10.2212V0.0351562H17.1239V1.03103H16.8235C16.5529 1.03103 16.3013 1.05005 16.065 1.08917C15.8292 1.1272 15.6238 1.20706 15.4451 1.32659C15.268 1.44612 15.1289 1.6178 15.0278 1.84164C14.9268 2.06494 14.8773 2.36267 14.8773 2.73375V14.3833C14.8773 14.731 14.93 15.0108 15.0333 15.2227C15.1376 15.4357 15.2794 15.5959 15.4565 15.703C15.6336 15.8116 15.8395 15.8828 16.0764 15.9181C16.3122 15.9529 16.5611 15.9703 16.8224 15.9703H17.1245V16.9662H10.2223Z" fill="#7209B7"/>
</g>
</svg>
