<svg width="439" height="373" viewBox="0 0 439 373" fill="none" xmlns="http://www.w3.org/2000/svg">
<path d="M224.724 298.777C292.964 298.777 348.423 243.319 348.423 175.08C348.423 106.842 292.964 51.3828 224.724 51.3828C156.23 51.3828 101.026 106.587 101.026 175.08C101.026 243.319 156.23 298.777 224.724 298.777Z" fill="#EAEEF9"/>
<path d="M146.89 141.266H296.417C302.015 141.266 307.056 146.026 307.056 151.906V246.27C307.056 251.87 302.296 256.91 296.417 256.91H146.89C141.29 256.91 136.25 252.15 136.25 246.27V151.906C136.25 146.026 141.29 141.266 146.89 141.266Z" fill="url(#paint0_linear_7682_27390)"/>
<path d="M368.613 144.16C372.448 140.582 372.704 134.704 369.126 130.87C365.548 127.037 359.669 126.781 355.834 130.359C352.002 133.937 351.746 139.815 355.324 143.649C358.646 147.227 364.781 147.738 368.613 144.16Z" fill="#EAEEF9"/>
<path d="M369.122 101.987C370.656 100.453 370.913 97.8974 369.379 96.364C367.845 94.8304 365.29 94.575 363.756 96.1083C362.223 97.6419 361.966 100.198 363.5 101.731C365.034 103.52 367.591 103.52 369.122 101.987Z" fill="#EAEEF9"/>
<path d="M268.684 43.9744C269.705 42.952 269.962 41.1629 268.938 40.1408C267.917 39.1184 266.127 38.8629 265.106 39.8851C264.083 40.9075 263.828 42.6965 264.85 43.7186C265.873 44.741 267.661 44.9965 268.684 43.9744Z" fill="#EAEEF9"/>
<g filter="url(#filter0_d_7682_27390)">
<path d="M361.378 91.4198L324.137 157.782C322.736 160.022 319.938 160.863 317.976 159.462L254.134 122.221C251.894 120.821 251.054 118.021 252.454 116.061L301.455 31.4974C302.856 29.2572 305.657 28.4173 307.617 29.8173L353.817 56.6984L361.378 91.4198Z" fill="#F2F6FA"/>
</g>
<path d="M353.818 56.7031L343.179 74.6238C341.778 77.4239 342.619 80.224 345.139 81.9041L361.099 91.1445" fill="#D5DAE6"/>
<path d="M309.857 74.0571C310.976 73.7773 312.097 73.7773 312.938 73.7773C314.057 73.7773 315.178 73.7773 316.297 73.7773C317.418 74.0571 318.817 74.3372 319.938 74.6173C321.337 75.1774 322.459 75.7372 323.577 76.2974C325.257 77.1373 326.658 78.2575 327.777 79.6576C328.898 80.7775 329.739 82.1776 330.297 83.8577C330.858 85.2577 330.858 86.9378 330.858 88.3379C330.578 90.018 330.017 91.6981 329.179 93.0981C328.338 94.4981 327.497 95.6181 326.378 96.7381C325.257 97.5783 324.418 98.1381 323.017 98.6983C321.898 99.2581 320.777 99.5382 319.658 99.5382L316.577 99.8182C315.736 99.8182 314.898 100.098 313.777 100.378C312.938 100.658 312.378 100.938 311.817 101.498L308.736 105.418L303.698 102.618L305.938 97.5783C306.216 96.7381 307.057 95.8982 307.617 95.3381C308.458 94.7779 309.297 94.4981 310.138 94.2181C311.256 93.938 312.097 93.938 313.219 93.658C314.337 93.658 315.458 93.3779 316.577 93.0981C317.698 92.818 318.537 92.538 319.658 91.9779C320.777 91.418 321.337 90.5778 321.898 89.4578C322.178 88.8977 322.459 88.0578 322.736 87.2179C322.736 86.3777 322.736 85.8176 322.459 85.2577C322.178 84.4175 321.898 83.8577 321.337 83.2976C320.777 82.7377 320.219 82.1776 319.378 81.6175C318.537 81.0576 317.418 80.4975 316.297 80.2174C315.458 79.9374 314.618 79.9374 313.777 79.9374C312.938 79.9374 312.378 79.9374 311.817 79.9374C311.537 79.9374 310.976 79.9374 310.698 79.6576C310.138 79.3775 309.577 78.5373 309.577 77.9775L309.857 74.0571ZM295.577 111.019C295.857 110.459 296.418 109.899 296.976 109.339C297.536 109.059 298.097 108.499 298.657 108.499C300.056 108.218 301.458 108.218 302.577 109.059C303.137 109.339 303.698 109.899 304.256 110.459C304.536 111.019 304.817 111.579 305.097 112.139C305.938 114.939 304.256 117.459 301.458 118.299C300.056 118.579 298.658 118.299 297.536 117.739C296.976 117.459 296.418 116.899 295.857 116.339C295.577 115.779 295.016 115.219 295.016 114.659C294.736 114.099 294.736 113.259 295.016 112.699C295.016 112.139 295.296 111.579 295.577 111.019Z" fill="#CED6E2"/>
<g filter="url(#filter1_d_7682_27390)">
<path d="M121.969 62.5863L164.531 107.108C165.931 108.788 165.931 111.028 164.251 112.428L120.849 153.59C119.169 154.99 116.929 154.99 115.529 153.31L61.2069 95.9075C59.8068 94.2277 59.8068 91.9875 61.4869 90.5874L93.128 60.9062L121.969 62.5863Z" fill="#F2F6FA"/>
</g>
<path d="M92.8496 60.3398L104.61 72.6604C106.29 74.3402 109.09 74.3402 110.77 72.6604L121.691 62.3" fill="#D5DAE6"/>
<path d="M96.209 98.7062C96.209 97.866 96.489 97.0261 96.7691 96.1859C97.0492 95.346 97.3292 94.5058 97.609 93.6659C97.8891 92.8259 98.4492 91.9858 99.0093 91.1458C99.5692 90.3057 100.409 89.4657 101.249 88.6256C102.369 87.5056 103.489 86.6657 104.89 86.1055C106.01 85.5454 107.41 85.2656 108.53 85.2656C109.65 85.2656 111.05 85.5454 112.17 85.8255C113.29 86.3856 114.41 87.2255 115.53 88.0657C116.37 88.9056 117.21 90.0256 117.49 91.1458C117.77 91.9858 118.05 93.1057 118.33 94.226C118.33 95.0659 118.33 96.1859 118.33 97.0261C118.05 97.866 118.05 98.7062 117.77 99.5461C117.77 100.386 117.49 100.946 117.49 101.786C117.49 102.346 117.49 102.906 118.05 103.466L120.29 106.826L116.93 109.906L113.57 106.826C113.01 106.266 112.45 105.706 112.17 104.866C111.89 104.026 111.89 103.466 111.89 102.626C111.89 101.786 112.17 100.946 112.17 100.106C112.45 99.266 112.45 98.4261 112.45 97.5859C112.45 96.746 112.45 95.9061 112.17 95.0659C111.89 94.226 111.33 93.3858 110.77 92.5459C110.49 91.9858 109.93 91.7057 109.37 91.4259C108.81 91.1458 108.249 91.1458 107.69 91.1458C107.13 91.1458 106.569 91.4259 106.01 91.7057C105.449 91.9858 104.89 92.2658 104.329 92.8259C103.769 93.3858 103.209 94.226 102.649 94.7858C102.369 95.346 102.089 95.9058 101.809 96.746C101.529 97.3061 101.529 97.866 101.529 98.146C101.529 98.4261 101.249 98.7062 100.969 98.986C100.689 99.5461 99.8492 99.5461 99.2891 99.266L96.209 98.7062ZM121.97 118.307C121.69 118.027 121.41 117.467 121.13 116.907C120.85 116.347 120.85 115.787 120.85 115.227C120.85 114.107 121.41 112.987 122.25 112.147C122.53 111.867 123.09 111.587 123.65 111.307C124.21 111.026 124.77 111.026 125.33 111.026C127.01 111.026 128.69 112.147 129.25 113.827C129.53 114.387 129.53 114.947 129.53 115.507C129.53 116.067 129.25 116.627 129.25 117.187C128.97 117.747 128.69 118.027 128.13 118.587C127.85 118.867 127.29 119.427 126.73 119.427C125.61 119.707 124.49 119.707 123.65 119.427C122.81 119.147 122.25 118.867 121.97 118.307Z" fill="#CED6E2"/>
<g filter="url(#filter2_d_7682_27390)">
<path d="M233.135 132.585L216.615 191.668C216.055 193.628 213.815 195.028 211.855 194.188L154.452 177.387C152.492 176.827 151.092 174.587 151.932 172.627L174.333 96.4642C174.893 94.5041 177.133 93.104 179.093 93.944L220.815 106.265L233.135 132.585Z" fill="#F2F6FA"/>
</g>
<path d="M220.819 106.371L215.494 123.068C214.934 125.308 216.334 127.828 218.574 128.388L233.342 132.561" fill="#D5DAE6"/>
<path d="M189.172 128.947C190.012 128.667 190.852 128.387 191.692 128.107C192.532 127.827 193.372 127.547 194.492 127.547C195.612 127.547 196.452 127.547 197.572 127.547C198.692 127.547 199.812 127.827 200.932 128.107C202.332 128.387 203.732 129.227 204.852 130.067C205.972 130.907 206.812 131.747 207.652 132.867C208.213 133.987 208.772 135.107 209.052 136.227C209.333 137.627 209.052 139.027 208.772 140.147C208.492 141.267 207.933 142.387 207.092 143.507C206.532 144.348 205.692 145.188 204.852 145.748C204.012 146.308 203.172 146.868 202.332 147.148L199.812 147.988C199.252 148.268 198.412 148.548 197.852 148.828C197.292 149.108 196.732 149.668 196.732 150.228L195.052 153.868L190.572 151.908L191.412 147.428C191.412 146.588 191.972 146.028 192.532 145.468C193.092 144.907 193.652 144.348 194.492 144.068C195.332 143.788 196.172 143.507 196.732 143.228C197.572 142.948 198.412 142.668 199.252 142.107C200.092 141.827 200.652 141.267 201.492 140.707C202.052 140.147 202.612 139.307 202.892 138.187C202.892 137.907 202.892 137.347 202.892 136.787C202.892 136.227 202.612 135.667 202.332 135.107C202.052 134.547 201.492 134.267 200.932 133.707C200.372 133.427 199.812 133.147 198.972 132.867C198.132 132.587 197.292 132.587 196.172 132.587C195.612 132.587 194.772 132.587 194.212 132.867C193.652 132.867 193.092 133.147 192.812 133.147C192.532 133.147 192.252 133.427 191.692 133.147C191.132 133.147 190.572 132.587 190.572 132.027L189.172 128.947ZM184.971 161.148C185.252 160.588 185.252 160.028 185.812 159.748C186.091 159.188 186.652 158.908 186.932 158.628C188.052 158.068 189.172 158.068 190.012 158.348C190.572 158.628 191.132 158.908 191.412 159.188C191.692 159.468 192.252 160.028 192.532 160.308C193.652 162.268 192.812 164.788 190.852 165.628C189.732 166.188 188.612 166.188 187.772 165.908C187.212 165.628 186.652 165.628 186.372 165.068C185.812 164.788 185.532 164.228 185.252 163.948C184.971 163.388 184.971 163.108 184.691 162.548C184.971 162.268 184.971 161.708 184.971 161.148Z" fill="#CED6E2"/>
<g filter="url(#filter3_d_7682_27390)">
<path d="M368.099 233.673L313.777 263.074C312.098 263.914 309.578 263.354 308.737 261.394L281.577 208.472C280.736 206.792 281.296 204.272 283.256 203.432L353.819 166.19C355.501 165.351 358.021 165.911 358.859 167.871L378.461 206.232L368.099 233.673Z" fill="#F2F6FA"/>
</g>
<path d="M378.18 206.793L363.059 214.633C361.099 215.753 360.261 218.553 361.099 220.513L367.819 233.954" fill="#D5DAE6"/>
<path d="M340.659 199.508C341.5 199.788 342.058 200.348 342.899 200.628C343.74 200.908 344.298 201.468 345.138 202.308C345.979 203.148 346.537 203.708 347.098 204.548C347.939 205.388 348.5 206.228 349.058 207.348C349.899 208.468 350.179 210.148 350.179 211.268C350.459 212.668 350.179 213.789 350.179 215.189C349.899 216.309 349.338 217.429 348.777 218.549C347.939 219.669 346.818 220.509 345.699 221.069C344.858 221.629 343.459 221.909 342.338 222.189C341.5 222.469 340.098 222.469 339.257 222.189C338.419 221.909 337.297 221.909 336.459 221.349L334.219 220.229C333.658 219.949 332.817 219.669 332.257 219.389C331.699 219.109 330.858 219.109 330.577 219.669L326.939 221.069L324.979 216.869L328.618 214.348C329.178 213.789 330.017 213.789 330.858 213.789C331.699 213.789 332.257 213.789 333.098 214.068C333.939 214.348 334.497 214.909 335.057 215.189C335.898 215.469 336.459 216.028 337.578 216.309C338.419 216.589 338.979 216.589 340.098 216.869C340.939 216.869 341.777 216.589 342.899 216.028C343.74 215.469 344.858 214.628 344.858 213.228C345.138 212.668 344.858 212.108 344.858 211.268C344.578 210.708 344.578 210.148 344.017 209.308C343.74 208.468 343.179 207.908 342.618 207.068C342.338 206.788 341.777 206.228 341.219 205.948C340.939 205.668 340.378 205.388 340.098 205.108C339.818 204.828 339.537 204.828 339.257 204.268C338.979 203.988 338.979 203.148 339.257 202.868L340.659 199.508ZM314.617 218.829C315.178 218.549 315.458 218.269 316.297 218.549C316.857 218.269 317.418 218.549 317.698 218.549C318.817 218.829 319.658 219.669 319.938 220.509C320.219 221.069 320.219 221.629 320.219 222.189C320.219 222.469 320.219 223.309 320.219 223.589C319.938 224.429 319.097 225.549 318.256 225.829C317.698 226.109 317.138 226.109 316.577 226.109C316.297 226.109 315.458 226.109 315.178 226.109C314.057 225.829 313.218 224.989 312.938 224.149C312.658 223.589 312.658 223.029 312.658 222.469C312.377 221.909 312.658 221.349 312.658 221.069C312.938 220.509 313.218 220.229 313.218 219.669C313.496 219.389 314.337 219.389 314.617 218.829Z" fill="#CED6E2"/>
<path d="M309.857 202.026V248.507C309.857 254.388 304.816 259.428 298.938 259.428H145.211C139.33 259.428 134.29 254.388 134.29 248.507V198.105" stroke="#1676EE" stroke-width="7.93373" stroke-linecap="round" stroke-linejoin="round"/>
<path d="M303.977 172.062H251.337C246.296 172.062 241.256 173.743 237.336 177.103L223.336 188.303C219.415 191.383 214.375 193.343 209.335 193.343H149.412C143.532 193.343 138.492 198.103 138.492 204.264C138.492 204.824 138.492 205.384 138.772 205.944L149.693 263.346C150.533 268.666 155.293 272.866 160.613 272.866H288.578C294.179 272.866 298.659 268.947 299.498 263.626L314.9 184.663C315.738 178.783 311.819 173.182 305.659 172.342C305.099 172.062 304.538 172.062 303.977 172.062Z" fill="white"/>
<g filter="url(#filter4_d_7682_27390)">
<path d="M318.537 161.711H255.816C249.936 161.711 243.775 163.951 239.295 167.591L222.494 181.312C217.734 185.232 211.854 187.192 205.974 187.192H134.011C127.011 187.192 120.851 192.792 120.851 200.352C120.851 200.912 120.851 201.752 121.13 202.313L134.291 272.036C135.411 278.476 140.731 283.516 147.452 283.516H300.057C306.497 283.516 312.098 278.756 313.219 272.316L331.419 176.832C332.538 169.831 327.777 162.831 320.5 161.711C319.939 161.711 319.098 161.711 318.537 161.711Z" fill="url(#paint1_linear_7682_27390)"/>
</g>
<path d="M197.574 235.066C201.214 235.066 204.294 231.985 204.294 228.345C204.294 224.705 201.214 221.625 197.574 221.625C193.934 221.625 190.854 224.705 190.854 228.345C190.854 231.985 193.934 235.066 197.574 235.066Z" fill="#989FB0"/>
<path d="M249.936 233.952C253.576 233.952 256.656 230.872 256.656 227.232C256.656 223.592 253.576 220.512 249.936 220.512C246.296 220.512 243.216 223.592 243.216 227.232C243.216 230.872 246.296 233.952 249.936 233.952Z" fill="#989FB0"/>
<path d="M237.893 245.143H234.253C231.172 238.982 223.612 236.462 217.732 239.823C215.212 240.943 213.252 243.183 212.412 245.143H208.771C211.852 237.023 221.092 232.822 228.932 235.902C233.133 237.582 236.213 240.943 237.893 245.143Z" fill="#989FB0"/>
<path d="M344.018 306.193C340.94 306.193 342.059 306.474 318.257 282.672C295.297 299.754 263.376 283.233 263.376 255.232C263.376 236.471 278.776 221.07 297.537 221.07C324.7 221.07 341.498 251.591 325.538 274.831L347.66 296.953C351.299 300.314 349.059 306.193 344.018 306.193ZM297.817 231.991C284.936 231.991 274.297 242.351 274.297 255.511C274.297 268.672 284.658 279.033 297.817 279.033C299.216 279.033 300.618 279.033 302.017 278.753C303.419 278.473 304.818 278.192 305.939 277.632C307.338 277.071 308.457 276.513 309.578 275.952C310.977 275.111 312.098 274.273 313.217 273.152C314.058 272.314 315.179 271.192 316.017 270.351C316.858 269.233 317.699 268.111 318.257 266.993C318.818 265.871 319.379 264.472 319.939 263.072C320.497 261.672 320.778 260.272 320.778 258.872C320.778 257.752 321.058 256.912 321.058 255.792C321.338 242.351 310.696 231.991 297.817 231.991Z" fill="#989FB0"/>
<path d="M181.053 216.866L196.173 208.746" stroke="#989FB0" stroke-width="3.96687" stroke-miterlimit="10"/>
<path d="M263.096 212.951L247.976 204.551" stroke="#989FB0" stroke-width="3.96687" stroke-miterlimit="10"/>
<defs>
<filter id="filter0_d_7682_27390" x="193.589" y="0.0424519" width="225.97" height="247.377" filterUnits="userSpaceOnUse" color-interpolation-filters="sRGB">
<feFlood flood-opacity="0" result="BackgroundImageFix"/>
<feColorMatrix in="SourceAlpha" type="matrix" values="0 0 0 0 0 0 0 0 0 0 0 0 0 0 0 0 0 0 127 0" result="hardAlpha"/>
<feOffset dy="29.0904"/>
<feGaussianBlur stdDeviation="29.0904"/>
<feColorMatrix type="matrix" values="0 0 0 0 0.397708 0 0 0 0 0.47749 0 0 0 0 0.575 0 0 0 0.27 0"/>
<feBlend mode="normal" in2="BackgroundImageFix" result="effect1_dropShadow_7682_27390"/>
<feBlend mode="normal" in="SourceGraphic" in2="effect1_dropShadow_7682_27390" result="shape"/>
</filter>
<filter id="filter1_d_7682_27390" x="2.00873" y="31.8159" width="221.72" height="210.061" filterUnits="userSpaceOnUse" color-interpolation-filters="sRGB">
<feFlood flood-opacity="0" result="BackgroundImageFix"/>
<feColorMatrix in="SourceAlpha" type="matrix" values="0 0 0 0 0 0 0 0 0 0 0 0 0 0 0 0 0 0 127 0" result="hardAlpha"/>
<feOffset dy="29.0904"/>
<feGaussianBlur stdDeviation="29.0904"/>
<feColorMatrix type="matrix" values="0 0 0 0 0.397708 0 0 0 0 0.47749 0 0 0 0 0.575 0 0 0 0.27 0"/>
<feBlend mode="normal" in2="BackgroundImageFix" result="effect1_dropShadow_7682_27390"/>
<feBlend mode="normal" in="SourceGraphic" in2="effect1_dropShadow_7682_27390" result="shape"/>
</filter>
<filter id="filter2_d_7682_27390" x="93.5029" y="64.605" width="197.814" height="217.104" filterUnits="userSpaceOnUse" color-interpolation-filters="sRGB">
<feFlood flood-opacity="0" result="BackgroundImageFix"/>
<feColorMatrix in="SourceAlpha" type="matrix" values="0 0 0 0 0 0 0 0 0 0 0 0 0 0 0 0 0 0 127 0" result="hardAlpha"/>
<feOffset dy="29.0904"/>
<feGaussianBlur stdDeviation="29.0904"/>
<feColorMatrix type="matrix" values="0 0 0 0 0.397708 0 0 0 0 0.47749 0 0 0 0 0.575 0 0 0 0.27 0"/>
<feBlend mode="normal" in2="BackgroundImageFix" result="effect1_dropShadow_7682_27390"/>
<feBlend mode="normal" in="SourceGraphic" in2="effect1_dropShadow_7682_27390" result="shape"/>
</filter>
<filter id="filter3_d_7682_27390" x="223.018" y="136.722" width="213.624" height="214.002" filterUnits="userSpaceOnUse" color-interpolation-filters="sRGB">
<feFlood flood-opacity="0" result="BackgroundImageFix"/>
<feColorMatrix in="SourceAlpha" type="matrix" values="0 0 0 0 0 0 0 0 0 0 0 0 0 0 0 0 0 0 127 0" result="hardAlpha"/>
<feOffset dy="29.0904"/>
<feGaussianBlur stdDeviation="29.0904"/>
<feColorMatrix type="matrix" values="0 0 0 0 0.397708 0 0 0 0 0.47749 0 0 0 0 0.575 0 0 0 0.27 0"/>
<feBlend mode="normal" in2="BackgroundImageFix" result="effect1_dropShadow_7682_27390"/>
<feBlend mode="normal" in="SourceGraphic" in2="effect1_dropShadow_7682_27390" result="shape"/>
</filter>
<filter id="filter4_d_7682_27390" x="62.6699" y="132.621" width="327.093" height="238.166" filterUnits="userSpaceOnUse" color-interpolation-filters="sRGB">
<feFlood flood-opacity="0" result="BackgroundImageFix"/>
<feColorMatrix in="SourceAlpha" type="matrix" values="0 0 0 0 0 0 0 0 0 0 0 0 0 0 0 0 0 0 127 0" result="hardAlpha"/>
<feOffset dy="29.0904"/>
<feGaussianBlur stdDeviation="29.0904"/>
<feColorMatrix type="matrix" values="0 0 0 0 0.397708 0 0 0 0 0.47749 0 0 0 0 0.575 0 0 0 0.27 0"/>
<feBlend mode="normal" in2="BackgroundImageFix" result="effect1_dropShadow_7682_27390"/>
<feBlend mode="normal" in="SourceGraphic" in2="effect1_dropShadow_7682_27390" result="shape"/>
</filter>
<linearGradient id="paint0_linear_7682_27390" x1="221.653" y1="149.768" x2="221.653" y2="193.482" gradientUnits="userSpaceOnUse">
<stop stop-color="#B0BACC"/>
<stop offset="1" stop-color="#969EAE"/>
</linearGradient>
<linearGradient id="paint1_linear_7682_27390" x1="226.147" y1="158.893" x2="226.147" y2="284.828" gradientUnits="userSpaceOnUse">
<stop stop-color="#FDFEFF"/>
<stop offset="0.9964" stop-color="#ECF0F5"/>
</linearGradient>
</defs>
</svg>
