<svg width="145" height="40" viewBox="0 0 145 40" fill="none" xmlns="http://www.w3.org/2000/svg">
<rect x="5.95898" width="14.7928" height="14.7928" rx="7.39639" fill="url(#paint0_linear_6590_3040)"/>
<rect x="24.918" width="14.7928" height="14.7928" rx="7.39639" fill="url(#paint1_linear_6590_3040)"/>
<path d="M0.0078125 16.9182H9.74213C16.9964 16.9182 22.8771 22.7989 22.8771 30.0532V39.9575C10.2467 39.9575 0.0078125 29.5486 0.0078125 16.9182Z" fill="url(#paint2_linear_6590_3040)"/>
<path d="M45.7803 16.9182H36.046C28.7917 16.9182 22.911 22.7989 22.911 30.0532V39.9575C35.5413 39.9575 45.7803 29.5486 45.7803 16.9182Z" fill="url(#paint3_linear_6590_3040)"/>
<path d="M22.9114 33.5388V40C22.9114 39.898 22.9114 39.8045 22.9114 39.7025C22.7499 32.5867 17.0963 28.948 9.77645 27.8003C2.45657 26.6525 1.19834 24.2721 1.19834 24.2721C0.518217 22.2317 -0.07689 19.1711 0.00812101 16.9182C0.00812101 16.9182 3.43425 20.1913 9.77645 21.339C16.1186 22.4868 22.9114 26.2785 22.9114 33.5388Z" fill="url(#paint4_linear_6590_3040)"/>
<path d="M22.8777 33.5388V40C22.8777 39.898 22.8777 39.8045 22.8777 39.7025C23.0392 32.5867 28.6927 28.948 36.0126 27.8003C43.3325 26.6525 44.5907 24.2721 44.5907 24.2721C45.2708 22.2317 45.866 19.1711 45.7809 16.9182C45.7809 16.9182 42.3548 20.1913 36.0126 21.339C29.6704 22.4868 22.8777 26.2785 22.8777 33.5388Z" fill="url(#paint5_linear_6590_3040)"/>
<path d="M63.8811 7.252C63.8811 7.77467 63.7551 8.26467 63.5031 8.722C63.2604 9.17933 62.8731 9.548 62.3411 9.828C61.8184 10.108 61.1557 10.248 60.3531 10.248H58.7151V14H56.7551V4.228H60.3531C61.1091 4.228 61.7531 4.35867 62.2851 4.62C62.8171 4.88133 63.2137 5.24067 63.4751 5.698C63.7457 6.15533 63.8811 6.67333 63.8811 7.252ZM60.2691 8.666C60.8104 8.666 61.2117 8.54467 61.4731 8.302C61.7344 8.05 61.8651 7.7 61.8651 7.252C61.8651 6.3 61.3331 5.824 60.2691 5.824H58.7151V8.666H60.2691ZM72.5946 6.244V14H70.6206V13.02C70.3686 13.356 70.0373 13.622 69.6266 13.818C69.2253 14.0047 68.7866 14.098 68.3106 14.098C67.704 14.098 67.1673 13.972 66.7006 13.72C66.234 13.4587 65.8653 13.0807 65.5946 12.586C65.3333 12.082 65.2026 11.4847 65.2026 10.794V6.244H67.1626V10.514C67.1626 11.13 67.3166 11.606 67.6246 11.942C67.9326 12.2687 68.3526 12.432 68.8846 12.432C69.426 12.432 69.8506 12.2687 70.1586 11.942C70.4666 11.606 70.6206 11.13 70.6206 10.514V6.244H72.5946ZM76.4885 7.448C76.7405 7.03733 77.0672 6.71533 77.4685 6.482C77.8792 6.24867 78.3458 6.132 78.8685 6.132V8.19H78.3505C77.7345 8.19 77.2678 8.33467 76.9505 8.624C76.6425 8.91333 76.4885 9.41733 76.4885 10.136V14H74.5285V6.244H76.4885V7.448ZM87.3987 9.954C87.3987 10.234 87.38 10.486 87.3427 10.71H81.6727C81.7193 11.27 81.9153 11.7087 82.2607 12.026C82.606 12.3433 83.0307 12.502 83.5347 12.502C84.2627 12.502 84.7807 12.1893 85.0887 11.564H87.2027C86.9787 12.3107 86.5493 12.9267 85.9147 13.412C85.28 13.888 84.5007 14.126 83.5767 14.126C82.83 14.126 82.158 13.9627 81.5607 13.636C80.9727 13.3 80.5107 12.8287 80.1747 12.222C79.848 11.6153 79.6847 10.9153 79.6847 10.122C79.6847 9.31933 79.848 8.61467 80.1747 8.008C80.5013 7.40133 80.9587 6.93467 81.5467 6.608C82.1347 6.28133 82.8113 6.118 83.5767 6.118C84.314 6.118 84.972 6.27667 85.5507 6.594C86.1387 6.91133 86.5913 7.364 86.9087 7.952C87.2353 8.53067 87.3987 9.198 87.3987 9.954ZM85.3687 9.394C85.3593 8.89 85.1773 8.48867 84.8227 8.19C84.468 7.882 84.034 7.728 83.5207 7.728C83.0353 7.728 82.6247 7.87733 82.2887 8.176C81.962 8.46533 81.7613 8.87133 81.6867 9.394H85.3687ZM91.6892 9.1C91.6892 8.13867 91.9039 7.28 92.3332 6.524C92.7719 5.75867 93.3646 5.166 94.1112 4.746C94.8672 4.31667 95.7119 4.102 96.6452 4.102C97.7372 4.102 98.6939 4.382 99.5152 4.942C100.337 5.502 100.911 6.27667 101.237 7.266H98.9832C98.7592 6.79933 98.4419 6.44933 98.0312 6.216C97.6299 5.98267 97.1632 5.866 96.6312 5.866C96.0619 5.866 95.5532 6.00133 95.1052 6.272C94.6666 6.53333 94.3212 6.90667 94.0692 7.392C93.8266 7.87733 93.7052 8.44667 93.7052 9.1C93.7052 9.744 93.8266 10.3133 94.0692 10.808C94.3212 11.2933 94.6666 11.6713 95.1052 11.942C95.5532 12.2033 96.0619 12.334 96.6312 12.334C97.1632 12.334 97.6299 12.2173 98.0312 11.984C98.4419 11.7413 98.7592 11.3867 98.9832 10.92H101.237C100.911 11.9187 100.337 12.698 99.5152 13.258C98.7032 13.8087 97.7466 14.084 96.6452 14.084C95.7119 14.084 94.8672 13.874 94.1112 13.454C93.3646 13.0247 92.7719 12.432 92.3332 11.676C91.9039 10.92 91.6892 10.0613 91.6892 9.1ZM107.279 6.132C107.867 6.132 108.39 6.26267 108.847 6.524C109.305 6.776 109.659 7.154 109.911 7.658C110.173 8.15267 110.303 8.75 110.303 9.45V14H108.343V9.716C108.343 9.1 108.189 8.62867 107.881 8.302C107.573 7.966 107.153 7.798 106.621 7.798C106.08 7.798 105.651 7.966 105.333 8.302C105.025 8.62867 104.871 9.1 104.871 9.716V14H102.911V3.64H104.871V7.21C105.123 6.874 105.459 6.61267 105.879 6.426C106.299 6.23 106.766 6.132 107.279 6.132ZM111.663 10.094C111.663 9.31 111.817 8.61467 112.125 8.008C112.443 7.40133 112.867 6.93467 113.399 6.608C113.941 6.28133 114.543 6.118 115.205 6.118C115.784 6.118 116.288 6.23467 116.717 6.468C117.156 6.70133 117.506 6.99533 117.767 7.35V6.244H119.741V14H117.767V12.866C117.515 13.23 117.165 13.5333 116.717 13.776C116.279 14.0093 115.77 14.126 115.191 14.126C114.538 14.126 113.941 13.958 113.399 13.622C112.867 13.286 112.443 12.8147 112.125 12.208C111.817 11.592 111.663 10.8873 111.663 10.094ZM117.767 10.122C117.767 9.646 117.674 9.24 117.487 8.904C117.301 8.55867 117.049 8.29733 116.731 8.12C116.414 7.93333 116.073 7.84 115.709 7.84C115.345 7.84 115.009 7.92867 114.701 8.106C114.393 8.28333 114.141 8.54467 113.945 8.89C113.759 9.226 113.665 9.62733 113.665 10.094C113.665 10.5607 113.759 10.9713 113.945 11.326C114.141 11.6713 114.393 11.9373 114.701 12.124C115.019 12.3107 115.355 12.404 115.709 12.404C116.073 12.404 116.414 12.3153 116.731 12.138C117.049 11.9513 117.301 11.69 117.487 11.354C117.674 11.0087 117.767 10.598 117.767 10.122ZM123.615 7.448C123.867 7.03733 124.194 6.71533 124.595 6.482C125.006 6.24867 125.473 6.132 125.995 6.132V8.19H125.477C124.861 8.19 124.395 8.33467 124.077 8.624C123.769 8.91333 123.615 9.41733 123.615 10.136V14H121.655V6.244H123.615V7.448ZM128.31 5.32C127.964 5.32 127.675 5.21267 127.442 4.998C127.218 4.774 127.106 4.49867 127.106 4.172C127.106 3.84533 127.218 3.57467 127.442 3.36C127.675 3.136 127.964 3.024 128.31 3.024C128.655 3.024 128.94 3.136 129.164 3.36C129.397 3.57467 129.514 3.84533 129.514 4.172C129.514 4.49867 129.397 4.774 129.164 4.998C128.94 5.21267 128.655 5.32 128.31 5.32ZM129.276 6.244V14H127.316V6.244H129.276ZM133.494 7.854V11.606C133.494 11.8673 133.555 12.0587 133.676 12.18C133.807 12.292 134.021 12.348 134.32 12.348H135.23V14H133.998C132.346 14 131.52 13.1973 131.52 11.592V7.854H130.596V6.244H131.52V4.326H133.494V6.244H135.23V7.854H133.494ZM144.06 6.244L139.258 17.668H137.172L138.852 13.804L135.744 6.244H137.942L139.944 11.662L141.974 6.244H144.06Z" fill="#292D32"/>
<path d="M61.8611 24.636V25.524H59.5811V33H58.4891V25.524H56.1971V24.636H61.8611ZM64.2973 27.492C64.4893 27.116 64.7613 26.824 65.1133 26.616C65.4733 26.408 65.9093 26.304 66.4213 26.304V27.432H66.1333C64.9093 27.432 64.2973 28.096 64.2973 29.424V33H63.2053V26.424H64.2973V27.492ZM73.5138 26.424V33H72.4218V32.028C72.2138 32.364 71.9218 32.628 71.5458 32.82C71.1778 33.004 70.7698 33.096 70.3218 33.096C69.8098 33.096 69.3498 32.992 68.9418 32.784C68.5338 32.568 68.2098 32.248 67.9698 31.824C67.7378 31.4 67.6218 30.884 67.6218 30.276V26.424H68.7018V30.132C68.7018 30.78 68.8658 31.28 69.1938 31.632C69.5218 31.976 69.9698 32.148 70.5378 32.148C71.1218 32.148 71.5818 31.968 71.9178 31.608C72.2538 31.248 72.4218 30.724 72.4218 30.036V26.424H73.5138ZM77.6856 33.108C77.1816 33.108 76.7296 33.024 76.3296 32.856C75.9296 32.68 75.6136 32.44 75.3816 32.136C75.1496 31.824 75.0216 31.468 74.9976 31.068H76.1256C76.1576 31.396 76.3096 31.664 76.5816 31.872C76.8616 32.08 77.2256 32.184 77.6736 32.184C78.0896 32.184 78.4176 32.092 78.6576 31.908C78.8976 31.724 79.0176 31.492 79.0176 31.212C79.0176 30.924 78.8896 30.712 78.6336 30.576C78.3776 30.432 77.9816 30.292 77.4456 30.156C76.9576 30.028 76.5576 29.9 76.2456 29.772C75.9416 29.636 75.6776 29.44 75.4536 29.184C75.2376 28.92 75.1296 28.576 75.1296 28.152C75.1296 27.816 75.2296 27.508 75.4296 27.228C75.6296 26.948 75.9136 26.728 76.2816 26.568C76.6496 26.4 77.0696 26.316 77.5416 26.316C78.2696 26.316 78.8576 26.5 79.3056 26.868C79.7536 27.236 79.9936 27.74 80.0256 28.38H78.9336C78.9096 28.036 78.7696 27.76 78.5136 27.552C78.2656 27.344 77.9296 27.24 77.5056 27.24C77.1136 27.24 76.8016 27.324 76.5696 27.492C76.3376 27.66 76.2216 27.88 76.2216 28.152C76.2216 28.368 76.2896 28.548 76.4256 28.692C76.5696 28.828 76.7456 28.94 76.9536 29.028C77.1696 29.108 77.4656 29.2 77.8416 29.304C78.3136 29.432 78.6976 29.56 78.9936 29.688C79.2896 29.808 79.5416 29.992 79.7496 30.24C79.9656 30.488 80.0776 30.812 80.0856 31.212C80.0856 31.572 79.9856 31.896 79.7856 32.184C79.5856 32.472 79.3016 32.7 78.9336 32.868C78.5736 33.028 78.1576 33.108 77.6856 33.108ZM82.9591 27.324V31.2C82.9591 31.52 83.0271 31.748 83.1631 31.884C83.2991 32.012 83.5351 32.076 83.8711 32.076H84.6751V33H83.6911C83.0831 33 82.6271 32.86 82.3231 32.58C82.0191 32.3 81.8671 31.84 81.8671 31.2V27.324H81.0151V26.424H81.8671V24.768H82.9591V26.424H84.6751V27.324H82.9591ZM95.4374 29.076H92.8814V31.668H91.8614V29.076H89.3174V28.152H91.8614V25.548H92.8814V28.152H95.4374V29.076ZM107.032 24.636V33H105.94V29.208H101.68V33H100.588V24.636H101.68V28.308H105.94V24.636H107.032ZM114.897 29.46C114.897 29.668 114.885 29.888 114.861 30.12H109.605C109.645 30.768 109.865 31.276 110.265 31.644C110.673 32.004 111.165 32.184 111.741 32.184C112.213 32.184 112.605 32.076 112.917 31.86C113.237 31.636 113.461 31.34 113.589 30.972H114.765C114.589 31.604 114.237 32.12 113.709 32.52C113.181 32.912 112.525 33.108 111.741 33.108C111.117 33.108 110.557 32.968 110.061 32.688C109.573 32.408 109.189 32.012 108.909 31.5C108.629 30.98 108.489 30.38 108.489 29.7C108.489 29.02 108.625 28.424 108.897 27.912C109.169 27.4 109.549 27.008 110.037 26.736C110.533 26.456 111.101 26.316 111.741 26.316C112.365 26.316 112.917 26.452 113.397 26.724C113.877 26.996 114.245 27.372 114.501 27.852C114.765 28.324 114.897 28.86 114.897 29.46ZM113.769 29.232C113.769 28.816 113.677 28.46 113.493 28.164C113.309 27.86 113.057 27.632 112.737 27.48C112.425 27.32 112.077 27.24 111.693 27.24C111.141 27.24 110.669 27.416 110.277 27.768C109.893 28.12 109.673 28.608 109.617 29.232H113.769ZM117.43 24.12V33H116.338V24.12H117.43ZM120.383 27.636C120.599 27.26 120.919 26.948 121.343 26.7C121.775 26.444 122.275 26.316 122.843 26.316C123.427 26.316 123.955 26.456 124.427 26.736C124.907 27.016 125.283 27.412 125.555 27.924C125.827 28.428 125.963 29.016 125.963 29.688C125.963 30.352 125.827 30.944 125.555 31.464C125.283 31.984 124.907 32.388 124.427 32.676C123.955 32.964 123.427 33.108 122.843 33.108C122.283 33.108 121.787 32.984 121.355 32.736C120.931 32.48 120.607 32.164 120.383 31.788V36.12H119.291V26.424H120.383V27.636ZM124.847 29.688C124.847 29.192 124.747 28.76 124.547 28.392C124.347 28.024 124.075 27.744 123.731 27.552C123.395 27.36 123.023 27.264 122.615 27.264C122.215 27.264 121.843 27.364 121.499 27.564C121.163 27.756 120.891 28.04 120.683 28.416C120.483 28.784 120.383 29.212 120.383 29.7C120.383 30.196 120.483 30.632 120.683 31.008C120.891 31.376 121.163 31.66 121.499 31.86C121.843 32.052 122.215 32.148 122.615 32.148C123.023 32.148 123.395 32.052 123.731 31.86C124.075 31.66 124.347 31.376 124.547 31.008C124.747 30.632 124.847 30.192 124.847 29.688Z" fill="#777F90"/>
<defs>
<linearGradient id="paint0_linear_6590_3040" x1="5.95898" y1="0" x2="20.6414" y2="14.9015" gradientUnits="userSpaceOnUse">
<stop stop-color="#7209B7"/>
<stop offset="1" stop-color="#A24DDB"/>
</linearGradient>
<linearGradient id="paint1_linear_6590_3040" x1="24.918" y1="0" x2="39.6004" y2="14.9015" gradientUnits="userSpaceOnUse">
<stop stop-color="#F72585"/>
<stop offset="1" stop-color="#F284B7"/>
</linearGradient>
<linearGradient id="paint2_linear_6590_3040" x1="0.0078125" y1="16.9182" x2="22.8771" y2="39.9575" gradientUnits="userSpaceOnUse">
<stop stop-color="#7209B7"/>
<stop offset="1" stop-color="#A24DDB"/>
</linearGradient>
<linearGradient id="paint3_linear_6590_3040" x1="45.7803" y1="16.9182" x2="22.911" y2="39.9575" gradientUnits="userSpaceOnUse">
<stop stop-color="#F72585"/>
<stop offset="1" stop-color="#F284B7"/>
</linearGradient>
<linearGradient id="paint4_linear_6590_3040" x1="8.72847" y1="33.1206" x2="18.2957" y2="23.4823" gradientUnits="userSpaceOnUse">
<stop stop-color="white" stop-opacity="0"/>
<stop offset="1" stop-color="white" stop-opacity="0.23"/>
</linearGradient>
<linearGradient id="paint5_linear_6590_3040" x1="37.0606" y1="33.1206" x2="27.4934" y2="23.4823" gradientUnits="userSpaceOnUse">
<stop stop-color="white" stop-opacity="0"/>
<stop offset="1" stop-color="white" stop-opacity="0.23"/>
</linearGradient>
</defs>
</svg>
