<svg width="74" height="60" viewBox="0 0 74 60" fill="none" xmlns="http://www.w3.org/2000/svg">
<g clip-path="url(#clip0_6162_23555)">
<path d="M73.5632 29.9783C73.5632 40.825 67.8073 50.3244 59.1847 55.5569C58.8267 55.7814 58.4681 55.9834 58.1101 56.1859L61.4022 31.6625C61.4695 31.1685 61.111 30.7193 60.6408 30.652C60.1481 30.5846 59.7003 30.9215 59.633 31.4155L56.1838 57.1514C55.3102 57.5554 54.4146 57.9149 53.5186 58.2294L55.9824 31.6176C56.0273 31.1236 55.6687 30.6969 55.1761 30.652C54.6834 30.6071 54.2351 30.9664 54.2132 31.4604L51.6596 58.8134C50.8089 59.0379 49.9128 59.2399 49.0394 59.3969L50.4055 31.5727C50.4279 31.0787 50.0475 30.652 49.5545 30.6295C49.0618 30.6071 48.6362 30.9888 48.6139 31.4829L47.2253 59.6664C46.3742 59.7564 45.5456 59.8239 44.6721 59.8464V31.5503C44.6721 31.0562 44.269 30.652 43.7763 30.652C43.2835 30.652 42.8804 31.0562 42.8804 31.5503V59.8684C42.0965 59.8464 41.335 59.8014 40.5735 59.7114L39.185 31.5053C39.1626 31.0113 38.7371 30.6295 38.2444 30.652C37.7516 30.6744 37.3709 31.1011 37.3933 31.5952L38.7595 59.4644C37.8636 59.3074 36.9902 59.1274 36.1391 58.9029L33.5635 31.4604C33.5187 30.9664 33.0932 30.6071 32.6005 30.652C32.1077 30.6969 31.7494 31.146 31.7942 31.6176L34.2802 58.3414C33.3619 58.0274 32.4885 57.6904 31.615 57.3084L28.1436 31.438C28.0764 30.9439 27.6285 30.6071 27.1358 30.6744C26.643 30.7418 26.3071 31.1909 26.3743 31.685L29.6666 56.3654C29.241 56.1409 28.8378 55.9164 28.4347 55.6694C19.7449 50.4369 13.9219 40.8924 13.9219 29.9783C13.9219 13.4723 27.2701 0.0878906 43.7314 0.0878906C60.2154 0.0878906 73.5632 13.4723 73.5632 29.9783Z" fill="#EAEEF9"/>
<path d="M52.5272 31.746C51.7563 21.0775 51.5244 16.0031 48.2407 11.0501C48.1992 10.9877 48.1128 10.9738 48.0541 11.0224C47.4111 11.5561 46.6991 12.7346 46.4018 13.9859C45.2956 13.7814 44.186 13.5699 43.0522 13.6393C42.3574 13.6809 41.673 13.8611 40.9885 13.9859C40.6913 12.7311 39.9827 11.5561 39.3363 11.0224C39.2775 10.9738 39.1911 10.9877 39.1496 11.0501C35.8657 16.0031 35.6341 21.0775 34.8633 31.746L43.6951 31.032L52.5272 31.746Z" fill="white"/>
<path d="M40.5905 20.8069C39.7125 20.8069 38.9037 20.3286 38.4785 19.5591C38.3783 19.3754 38.4439 19.1432 38.6271 19.0392C38.8103 18.9387 39.0419 19.0045 39.1456 19.1882C39.4394 19.7151 39.9925 20.0443 40.594 20.0443C41.1955 20.0443 41.752 19.7151 42.0424 19.1882C42.1426 19.0045 42.3742 18.9387 42.5609 19.0392C42.7441 19.1397 42.8097 19.3719 42.7095 19.5591C42.2774 20.3286 41.4685 20.8069 40.5905 20.8069Z" fill="#989FB0"/>
<path d="M46.823 20.8069C45.945 20.8069 45.1361 20.3286 44.7109 19.5591C44.6107 19.3754 44.6764 19.1432 44.8596 19.0392C45.0428 18.9387 45.2744 19.0045 45.3781 19.1882C45.6719 19.7151 46.225 20.0443 46.8264 20.0443C47.4279 20.0443 47.9844 19.7151 48.2748 19.1882C48.375 19.0045 48.6066 18.9387 48.7933 19.0392C48.9765 19.1397 49.0422 19.3719 48.9419 19.5591C48.5098 20.3286 47.701 20.8069 46.823 20.8069Z" fill="#989FB0"/>
<path d="M41.5579 23.7739C41.5406 23.7739 41.5199 23.7739 41.4991 23.7704L37.6172 23.1812C37.4098 23.15 37.2681 22.9559 37.2992 22.7479C37.3303 22.54 37.5239 22.3979 37.7313 22.4291L41.6132 23.0183C41.8206 23.0495 41.9623 23.2436 41.9312 23.4516C41.9035 23.6388 41.7411 23.7739 41.5579 23.7739Z" fill="#989FB0"/>
<path d="M38.3674 25.4271C38.1704 25.4271 38.001 25.2746 37.9872 25.0701C37.9734 24.8586 38.1324 24.6784 38.3398 24.6645L41.5303 24.4462C41.7377 24.4323 41.9209 24.5918 41.9347 24.7997C41.9486 25.0112 41.7896 25.1914 41.5822 25.2053L38.3916 25.4236C38.3847 25.4271 38.3743 25.4271 38.3674 25.4271Z" fill="#989FB0"/>
<path d="M45.8381 23.7745C45.6549 23.7745 45.4924 23.6393 45.4613 23.4486C45.4302 23.2407 45.5719 23.0466 45.7794 23.0154L49.6612 22.4262C49.8686 22.395 50.0622 22.5371 50.0931 22.745C50.1245 22.953 49.9829 23.1471 49.7753 23.1783L45.8934 23.7675C45.8761 23.7745 45.8588 23.7745 45.8381 23.7745Z" fill="#989FB0"/>
<path d="M49.0287 25.4275C49.0183 25.4275 49.0114 25.4275 49.001 25.4275L45.8105 25.2092C45.5996 25.1953 45.4441 25.0116 45.4579 24.8036C45.4717 24.5957 45.6515 24.4362 45.8623 24.4501L49.0529 24.6684C49.2637 24.6823 49.4193 24.866 49.4055 25.074C49.3951 25.275 49.2292 25.4275 49.0287 25.4275Z" fill="#989FB0"/>
<path d="M44.1775 22.6513C43.984 22.6201 43.4032 22.6201 43.2062 22.6513C42.9988 22.686 42.7396 22.738 42.8225 23.2232C42.8675 23.4866 43.0264 23.7189 43.2339 23.8922C43.6003 24.1972 43.7801 24.1625 44.0704 23.9476C44.3089 23.7743 44.5059 23.5178 44.5578 23.2198C44.6477 22.7345 44.385 22.6825 44.1775 22.6513Z" fill="#989FB0"/>
<path d="M12.3887 4.44629C18.0838 6.26833 23.3722 9.48833 27.514 13.8136C28.3437 14.7447 29.2711 15.7316 29.6326 16.9167C30.2657 18.6484 29.7393 20.8258 28.4808 22.128C27.1943 23.4794 25.099 23.9769 23.2705 23.3226C22.1048 22.9821 21.0798 21.9394 20.9488 20.6904C20.8946 19.4202 21.7969 18.1752 22.9774 17.8067C24.2138 17.3398 25.5331 17.6377 26.5796 18.3014C27.626 18.9651 28.4766 19.9733 29.0966 21.0453C31.2009 24.4011 31.9145 28.7225 31.0574 32.7328C30.4112 35.6896 28.8716 38.3964 26.7602 40.5153" stroke="#C9D4E2" stroke-width="2" stroke-miterlimit="10" stroke-dasharray="4 4"/>
<path d="M12.0976 1.54137C12.5508 1.99624 12.4103 2.69853 11.7325 3.09359C11.0756 3.5658 10.5794 3.86907 10.147 3.49134C9.74257 3.06439 10.0296 2.4459 10.3727 1.72896C10.7509 0.83646 11.6163 1.1357 12.0976 1.54137Z" fill="#DAE2EB"/>
<path d="M9.87083 6.59476C10.4503 6.60006 11.1353 6.07866 10.9756 5.33516C10.7952 4.51449 10.7052 3.87605 10.0769 3.84282C9.49734 3.83751 9.4199 4.31502 9.04173 5.20751C8.79634 5.98031 9.21446 6.61076 9.87083 6.59476Z" fill="#DAE2EB"/>
<path d="M9.29634 3.39585C9.4435 3.02342 9.83479 2.79064 10.1838 2.85979C10.3095 2.86644 10.484 2.90102 10.5817 2.95688C11.3214 3.24948 11.7675 3.83071 11.5924 4.25235C11.4381 4.75114 10.6978 4.91477 10.0349 4.60089C9.83957 4.48916 9.74189 4.4333 9.59538 4.34951C9.28148 4.10479 9.14924 3.76828 9.29634 3.39585Z" fill="#989FB0"/>
<path d="M63.4845 28.1367L59.1622 55.5568C58.8037 55.7813 58.4452 55.9833 58.0871 56.1858C57.4598 56.5448 56.8106 56.8593 56.1384 57.1738C55.2653 57.5778 54.3692 57.9373 53.4731 58.2518C52.8688 58.4538 52.2415 58.6558 51.6147 58.8353C50.7635 59.0603 49.8675 59.2623 48.9941 59.4193C48.3894 59.5318 47.7847 59.6213 47.1799 59.6888C46.3289 59.7788 45.5002 59.8463 44.6268 59.8683C44.3132 59.8683 44.0221 59.8908 43.7086 59.8908C43.4174 59.8908 43.1262 59.8908 42.8351 59.8683C42.0512 59.8463 41.2897 59.8013 40.5282 59.7113C39.9236 59.6438 39.3188 59.5543 38.7141 59.4643C37.8183 59.3073 36.9448 59.1273 36.0937 58.9028C35.4667 58.7458 34.862 58.5438 34.2349 58.3413C33.3166 58.0273 32.4431 57.6903 31.5697 57.3083C30.9202 57.0163 30.2707 56.7023 29.6212 56.3653C29.1957 56.1408 28.7925 55.9163 28.3894 55.6693L23.9102 28.9227L28.9941 28.1592H63.4845V28.1367Z" fill="url(#paint0_linear_6162_23555)"/>
<path d="M31.6145 57.3075C30.965 57.0155 30.3156 56.7015 29.6661 56.3645L26.3738 31.6617C26.3066 31.1677 26.6426 30.7185 27.1353 30.6511C27.628 30.5838 28.0759 30.9206 28.1431 31.4147L31.6145 57.3075Z" fill="black"/>
<path d="M36.1162 58.9022C35.4891 58.7452 34.8844 58.5432 34.2573 58.3407L31.7714 31.6169C31.7265 31.1229 32.0849 30.6962 32.5776 30.6513C33.0703 30.6063 33.5183 30.9657 33.5407 31.4597L36.1162 58.9022Z" fill="black"/>
<path d="M40.5504 59.7107C39.9456 59.6432 39.3409 59.5537 38.7363 59.4637L37.3701 31.5945C37.3477 31.1004 37.7284 30.6738 38.2211 30.6513C38.7138 30.6288 39.1394 31.0106 39.1618 31.5047L40.5504 59.7107Z" fill="black"/>
<path d="M61.3795 31.6617L58.0874 56.1851C57.4601 56.5441 56.8109 56.8586 56.1387 57.1731L59.6103 31.4372C59.6776 30.9431 60.1254 30.6063 60.618 30.6736C61.1107 30.7185 61.4468 31.1677 61.3795 31.6617Z" fill="black"/>
<path d="M55.959 31.6394L53.4952 58.2511C52.8908 58.4531 52.2635 58.6551 51.6367 58.8346L54.1898 31.4822C54.2347 30.9881 54.66 30.6288 55.1527 30.6737C55.6454 30.7186 56.0263 31.1453 55.959 31.6394Z" fill="black"/>
<path d="M50.3833 31.5945L49.0173 59.4187C48.4125 59.5312 47.8078 59.6207 47.2031 59.6882L48.5917 31.5047C48.6141 31.0106 49.0396 30.6288 49.5324 30.6513C50.0253 30.6738 50.4057 31.1004 50.3833 31.5945Z" fill="black"/>
<path d="M44.6491 31.5497V59.8678C44.3356 59.8678 44.0444 59.8903 43.7309 59.8903C43.4397 59.8903 43.1486 59.8903 42.8574 59.8678V31.5497C42.8574 31.0556 43.2605 30.6514 43.7532 30.6514C44.2684 30.6514 44.6491 31.0556 44.6491 31.5497Z" fill="black"/>
<path d="M62.9427 30.6055L62.3887 32.314L67.607 34.0147L68.161 32.3061L62.9427 30.6055Z" fill="#A9B3C4"/>
<path d="M24.5093 30.6094L19.291 32.3101L19.8449 34.0186L25.0631 32.3179L24.5093 30.6094Z" fill="#A9B3C4"/>
<path d="M31.6145 57.3075C30.965 57.0155 30.3156 56.7015 29.6661 56.3645L26.3738 31.6617C26.3066 31.1677 26.6426 30.7185 27.1353 30.6511C27.628 30.5838 28.0759 30.9206 28.1431 31.4147L31.6145 57.3075Z" fill="url(#paint1_linear_6162_23555)"/>
<path d="M36.1162 58.9022C35.4891 58.7452 34.8845 58.5432 34.2574 58.3407L31.7714 31.6169C31.7266 31.1228 32.0849 30.6961 32.5776 30.6512C33.0703 30.6063 33.5183 30.9656 33.5407 31.4597L36.1162 58.9022Z" fill="url(#paint2_linear_6162_23555)"/>
<path d="M40.5504 59.7107C39.9456 59.6432 39.341 59.5537 38.7363 59.4637L37.3701 31.5945C37.3477 31.1004 37.7284 30.6738 38.2212 30.6513C38.7139 30.6288 39.1394 31.0106 39.1618 31.5047L40.5504 59.7107Z" fill="url(#paint3_linear_6162_23555)"/>
<path d="M44.6492 31.5497V59.8678C44.3356 59.8678 44.0445 59.8903 43.7309 59.8903C43.4397 59.8903 43.1486 59.8903 42.8574 59.8678V31.5497C42.8574 31.0556 43.2606 30.6514 43.7533 30.6514C44.2684 30.6514 44.6492 31.0556 44.6492 31.5497Z" fill="url(#paint4_linear_6162_23555)"/>
<path d="M50.3832 31.5945L49.0172 59.4187C48.4125 59.5312 47.8078 59.6207 47.2031 59.6882L48.5917 31.5047C48.6141 31.0106 49.0396 30.6288 49.5324 30.6513C50.0252 30.6738 50.4056 31.1004 50.3832 31.5945Z" fill="url(#paint5_linear_6162_23555)"/>
<path d="M55.959 31.6394L53.4957 58.2512C52.8908 58.4532 52.2635 58.6552 51.6367 58.8347L54.1898 31.4822C54.2347 30.9881 54.66 30.6288 55.1527 30.6737C55.6454 30.7187 56.0263 31.1453 55.959 31.6394Z" fill="url(#paint6_linear_6162_23555)"/>
<path d="M61.3795 31.6617L58.0874 56.1851C57.4601 56.5441 56.8109 56.8586 56.1387 57.1731L59.6103 31.4372C59.6776 30.9431 60.1254 30.6063 60.618 30.6736C61.1107 30.7185 61.4468 31.1677 61.3795 31.6617Z" fill="url(#paint7_linear_6162_23555)"/>
<g filter="url(#filter0_d_6162_23555)">
<path d="M63.5731 28.9226H23.9314C23.5059 28.9226 23.1699 28.5858 23.1699 28.1591C23.1699 27.7324 23.5059 27.3955 23.9314 27.3955H63.5731C63.9985 27.3955 64.3346 27.7324 64.3346 28.1591C64.3346 28.5633 63.9985 28.9226 63.5731 28.9226Z" fill="url(#paint8_linear_6162_23555)"/>
</g>
<path d="M69.9663 16.5206C69.3958 16.3391 69.1854 15.7041 69.5304 14.9925C69.8755 14.2809 70.1423 13.7035 70.7556 13.8825C71.2837 14.0666 71.3246 14.7549 71.3709 15.5293C71.3874 16.5214 70.4514 16.7073 69.9663 16.5206Z" fill="#DAE2EB"/>
<path d="M69.4701 11.1101C68.9251 11.3587 68.6688 12.1082 69.1365 12.7277C69.6925 13.3851 70.0236 13.8833 70.609 13.589C71.1541 13.3403 70.997 12.8748 70.8544 11.9335C70.6819 11.2098 70.0152 10.8614 69.4701 11.1101Z" fill="#DAE2EB"/>
<path d="M70.8788 14.4794C70.7526 14.5302 70.6265 14.581 70.4978 14.5887C69.8161 14.7161 69.1973 14.4511 69.129 14.0234C69.0602 13.5958 69.5947 13.175 70.3218 13.0881C70.4908 13.0347 70.6624 13.0244 70.7935 13.0597C71.0967 13.0846 71.3694 13.3273 71.3899 13.6715C71.4537 14.013 71.2168 14.3727 70.8788 14.4794Z" fill="#989FB0"/>
<path d="M56.256 27.0167C55.8082 17.372 63.9745 14.2467 68.4798 13.9756" stroke="#C9D4E2" stroke-width="2" stroke-miterlimit="10" stroke-dasharray="4 4"/>
</g>
<defs>
<filter id="filter0_d_6162_23555" x="21.1699" y="27.3955" width="45.1641" height="5.52734" filterUnits="userSpaceOnUse" color-interpolation-filters="sRGB">
<feFlood flood-opacity="0" result="BackgroundImageFix"/>
<feColorMatrix in="SourceAlpha" type="matrix" values="0 0 0 0 0 0 0 0 0 0 0 0 0 0 0 0 0 0 127 0" result="hardAlpha"/>
<feOffset dy="2"/>
<feGaussianBlur stdDeviation="1"/>
<feColorMatrix type="matrix" values="0 0 0 0 0.397708 0 0 0 0 0.47749 0 0 0 0 0.575 0 0 0 0.15 0"/>
<feBlend mode="normal" in2="BackgroundImageFix" result="effect1_dropShadow_6162_23555"/>
<feBlend mode="normal" in="SourceGraphic" in2="effect1_dropShadow_6162_23555" result="shape"/>
</filter>
<linearGradient id="paint0_linear_6162_23555" x1="43.7005" y1="29.2398" x2="43.7005" y2="47.0632" gradientUnits="userSpaceOnUse">
<stop stop-color="#B0BACC"/>
<stop offset="1" stop-color="#969EAE"/>
</linearGradient>
<linearGradient id="paint1_linear_6162_23555" x1="48.1141" y1="48.8468" x2="49.3756" y2="31.4857" gradientUnits="userSpaceOnUse">
<stop offset="0.869792" stop-color="#7C869B"/>
<stop offset="1" stop-color="#747D8E"/>
</linearGradient>
<linearGradient id="paint2_linear_6162_23555" x1="48.1141" y1="48.8469" x2="49.3756" y2="31.4858" gradientUnits="userSpaceOnUse">
<stop offset="0.869792" stop-color="#7C869B"/>
<stop offset="1" stop-color="#747D8E"/>
</linearGradient>
<linearGradient id="paint3_linear_6162_23555" x1="48.1138" y1="48.847" x2="49.3752" y2="31.4859" gradientUnits="userSpaceOnUse">
<stop offset="0.869792" stop-color="#7C869B"/>
<stop offset="1" stop-color="#747D8E"/>
</linearGradient>
<linearGradient id="paint4_linear_6162_23555" x1="48.114" y1="48.847" x2="49.3755" y2="31.4859" gradientUnits="userSpaceOnUse">
<stop offset="0.869792" stop-color="#7C869B"/>
<stop offset="1" stop-color="#747D8E"/>
</linearGradient>
<linearGradient id="paint5_linear_6162_23555" x1="48.1148" y1="48.847" x2="49.3763" y2="31.4859" gradientUnits="userSpaceOnUse">
<stop offset="0.869792" stop-color="#7C869B"/>
<stop offset="1" stop-color="#747D8E"/>
</linearGradient>
<linearGradient id="paint6_linear_6162_23555" x1="48.1137" y1="48.8469" x2="49.3752" y2="31.4858" gradientUnits="userSpaceOnUse">
<stop offset="0.869792" stop-color="#7C869B"/>
<stop offset="1" stop-color="#747D8E"/>
</linearGradient>
<linearGradient id="paint7_linear_6162_23555" x1="48.1144" y1="48.8468" x2="49.3758" y2="31.4857" gradientUnits="userSpaceOnUse">
<stop offset="0.869792" stop-color="#7C869B"/>
<stop offset="1" stop-color="#747D8E"/>
</linearGradient>
<linearGradient id="paint8_linear_6162_23555" x1="43.7388" y1="27.3602" x2="43.7388" y2="28.9391" gradientUnits="userSpaceOnUse">
<stop stop-color="#CED8EA"/>
<stop offset="0.9964" stop-color="#ADB7C9"/>
</linearGradient>
<clipPath id="clip0_6162_23555">
<rect width="73.8" height="60" fill="white" transform="translate(0.0996094)"/>
</clipPath>
</defs>
</svg>
