<svg width="499" height="329" viewBox="0 0 499 329" fill="none" xmlns="http://www.w3.org/2000/svg">
<path d="M52.5127 300.66H113.057V305.573H52.5127V300.66Z" fill="#E7EBF2"/>
<path d="M56.2547 289.654C56.764 288.09 58.2223 287.031 59.8675 287.031H105.86C107.505 287.031 108.964 288.09 109.473 289.654L113.057 300.661H52.6709L56.2547 289.654Z" fill="#E7EBF2"/>
<path d="M33.8101 91.7656V110.309H207.201L190.401 93.3505L33.8101 91.7656Z" stroke="#E7EBF2" stroke-width="2.53299" stroke-miterlimit="10" stroke-linejoin="round"/>
<path d="M132.235 110.31V93.3516L151.571 110.31V93.3516L171.066 110.31V93.3516L190.402 110.31V93.9856V93.3516" stroke="#E7EBF2" stroke-width="2.53299" stroke-miterlimit="10" stroke-linejoin="round"/>
<path d="M54.5732 110.309V92.082" stroke="#E7EBF2" stroke-width="2.53299" stroke-miterlimit="10" stroke-linejoin="round"/>
<path d="M112.74 93.3516V110.31L93.4038 93.3516" stroke="#E7EBF2" stroke-width="2.53299" stroke-miterlimit="10" stroke-linejoin="round"/>
<path d="M93.4038 93.3516V110.31" stroke="#E7EBF2" stroke-width="2.53299" stroke-miterlimit="10" stroke-linejoin="round"/>
<path d="M72.4829 279.107H93.2455V74.4923L82.785 64.8242L72.4829 74.4923V279.107Z" stroke="#E7EBF2" stroke-width="2.53299" stroke-miterlimit="10" stroke-linejoin="round"/>
<path d="M93.2455 75.5977H72.4829" stroke="#E7EBF2" stroke-width="2.53299" stroke-miterlimit="10"/>
<path d="M93.2455 127.902H72.4829" stroke="#E7EBF2" stroke-width="2.53299" stroke-miterlimit="10" stroke-linejoin="round"/>
<path d="M93.2455 144.703H72.4829" stroke="#E7EBF2" stroke-width="2.53299" stroke-miterlimit="10"/>
<path d="M93.2455 161.344H72.4829" stroke="#E7EBF2" stroke-width="2.53299" stroke-miterlimit="10"/>
<path d="M93.2455 178.145H72.4829" stroke="#E7EBF2" stroke-width="2.53299" stroke-miterlimit="10"/>
<path d="M93.2455 194.945H72.4829" stroke="#E7EBF2" stroke-width="2.53299" stroke-miterlimit="10"/>
<path d="M93.2455 211.746H72.4829" stroke="#E7EBF2" stroke-width="2.53299" stroke-miterlimit="10"/>
<path d="M93.2455 228.387H72.4829" stroke="#E7EBF2" stroke-width="2.53299" stroke-miterlimit="10"/>
<path d="M93.2455 245.191H72.4829" stroke="#E7EBF2" stroke-width="2.53299" stroke-miterlimit="10"/>
<path d="M93.2455 261.988H72.4829" stroke="#E7EBF2" stroke-width="2.53299" stroke-miterlimit="10"/>
<path d="M175.028 93.1944L82.7849 64.8242L38.8823 91.9265" stroke="#E7EBF2" stroke-width="2.53299" stroke-miterlimit="10" stroke-linejoin="round"/>
<path d="M93.4039 110.308L72.4829 92.3984" stroke="#E7EBF2" stroke-width="2.53299" stroke-miterlimit="10" stroke-linejoin="round"/>
<path d="M73.1167 110.941L92.7698 127.266" stroke="#E7EBF2" stroke-width="2.53299" stroke-miterlimit="10" stroke-linejoin="round"/>
<path d="M73.1167 75.9141L92.9284 91.7634" stroke="#E7EBF2" stroke-width="2.53299" stroke-miterlimit="10" stroke-linejoin="round"/>
<path d="M55.207 92.3984L71.6904 109.991" stroke="#E7EBF2" stroke-width="2.53299" stroke-miterlimit="10" stroke-linejoin="round"/>
<path d="M54.0978 109.991L33.9692 92.3984" stroke="#E7EBF2" stroke-width="2.53299" stroke-miterlimit="10" stroke-linejoin="round"/>
<path d="M113.374 93.1914L131.601 109.516" stroke="#E7EBF2" stroke-width="2.53299" stroke-miterlimit="10" stroke-linejoin="round"/>
<path d="M73.2749 128.375L92.7695 144.067" stroke="#E7EBF2" stroke-width="2.53299" stroke-miterlimit="10" stroke-linejoin="round"/>
<path d="M73.2749 145.34L92.7695 160.713" stroke="#E7EBF2" stroke-width="2.53299" stroke-miterlimit="10" stroke-linejoin="round"/>
<path d="M73.1167 161.977L92.7698 177.509" stroke="#E7EBF2" stroke-width="2.53299" stroke-miterlimit="10" stroke-linejoin="round"/>
<path d="M73.1167 178.938L92.7698 194.312" stroke="#E7EBF2" stroke-width="2.53299" stroke-miterlimit="10" stroke-linejoin="round"/>
<path d="M73.1167 195.578L92.7698 210.952" stroke="#E7EBF2" stroke-width="2.53299" stroke-miterlimit="10" stroke-linejoin="round"/>
<path d="M73.1167 212.223L92.7698 227.755" stroke="#E7EBF2" stroke-width="2.53299" stroke-miterlimit="10" stroke-linejoin="round"/>
<path d="M73.1167 229.023L92.7698 244.556" stroke="#E7EBF2" stroke-width="2.53299" stroke-miterlimit="10" stroke-linejoin="round"/>
<path d="M73.1167 245.824L92.7698 261.357" stroke="#E7EBF2" stroke-width="2.53299" stroke-miterlimit="10" stroke-linejoin="round"/>
<path d="M73.1167 262.777L92.7698 278.151" stroke="#E7EBF2" stroke-width="2.53299" stroke-miterlimit="10" stroke-linejoin="round"/>
<path d="M62.9705 278.945H102.6C103.998 278.945 105.133 280.079 105.133 281.478V287.028H60.4375V281.478C60.4375 280.079 61.5715 278.945 62.9705 278.945Z" fill="#E7EBF2"/>
<path d="M115.91 125.681L104.023 137.569C103.231 138.36 102.121 138.837 101.17 138.837H71.3735V110.941H117.337V122.67C117.02 123.938 116.703 124.889 115.91 125.681Z" fill="#E7EBF2"/>
<path d="M88.8302 123.607H77.4159C76.7164 123.607 76.1494 123.04 76.1494 122.34V116.79C76.1494 116.09 76.7164 115.523 77.4159 115.523H88.8302C89.5297 115.523 90.0967 116.09 90.0967 116.79V122.34C90.0967 123.04 89.5297 123.607 88.8302 123.607Z" fill="white"/>
<path d="M106.861 123.607H95.4462C94.7467 123.607 94.1797 123.04 94.1797 122.34V116.79C94.1797 116.09 94.7467 115.523 95.4462 115.523H106.861C107.56 115.523 108.127 116.09 108.127 116.79V122.34C108.127 123.04 107.56 123.607 106.861 123.607Z" fill="white"/>
<path d="M36.9171 256.02H30.7026V306.736H36.9171V256.02Z" fill="#B9C0D0"/>
<path d="M81.0201 256.02H74.8057V306.736H81.0201V256.02Z" fill="#B9C0D0"/>
<path d="M268.655 304.935C251.816 305.336 231.769 304.935 217.536 304.734C203.303 305.136 183.257 305.336 166.417 304.935C183.057 295.513 188.67 278.073 189.672 266.445H245.2C246.403 278.073 252.016 295.513 268.655 304.935Z" fill="url(#paint0_linear_6167_24884)"/>
<path d="M321.979 120.507V264.642C321.979 268.25 319.173 270.857 315.764 270.857H119.309C115.901 270.857 113.094 268.05 113.094 264.642V120.507C113.094 117.099 115.901 114.293 119.309 114.293H315.764C319.173 114.293 321.979 116.899 321.979 120.507Z" fill="#E8EDF8"/>
<path d="M321.979 120.507V244.796H113.294V120.507C113.294 117.099 116.101 114.293 119.509 114.293H315.964C319.172 114.293 321.979 116.899 321.979 120.507Z" fill="#B9C0D0"/>
<path d="M314.561 121.91H120.712V237.578H314.361V121.91H314.561Z" fill="white"/>
<path d="M217.536 262.839C220.415 262.839 222.749 260.506 222.749 257.627C222.749 254.748 220.415 252.414 217.536 252.414C214.657 252.414 212.324 254.748 212.324 257.627C212.324 260.506 214.657 262.839 217.536 262.839Z" fill="#B9C0D0"/>
<path d="M436.583 261.637H431.17V306.14H436.583V261.637Z" fill="#B9C0D0"/>
<path d="M475.274 261.637H469.861V306.14H475.274V261.637Z" fill="#B9C0D0"/>
<path d="M482.088 263.641H425.157V281.882H482.088V263.641Z" fill="#E8EDF8"/>
<path d="M438.989 263.641L432.975 281.882H426.158L431.973 263.641H438.989Z" fill="url(#paint1_linear_6167_24884)"/>
<path d="M452.821 263.641L446.807 281.882H439.992L445.805 263.641H452.821Z" fill="url(#paint2_linear_6167_24884)"/>
<path d="M466.652 263.641L460.639 281.882H453.823L459.637 263.641H466.652Z" fill="url(#paint3_linear_6167_24884)"/>
<path d="M480.485 263.641L474.472 281.882H467.655L473.468 263.641H480.485Z" fill="url(#paint4_linear_6167_24884)"/>
<path d="M88.838 258.43H23.8872V279.279H88.838V258.43Z" fill="#E8EDF8"/>
<path d="M39.5236 258.43L32.7079 279.077H24.8896L31.7054 258.43H39.5236Z" fill="url(#paint5_linear_6167_24884)"/>
<path d="M55.3606 258.43L48.5448 279.077H40.7266L47.342 258.43H55.3606Z" fill="url(#paint6_linear_6167_24884)"/>
<path d="M71.197 258.43L64.3812 279.077H56.563L63.1784 258.43H71.197Z" fill="url(#paint7_linear_6167_24884)"/>
<path d="M87.0339 258.43L80.218 279.077H72.3999L79.0152 258.43H87.0339Z" fill="url(#paint8_linear_6167_24884)"/>
<path d="M242.995 58.3633V82.82" stroke="#BBC1CF" stroke-width="2.53299" stroke-miterlimit="10" stroke-linejoin="round"/>
<path d="M243.095 93.444C247.027 93.444 250.213 90.2577 250.213 86.3274C250.213 82.3971 247.027 79.2109 243.095 79.2109C239.165 79.2109 235.979 82.3971 235.979 86.3274C235.979 90.2577 239.165 93.444 243.095 93.444Z" fill="#B9C0D0"/>
<path d="M236.18 105.274C236.18 109.684 240.189 113.293 245 112.09C247.607 111.489 249.611 109.484 250.213 106.878C251.015 103.069 248.81 99.4608 245.402 98.4584C244.198 98.0575 243.397 97.0552 243.397 95.6519V89.4375" stroke="#BBC1CF" stroke-width="2.53299" stroke-miterlimit="10" stroke-linejoin="round"/>
<path d="M416.198 300.125H339.621V306.34H416.198V300.125Z" fill="url(#paint9_linear_6167_24884)"/>
<path d="M411.238 285.506C410.729 283.942 409.27 282.883 407.625 282.883H347.992C346.347 282.883 344.888 283.942 344.379 285.506L339.621 300.122H415.998L411.238 285.506Z" fill="#CAD0DD"/>
<path d="M439.852 35.9141V59.3685H220.543L241.792 37.9187L439.852 35.9141Z" stroke="#BBC1CF" stroke-width="2.53299" stroke-miterlimit="10" stroke-linejoin="round"/>
<path d="M315.363 59.3637V37.9141L290.907 59.3637V37.9141L266.249 59.3637V37.9141L241.792 59.3637V38.7159V37.9141" stroke="#BBC1CF" stroke-width="2.53299" stroke-miterlimit="10" stroke-linejoin="round"/>
<path d="M413.591 59.366V36.3125" stroke="#BBC1CF" stroke-width="2.53299" stroke-miterlimit="10" stroke-linejoin="round"/>
<path d="M340.021 37.9141V59.3637L364.478 37.9141" stroke="#BBC1CF" stroke-width="2.53299" stroke-miterlimit="10" stroke-linejoin="round"/>
<path d="M364.478 37.9141V59.3637" stroke="#BBC1CF" stroke-width="2.53299" stroke-miterlimit="10" stroke-linejoin="round"/>
<path d="M390.939 272.861H364.678V14.0605L377.909 1.83203L390.939 14.0605V272.861Z" stroke="#BBC1CF" stroke-width="2.53299" stroke-miterlimit="10" stroke-linejoin="round"/>
<path d="M364.678 15.4648H390.939" stroke="#BBC1CF" stroke-width="2.53299" stroke-miterlimit="10"/>
<path d="M364.678 81.6133H390.939" stroke="#BBC1CF" stroke-width="2.53299" stroke-miterlimit="10" stroke-linejoin="round"/>
<path d="M364.678 102.863H390.939" stroke="#BBC1CF" stroke-width="2.53299" stroke-miterlimit="10"/>
<path d="M364.678 123.914H390.939" stroke="#BBC1CF" stroke-width="2.53299" stroke-miterlimit="10"/>
<path d="M364.678 145.164H390.939" stroke="#BBC1CF" stroke-width="2.53299" stroke-miterlimit="10"/>
<path d="M364.678 166.414H390.939" stroke="#BBC1CF" stroke-width="2.53299" stroke-miterlimit="10"/>
<path d="M364.678 187.664H390.939" stroke="#BBC1CF" stroke-width="2.53299" stroke-miterlimit="10"/>
<path d="M364.678 208.711H390.939" stroke="#BBC1CF" stroke-width="2.53299" stroke-miterlimit="10"/>
<path d="M364.678 229.965H390.939" stroke="#BBC1CF" stroke-width="2.53299" stroke-miterlimit="10"/>
<path d="M364.678 251.211H390.939" stroke="#BBC1CF" stroke-width="2.53299" stroke-miterlimit="10"/>
<path d="M261.238 37.7153L377.909 1.83203L433.437 36.1116" stroke="#BBC1CF" stroke-width="2.53299" stroke-miterlimit="10" stroke-linejoin="round"/>
<path d="M364.478 59.3674L390.939 36.7148" stroke="#BBC1CF" stroke-width="2.53299" stroke-miterlimit="10" stroke-linejoin="round"/>
<path d="M390.137 60.168L365.279 80.8159" stroke="#BBC1CF" stroke-width="2.53299" stroke-miterlimit="10" stroke-linejoin="round"/>
<path d="M390.137 15.8672L365.079 35.9137" stroke="#BBC1CF" stroke-width="2.53299" stroke-miterlimit="10" stroke-linejoin="round"/>
<path d="M412.789 36.7148L391.941 58.9664" stroke="#BBC1CF" stroke-width="2.53299" stroke-miterlimit="10" stroke-linejoin="round"/>
<path d="M414.193 58.9664L439.652 36.7148" stroke="#BBC1CF" stroke-width="2.53299" stroke-miterlimit="10" stroke-linejoin="round"/>
<path d="M339.219 37.7148L316.165 58.3628" stroke="#BBC1CF" stroke-width="2.53299" stroke-miterlimit="10" stroke-linejoin="round"/>
<path d="M389.937 82.2188L365.279 102.065" stroke="#BBC1CF" stroke-width="2.53299" stroke-miterlimit="10" stroke-linejoin="round"/>
<path d="M389.937 103.668L365.279 123.113" stroke="#BBC1CF" stroke-width="2.53299" stroke-miterlimit="10" stroke-linejoin="round"/>
<path d="M390.137 124.715L365.279 144.361" stroke="#BBC1CF" stroke-width="2.53299" stroke-miterlimit="10" stroke-linejoin="round"/>
<path d="M390.137 146.168L365.279 165.614" stroke="#BBC1CF" stroke-width="2.53299" stroke-miterlimit="10" stroke-linejoin="round"/>
<path d="M390.137 167.219L365.279 186.663" stroke="#BBC1CF" stroke-width="2.53299" stroke-miterlimit="10" stroke-linejoin="round"/>
<path d="M390.137 188.262L365.279 207.906" stroke="#BBC1CF" stroke-width="2.53299" stroke-miterlimit="10" stroke-linejoin="round"/>
<path d="M390.137 209.516L365.279 229.162" stroke="#BBC1CF" stroke-width="2.53299" stroke-miterlimit="10" stroke-linejoin="round"/>
<path d="M390.137 230.766L365.279 250.41" stroke="#BBC1CF" stroke-width="2.53299" stroke-miterlimit="10" stroke-linejoin="round"/>
<path d="M390.137 252.211L365.279 271.655" stroke="#BBC1CF" stroke-width="2.53299" stroke-miterlimit="10" stroke-linejoin="round"/>
<path d="M403.641 272.656H352.176C350.777 272.656 349.643 273.791 349.643 275.189V282.881H406.174V275.189C406.174 273.791 405.04 272.656 403.641 272.656Z" fill="url(#paint10_linear_6167_24884)"/>
<path d="M155.593 230.567H130.735C128.73 230.567 127.127 228.964 127.127 226.959V131.137C127.127 129.132 128.73 127.527 130.735 127.527H155.593C157.598 127.527 159.201 129.132 159.201 131.137V226.959C159.201 228.964 157.598 230.567 155.593 230.567Z" fill="#E8EDF8"/>
<path d="M143.164 146.766C146.486 146.766 149.178 144.074 149.178 140.753C149.178 137.431 146.486 134.738 143.164 134.738C139.843 134.738 137.15 137.431 137.15 140.753C137.15 144.074 139.843 146.766 143.164 146.766Z" fill="url(#paint11_linear_6167_24884)"/>
<path d="M153.788 155.588H132.539C132.138 155.588 131.937 155.386 131.937 154.986V153.383C131.937 152.981 132.138 152.781 132.539 152.781H153.588C153.989 152.781 154.189 152.981 154.189 153.383V154.986C154.389 155.386 153.989 155.588 153.788 155.588Z" fill="url(#paint12_linear_6167_24884)"/>
<path d="M153.788 164.01H132.539C132.138 164.01 131.937 163.81 131.937 163.409V161.805C131.937 161.404 132.138 161.203 132.539 161.203H153.588C153.989 161.203 154.189 161.404 154.189 161.805V163.409C154.389 163.81 153.989 164.01 153.788 164.01Z" fill="url(#paint13_linear_6167_24884)"/>
<path d="M153.788 172.428H132.539C132.138 172.428 131.937 172.226 131.937 171.826V170.223C131.937 169.821 132.138 169.621 132.539 169.621H153.588C153.989 169.621 154.189 169.821 154.189 170.223V171.826C154.389 172.226 153.989 172.428 153.788 172.428Z" fill="url(#paint14_linear_6167_24884)"/>
<path d="M153.788 181.045H132.539C132.138 181.045 131.937 180.843 131.937 180.443V178.839C131.937 178.438 132.138 178.238 132.539 178.238H153.588C153.989 178.238 154.189 178.438 154.189 178.839V180.443C154.389 180.643 153.989 181.045 153.788 181.045Z" fill="url(#paint15_linear_6167_24884)"/>
<path d="M153.788 189.467H132.539C132.138 189.467 131.937 189.265 131.937 188.865V187.262C131.937 186.86 132.138 186.66 132.539 186.66H153.588C153.989 186.66 154.189 186.86 154.189 187.262V188.865C154.389 189.065 153.989 189.467 153.788 189.467Z" fill="url(#paint16_linear_6167_24884)"/>
<path d="M153.788 197.889H132.539C132.138 197.889 131.937 197.688 131.937 197.287V195.684C131.937 195.283 132.138 195.082 132.539 195.082H153.588C153.989 195.082 154.189 195.283 154.189 195.684V197.287C154.389 197.688 153.989 197.889 153.788 197.889Z" fill="url(#paint17_linear_6167_24884)"/>
<path d="M149.98 206.307H136.548C136.147 206.307 135.947 206.106 135.947 205.706V204.102C135.947 203.701 136.147 203.5 136.548 203.5H149.98C150.381 203.5 150.581 203.701 150.581 204.102V205.706C150.581 206.106 150.18 206.307 149.98 206.307Z" fill="url(#paint18_linear_6167_24884)"/>
<path d="M230.367 216.129H176.842V219.136H230.367V216.129Z" fill="url(#paint19_linear_6167_24884)"/>
<path d="M205.91 224.145H176.842V227.151H205.91V224.145Z" fill="url(#paint20_linear_6167_24884)"/>
<path d="M294.715 216.129H241.192V219.136H294.715V216.129Z" fill="url(#paint21_linear_6167_24884)"/>
<path d="M270.259 224.145H241.192V227.151H270.259V224.145Z" fill="url(#paint22_linear_6167_24884)"/>
<path d="M196.172 118.399L238.608 109.957C241.719 109.29 244.829 109.957 247.273 111.512L279.933 130.397" stroke="#BBC1CF" stroke-width="2.53299" stroke-miterlimit="10" stroke-linejoin="round"/>
<g filter="url(#filter0_d_6167_24884)">
<path d="M279.466 219.935L171.977 203.716C168.644 203.271 166.423 200.161 166.866 196.827L177.753 119.288C178.198 115.955 181.308 113.733 184.642 114.178L292.13 130.397C295.463 130.84 297.684 133.951 297.241 137.284L286.354 214.824C285.909 217.935 282.799 220.379 279.466 219.935Z" fill="white"/>
</g>
<path d="M275.945 211.112L179.86 196.106C177.143 195.743 175.332 193.208 175.694 190.492L184.568 127.293C184.93 124.577 187.465 122.766 190.181 123.128L286.267 138.135C288.984 138.498 290.795 141.032 290.433 143.749L281.56 206.948C281.198 209.484 278.662 211.475 275.945 211.112Z" fill="#EFF3FB"/>
<path d="M336.012 78.8112L351.046 93.846C352.048 94.8485 353.451 95.4498 354.655 95.4498H392.342V60.168H334.207V75.0023C334.609 76.6061 335.009 77.8089 336.012 78.8112Z" fill="#B9C0D0"/>
<path d="M369.926 76.1807H385.034C385.735 76.1807 386.301 75.6137 386.301 74.9142V67.2235C386.301 66.524 385.735 65.957 385.034 65.957H369.926C369.227 65.957 368.66 66.524 368.66 67.2235V74.9142C368.66 75.6137 369.227 76.1807 369.926 76.1807Z" fill="white"/>
<path d="M347.122 76.1807H362.23C362.929 76.1807 363.497 75.6137 363.497 74.9142V67.2235C363.497 66.524 362.929 65.957 362.23 65.957H347.122C346.423 65.957 345.855 66.524 345.855 67.2235V74.9142C345.855 75.6137 346.423 76.1807 347.122 76.1807Z" fill="white"/>
<path d="M2.6377 306.738H496.54" stroke="#CDD6E1" stroke-width="3.79949" stroke-miterlimit="10" stroke-linecap="round" stroke-linejoin="round"/>
<path d="M173.424 305.136H146.361L147.563 302.128L150.37 294.511L152.776 287.895L155.583 280.278L157.588 275.065C157.988 274.063 158.991 273.262 159.993 273.262C160.994 273.262 161.997 273.863 162.398 275.065L164.403 280.278L167.209 287.895L169.615 294.511L172.422 302.128L173.424 305.136Z" fill="#E8EDF8"/>
<path d="M167.217 287.897H152.792L155.503 280.48H164.467L167.217 287.897Z" fill="url(#paint23_linear_6167_24884)"/>
<path d="M172.413 302.13H147.556L150.362 294.512H169.607L172.413 302.13Z" fill="url(#paint24_linear_6167_24884)"/>
<path d="M173.424 305.138H146.161C145.359 305.138 144.557 304.536 144.557 303.534C144.557 302.733 145.159 301.93 146.161 301.93H173.424C174.226 301.93 175.028 302.531 175.028 303.534C175.028 304.536 174.426 305.138 173.424 305.138Z" fill="#E8EDF8"/>
<path d="M321.728 305.136H294.665L295.868 302.128L298.674 294.511L301.079 287.895L303.886 280.278L305.891 275.065C306.292 274.063 307.294 273.262 308.297 273.262C309.299 273.262 310.301 273.863 310.702 275.065L312.707 280.278L315.514 287.895L317.919 294.511L320.725 302.128L321.728 305.136Z" fill="#E8EDF8"/>
<path d="M315.521 287.897H301.096L303.807 280.48H312.772L315.521 287.897Z" fill="url(#paint25_linear_6167_24884)"/>
<path d="M320.716 302.13H295.859L298.665 294.512H317.91L320.716 302.13Z" fill="url(#paint26_linear_6167_24884)"/>
<path d="M321.728 305.138H294.464C293.663 305.138 292.861 304.536 292.861 303.534C292.861 302.733 293.462 301.93 294.464 301.93H321.728C322.53 301.93 323.332 302.531 323.332 303.534C323.332 304.536 322.73 305.138 321.728 305.138Z" fill="#E8EDF8"/>
<path d="M211.632 169.448C214.471 169.88 217.237 167.843 217.669 165.004C218.1 162.166 216.063 159.4 213.225 158.968C210.387 158.537 207.619 160.574 207.189 163.412C206.757 166.25 208.793 169.016 211.632 169.448Z" fill="#989FB0"/>
<path d="M251.805 175.553C254.643 175.985 257.411 173.949 257.841 171.111C258.273 168.271 256.237 165.505 253.398 165.073C250.559 164.643 247.793 166.679 247.361 169.517C246.897 172.573 248.967 175.123 251.805 175.553Z" fill="#989FB0"/>
<path d="M214.859 146.84L202.386 151.312L203.503 154.43L215.976 149.958L214.859 146.84Z" fill="#989FB0"/>
<path d="M254.535 152.785L252.542 155.431L263.125 163.405L265.118 160.759L254.535 152.785Z" fill="#989FB0"/>
<path d="M229.861 184.73C233.237 185.242 236.285 183.605 236.671 181.073C237.056 178.541 234.63 176.072 231.254 175.559C227.878 175.046 224.829 176.684 224.444 179.215C224.06 181.747 226.484 184.217 229.861 184.73Z" fill="#989FB0"/>
<path d="M145.163 324.871H411.475" stroke="#CDD6E1" stroke-width="3.79949" stroke-miterlimit="10" stroke-linecap="round" stroke-linejoin="round"/>
<path d="M58.5415 324.871H92.1967" stroke="#CDD6E1" stroke-width="3.79949" stroke-miterlimit="10" stroke-linecap="round" stroke-linejoin="round"/>
<defs>
<filter id="filter0_d_6167_24884" x="138.947" y="107.789" width="186.213" height="161.593" filterUnits="userSpaceOnUse" color-interpolation-filters="sRGB">
<feFlood flood-opacity="0" result="BackgroundImageFix"/>
<feColorMatrix in="SourceAlpha" type="matrix" values="0 0 0 0 0 0 0 0 0 0 0 0 0 0 0 0 0 0 127 0" result="hardAlpha"/>
<feOffset dy="21.5305"/>
<feGaussianBlur stdDeviation="13.9315"/>
<feColorMatrix type="matrix" values="0 0 0 0 0.397708 0 0 0 0 0.47749 0 0 0 0 0.575 0 0 0 0.37 0"/>
<feBlend mode="normal" in2="BackgroundImageFix" result="effect1_dropShadow_6167_24884"/>
<feBlend mode="normal" in="SourceGraphic" in2="effect1_dropShadow_6167_24884" result="shape"/>
</filter>
<linearGradient id="paint0_linear_6167_24884" x1="217.626" y1="303.979" x2="217.626" y2="269.541" gradientUnits="userSpaceOnUse">
<stop stop-color="#F5F8FF"/>
<stop offset="0.9913" stop-color="#D8E0EB"/>
</linearGradient>
<linearGradient id="paint1_linear_6167_24884" x1="432.574" y1="263.641" x2="432.574" y2="281.882" gradientUnits="userSpaceOnUse">
<stop stop-color="#E3E8F0"/>
<stop offset="1" stop-color="#CCD3DE"/>
</linearGradient>
<linearGradient id="paint2_linear_6167_24884" x1="446.407" y1="263.641" x2="446.407" y2="281.882" gradientUnits="userSpaceOnUse">
<stop stop-color="#E3E8F0"/>
<stop offset="1" stop-color="#CCD3DE"/>
</linearGradient>
<linearGradient id="paint3_linear_6167_24884" x1="460.238" y1="263.641" x2="460.238" y2="281.882" gradientUnits="userSpaceOnUse">
<stop stop-color="#E3E8F0"/>
<stop offset="1" stop-color="#CCD3DE"/>
</linearGradient>
<linearGradient id="paint4_linear_6167_24884" x1="474.07" y1="263.641" x2="474.07" y2="281.882" gradientUnits="userSpaceOnUse">
<stop stop-color="#E3E8F0"/>
<stop offset="1" stop-color="#CCD3DE"/>
</linearGradient>
<linearGradient id="paint5_linear_6167_24884" x1="32.2067" y1="258.43" x2="32.2067" y2="279.077" gradientUnits="userSpaceOnUse">
<stop stop-color="#E3E8F0"/>
<stop offset="1" stop-color="#CCD3DE"/>
</linearGradient>
<linearGradient id="paint6_linear_6167_24884" x1="48.0435" y1="258.43" x2="48.0435" y2="279.077" gradientUnits="userSpaceOnUse">
<stop stop-color="#E3E8F0"/>
<stop offset="1" stop-color="#CCD3DE"/>
</linearGradient>
<linearGradient id="paint7_linear_6167_24884" x1="63.8799" y1="258.43" x2="63.8799" y2="279.077" gradientUnits="userSpaceOnUse">
<stop stop-color="#E3E8F0"/>
<stop offset="1" stop-color="#CCD3DE"/>
</linearGradient>
<linearGradient id="paint8_linear_6167_24884" x1="79.7168" y1="258.43" x2="79.7168" y2="279.077" gradientUnits="userSpaceOnUse">
<stop stop-color="#E3E8F0"/>
<stop offset="1" stop-color="#CCD3DE"/>
</linearGradient>
<linearGradient id="paint9_linear_6167_24884" x1="339.551" y1="303.115" x2="416.069" y2="303.115" gradientUnits="userSpaceOnUse">
<stop stop-color="#B0BACC"/>
<stop offset="1" stop-color="#969EAE"/>
</linearGradient>
<linearGradient id="paint10_linear_6167_24884" x1="349.724" y1="277.843" x2="406.2" y2="277.843" gradientUnits="userSpaceOnUse">
<stop stop-color="#B0BACC"/>
<stop offset="1" stop-color="#969EAE"/>
</linearGradient>
<linearGradient id="paint11_linear_6167_24884" x1="146.926" y1="134.738" x2="139.348" y2="134.738" gradientUnits="userSpaceOnUse">
<stop stop-color="#E3E8F0"/>
<stop offset="1" stop-color="#CCD3DE"/>
</linearGradient>
<linearGradient id="paint12_linear_6167_24884" x1="150.067" y1="152.781" x2="136.014" y2="152.781" gradientUnits="userSpaceOnUse">
<stop stop-color="#E3E8F0"/>
<stop offset="1" stop-color="#CCD3DE"/>
</linearGradient>
<linearGradient id="paint13_linear_6167_24884" x1="150.067" y1="161.203" x2="136.014" y2="161.203" gradientUnits="userSpaceOnUse">
<stop stop-color="#E3E8F0"/>
<stop offset="1" stop-color="#CCD3DE"/>
</linearGradient>
<linearGradient id="paint14_linear_6167_24884" x1="150.067" y1="169.621" x2="136.014" y2="169.621" gradientUnits="userSpaceOnUse">
<stop stop-color="#E3E8F0"/>
<stop offset="1" stop-color="#CCD3DE"/>
</linearGradient>
<linearGradient id="paint15_linear_6167_24884" x1="150.067" y1="178.238" x2="136.014" y2="178.238" gradientUnits="userSpaceOnUse">
<stop stop-color="#E3E8F0"/>
<stop offset="1" stop-color="#CCD3DE"/>
</linearGradient>
<linearGradient id="paint16_linear_6167_24884" x1="150.067" y1="186.66" x2="136.014" y2="186.66" gradientUnits="userSpaceOnUse">
<stop stop-color="#E3E8F0"/>
<stop offset="1" stop-color="#CCD3DE"/>
</linearGradient>
<linearGradient id="paint17_linear_6167_24884" x1="150.067" y1="195.082" x2="136.014" y2="195.082" gradientUnits="userSpaceOnUse">
<stop stop-color="#E3E8F0"/>
<stop offset="1" stop-color="#CCD3DE"/>
</linearGradient>
<linearGradient id="paint18_linear_6167_24884" x1="147.842" y1="203.5" x2="138.622" y2="203.5" gradientUnits="userSpaceOnUse">
<stop stop-color="#E3E8F0"/>
<stop offset="1" stop-color="#CCD3DE"/>
</linearGradient>
<linearGradient id="paint19_linear_6167_24884" x1="220.345" y1="216.129" x2="186.623" y2="216.129" gradientUnits="userSpaceOnUse">
<stop stop-color="#E3E8F0"/>
<stop offset="1" stop-color="#CCD3DE"/>
</linearGradient>
<linearGradient id="paint20_linear_6167_24884" x1="200.468" y1="224.145" x2="182.154" y2="224.145" gradientUnits="userSpaceOnUse">
<stop stop-color="#E3E8F0"/>
<stop offset="1" stop-color="#CCD3DE"/>
</linearGradient>
<linearGradient id="paint21_linear_6167_24884" x1="284.695" y1="216.129" x2="250.973" y2="216.129" gradientUnits="userSpaceOnUse">
<stop stop-color="#E3E8F0"/>
<stop offset="1" stop-color="#CCD3DE"/>
</linearGradient>
<linearGradient id="paint22_linear_6167_24884" x1="264.817" y1="224.145" x2="246.504" y2="224.145" gradientUnits="userSpaceOnUse">
<stop stop-color="#E3E8F0"/>
<stop offset="1" stop-color="#CCD3DE"/>
</linearGradient>
<linearGradient id="paint23_linear_6167_24884" x1="164.517" y1="280.48" x2="155.428" y2="280.48" gradientUnits="userSpaceOnUse">
<stop stop-color="#E3E8F0"/>
<stop offset="1" stop-color="#CCD3DE"/>
</linearGradient>
<linearGradient id="paint24_linear_6167_24884" x1="167.759" y1="294.512" x2="152.097" y2="294.512" gradientUnits="userSpaceOnUse">
<stop stop-color="#E3E8F0"/>
<stop offset="1" stop-color="#CCD3DE"/>
</linearGradient>
<linearGradient id="paint25_linear_6167_24884" x1="312.82" y1="280.48" x2="303.733" y2="280.48" gradientUnits="userSpaceOnUse">
<stop stop-color="#E3E8F0"/>
<stop offset="1" stop-color="#CCD3DE"/>
</linearGradient>
<linearGradient id="paint26_linear_6167_24884" x1="316.063" y1="294.512" x2="300.402" y2="294.512" gradientUnits="userSpaceOnUse">
<stop stop-color="#E3E8F0"/>
<stop offset="1" stop-color="#CCD3DE"/>
</linearGradient>
</defs>
</svg>
